SplineFontDB: 3.0
FontName: Experiment-Sinhala
FullName: Experiment-Sinhala
FamilyName: Experiment-Sinhala
Weight: Regular
Copyright: Copyright (c) 2015, Pathum Egodawatta
UComments: "2015-9-29: Created with FontForge (http://fontforge.org)"
Version: 0.001
ItalicAngle: 0
UnderlinePosition: -99
UnderlineWidth: 49
Ascent: 750
Descent: 250
InvalidEm: 0
LayerCount: 4
Layer: 0 0 "Back" 1
Layer: 1 0 "Fore" 0
Layer: 2 0 "Back 3" 1
Layer: 3 0 "s1" 1
PreferredKerning: 4
XUID: [1021 779 -1439063335 14876943]
FSType: 0
OS2Version: 0
OS2_WeightWidthSlopeOnly: 0
OS2_UseTypoMetrics: 1
CreationTime: 1443542790
ModificationTime: 1462526449
PfmFamily: 17
TTFWeight: 400
TTFWidth: 5
LineGap: 122
VLineGap: 0
OS2TypoAscent: 879
OS2TypoAOffset: 0
OS2TypoDescent: -250
OS2TypoDOffset: 0
OS2TypoLinegap: 122
OS2WinAscent: 879
OS2WinAOffset: 0
OS2WinDescent: 49
OS2WinDOffset: 0
HheadAscent: 779
HheadAOffset: 0
HheadDescent: -27
HheadDOffset: 0
OS2Vendor: 'PfEd'
Lookup: 4 0 0 "'abvs' Above Base Substitutions in Sinhala lookup 0" { "'abvs' Above Base Substitutions in Sinhala lookup 0-1"  "'abvs' Above Base Substitutions in Sinhala lookup 0-2"  } ['abvs' ('DFLT' <'dflt' > 'sinh' <'dflt' > ) ]
Lookup: 4 0 0 "si_akhands" { "si_akhands subtable"  } ['akhn' ('sinh' <'dflt' > ) ]
Lookup: 4 0 0 "si_reph" { "si_reph subtable"  } ['rphf' ('sinh' <'dflt' > ) ]
Lookup: 4 0 0 "si_halant_1" { "si_halant_1 subtable"  } ['abvs' ('sinh' <'dflt' > ) ]
Lookup: 4 0 0 "si_halant_2" { "si_halant_2 subtable"  } ['abvs' ('sinh' <'dflt' > ) ]
Lookup: 4 0 0 "si_halant_3" { "si_halant_3 subtable"  } ['abvs' ('sinh' <'dflt' > ) ]
Lookup: 4 0 0 "si_abvs_1" { "si_abvs_1 subtable"  } ['abvs' ('sinh' <'dflt' > ) ]
Lookup: 4 0 0 "si_abvs_2" { "si_abvs_2 subtable"  } ['abvs' ('sinh' <'dflt' > ) ]
Lookup: 4 0 0 "si_abvs_3" { "si_abvs_3 subtable"  } ['abvs' ('sinh' <'dflt' > ) ]
Lookup: 4 0 0 "si_abvs_4" { "si_abvs_4 subtable"  } ['abvs' ('sinh' <'dflt' > ) ]

StartChar: si_Tta
Encoding: 34 3495 0
GlifName: si_T_ta
Width: 781
VWidth: -14
Flags: HMW
LayerCount: 4
Back
SplineSet
353.442382812 334 m 1
 327.442382812 346 293.442382812 352 260.442382812 350 c 0
 190.369140625 345.8515625 117.307617188 292.790039062 116.442382812 208 c 0
 115.355802726 108.803477281 199.944466063 42.2948424889 367.442382812 43 c 4
 557.228705606 43.7949037201 650.722119379 185.697659139 656.442382812 327 c 0
 665.150342129 540.589788945 569.467974964 673.364858982 358.442382812 676 c 0
 223.275384718 677.536957205 121.442382812 595 118.442382812 595 c 1
 85.4423828125 648 l 0
 136.296506486 685.638514727 246.850823715 734.567254144 360.442382812 734 c 0
 588.166195662 732.855778392 728.943480374 561.636312573 728.442382812 332 c 0
 727.995573089 105.602165284 585.341587056 -56.8921832884 361.442382812 -59 c 0
 155.835286459 -60.677734375 38.7778735192 38.0029296875 35.4423828125 176 c 0
 32.1533989173 320.966632951 154.427734375 394.418945312 265.442382812 398 c 0
 327.442382812 400 367.442382812 379 367.442382812 379 c 1
 353.442382812 334 l 1
EndSplineSet
Fore
SplineSet
35.3779296875 189.700195312 m 0
 35.3779296875 339.439437229 155.736328125 417.134765625 270.758789062 417.134765625 c 0
 327.99609375 417.134765625 364.442382812 398 364.442382812 398 c 1
 366.801757812 381.622070312 355.038085938 359.219726562 350.442382812 353 c 1
 327.745117188 363.475585938 298.950195312 369.37890625 270.046875 369.37890625 c 0
 185.95703125 369.37890625 106.431640625 310.500004865 106.431640625 214.116210938 c 0
 106.431640625 111.692775592 204.831429855 42.994140625 368.809570312 42.994140625 c 0
 577.463886507 42.994140625 654.987202033 184.72515328 660.928710938 342.05859375 c 0
 668.040940302 527.849071099 569.948177751 676.029288645 344.067371201 676.029288645 c 0
 211.086920286 676.029288645 133.41015625 604 130.442382812 604 c 1
 118.0703125 612.104492188 106.297851562 638.651367188 115.442382812 669 c 5
 166.00390625 706.421875 255.581288439 734.004887306 348.483032628 734.004887306 c 0
 575.214173253 734.004887306 732.506491682 574.917632749 726.581054688 335 c 0
 720.743089402 98.6240478713 590.635742188 -59.021484375 361.291992188 -59.021484375 c 0
 148.866210938 -59.021484375 35.3779296875 43.3052293302 35.3779296875 189.700195312 c 0
EndSplineSet
Layer: 2
SplineSet
374.567382812 272 m 5
 228.567382812 288 125.567382812 252 127.567382812 158 c 4
 128.567382812 94 181.567382812 42 321.567382812 43 c 4
 490.567382812 44 599.264648438 173.225585938 607.567382812 326 c 4
 617.567382812 510 514.263671875 659.0234375 320.567382812 648 c 4
 197.567382812 641 104.567382812 580 101.567382812 580 c 5
 78.5673828125 627 l 5
 118.567382812 651 223.567382812 706 351.567382812 706 c 4
 568.567382812 705 688.567382812 537 678.567382812 321 c 4
 668.669921875 107.228515625 545.567382812 -56 299.567382812 -58 c 4
 163.567382812 -59 44.5673828125 8 44.5673828125 137 c 4
 44.5673828125 291 203.567382812 335 325.567382812 328 c 5
 335.567382812 388 302.567382812 438 210.567382812 438 c 5
 184.567382812 357 l 5
 133.567382812 350 98.5673828125 379 107.567382812 425 c 4
 117.567382812 481 175.567382812 500 222.567382812 500 c 4
 298.567382812 500 381.567382812 469 382.567382812 359 c 4
 382.567382812 323 374.567382812 272 374.567382812 272 c 5
EndSplineSet
EndChar

StartChar: si_Pa
Encoding: 46 3508 1
GlifName: si_P_a
Width: 788
VWidth: -24
Flags: HMW
LayerCount: 4
Back
SplineSet
505.01953125 352 m 1
 457.01953125 333 l 1
 449.01953125 358 442.01953125 384 442.01953125 426 c 0
 443.01953125 512 524.01953125 556 585.01953125 556 c 0
 668.01953125 556 720.01953125 507 720.01953125 427 c 0
 720.01953125 349 623.01953125 309 623.01953125 309 c 1
 607.01953125 326 l 1
 641.071289062 347.129882812 655.903320312 377.10546875 656.01953125 417 c 0
 656.154296875 463 622.01953125 494 563.01953125 494 c 0
 516.01953125 494 480.01953125 462 480.01953125 419 c 0
 480.01953125 367 505.01953125 352 505.01953125 352 c 1
124.01953125 209 m 0
 123.01953125 124 208.01953125 45 393.01953125 45 c 0
 568.01953125 45 668.470703125 127.008789062 670.01953125 216 c 0
 671.794921875 318.00390625 554.01953125 348 457.01953125 333 c 1
 477.01953125 373 l 1
 622.01953125 402 745.01953125 331 741.01953125 193 c 0
 736.01953125 29 569.01953125 -59 388.01953125 -59 c 0
 194.01953125 -59 43.01953125 33 45.01953125 180 c 0
 47.01953125 339 213.01953125 394 321.01953125 384 c 1
 297.01953125 345 l 1
 304.01953125 365 317.392578125 386.33203125 313.01953125 415 c 0
 304.01953125 474 244.01953125 505 176.01953125 490 c 0
 209.01953125 511 l 1
 154.01953125 409 l 1
 113.01953125 411 86.6201171875 436.013671875 88.01953125 471 c 0
 90.01953125 521 147.01953125 557 207.01953125 557 c 0
 277.01953125 557 349.01953125 517 351.01953125 439 c 0
 352.01953125 402 346.01953125 370 337.01953125 333 c 1
 213.01953125 351 125.01953125 287 124.01953125 209 c 0
EndSplineSet
Fore
SplineSet
207.01953125 569 m 4
 280.920898438 569 351.127929688 527.0234375 351.127929688 442.978515625 c 4
 351.127929688 409.3046875 345.36328125 379.30078125 337.01953125 345 c 5
 322.7265625 347.275390625 308.912109375 348.356445312 295.654296875 348.356445312 c 4
 193.576171875 348.356445312 117.010742188 284.40234375 117.010742188 207.518554688 c 4
 117.010742188 123.084960938 199.097655916 37.9911454971 393.01953125 37 c 4
 588.673828125 36 675.0390625 127.10546875 675.0390625 218.502929688 c 4
 675.0390625 311.252929688 587.720703125 349.006835938 504.326171875 349.006835938 c 4
 488.408203125 349.006835938 472.451171875 347.630859375 457.01953125 345 c 5
 477.01953125 385 l 5
 498.573242188 389.59765625 519.640625 391.83984375 539.876953125 391.83984375 c 4
 653.622070312 391.83984375 741.114257812 321.03125 741.114257812 199.946289062 c 4
 741.114257812 30.0625 570.21484375 -59 388.01953125 -59 c 4
 195.291015625 -59 45 31.798828125 45 177.118164062 c 4
 45 334.90234375 188.390625 397.203125 295.756835938 397.203125 c 4
 304.442382812 397.203125 312.895507812 396.796875 321.01953125 396 c 5
 297.01953125 357 l 5
 303.069335938 374.28515625 313.879882812 392.565429688 313.879882812 415.716796875 c 4
 313.879882812 472.971679688 264.365234375 505.75 209.526367188 505.75 c 4
 198.72265625 505.75 187.484375 504.529296875 176.01953125 502 c 5
 209.01953125 523 l 5
 154.01953125 421 l 5
 114.057617188 422.94921875 87.966796875 446.76171875 87.966796875 480.361328125 c 4
 87.966796875 532.604492188 146.654296875 569 207.01953125 569 c 4
502.01953125 363 m 5
 457.01953125 345 l 5
 449.01953125 370 441.53119217 396.002839085 442.01953125 438 c 4
 443.01953125 524 518.01953125 569 585.01953125 568 c 4
 664.010733433 566.821026833 720.01953125 521.658914729 720.01953125 446 c 4
 720.01953125 352.779661017 623.01953125 321 623.01953125 321 c 5
 607.01953125 338 l 5
 641.141601562 359.174804688 656.020507812 396.187457174 656.020507812 429.270507812 c 4
 656.020507812 475.12109375 621.904296875 506 563.01953125 506 c 4
 514.320736069 506 477.01953125 473.573333333 477.01953125 430 c 4
 477.01953125 378 502.01953125 363 502.01953125 363 c 5
EndSplineSet
EndChar

StartChar: si_Va
Encoding: 55 3520 2
GlifName: si_V_a
Width: 789
VWidth: -14
Flags: HMW
LayerCount: 4
Back
SplineSet
386 284 m 5
 250.503597122 301.379310345 123.466247874 252.459206919 128 158 c 4
 131.068944452 87.7909007353 219.271735546 45.1571471554 365 46 c 4
 558.999747213 47.1220420377 667 174.791108795 667 339 c 4
 667 547.71874417 557.941173041 679.712552472 342 677 c 4
 219.063691057 675.455731327 132.310705627 606 129 606 c 5
 97 660 l 5
 139.236417611 688.125 219.378877917 735.634192064 358 735 c 4
 565.816845959 734.018099283 730 582.319357855 730 331 c 4
 730 111.353515625 598.414766771 -48.5793000132 375 -58 c 4
 192.556677605 -65.2548684968 49.349757601 8.03433236137 46 137 c 4
 42.243902439 299.324324324 239.43902439 339.378378378 354 332 c 5
 354 402 304 438 212 438 c 5
 186 357 l 5
 135 350 100.76031191 378.857746694 109 425 c 4
 119 481 177 500 224 500 c 4
 300 500 389.99945787 462.999979147 394 359 c 4
 395.383789062 323.026367188 386 284 386 284 c 5
EndSplineSet
Fore
SplineSet
-558 757 m 1048
223 503 m 0,28,29
 301.04296875 503 394.139273993 460.937250805 394.139273993 351.559540423 c 0,0,0
 394.139273993 317.850536642 386 285 386 285 c 1,0,1
 367.860351562 287.326171875 349.873046875 288.46484375 332.33203125 288.46484375 c 0,0,0
 221.124023438 288.46484375 127.881835938 251.706054688 127.881835938 172.880859375 c 0,0,0
 127.881835938 96.2333984375 219.751953125 43.986328125 370.3828125 43.986328125 c 0,0,0
 563.553710938 43.986328125 675 171.591796875 675 340 c 0,6,7
 675 548.514174916 573.752929688 679.040039062 354.396484375 679.040039062 c 0,0,0
 231.80078125 679.040039062 148.973632812 615 147 615 c 5,10,-1
 136.178710938 622.749023438 124.267578125 650.360351562 128 679 c 5,11,12
 169.635742188 707.311523438 239.389648438 737.006835938 361.276367188 737.006835938 c 0,0,0
 563.3046875 737.006835938 734 589.39144879 734 334 c 0,15,16
 734 105.610719929 600.713867188 -59.4921875 368.008789062 -59.4921875 c 0,0,0
 186.713867188 -59.4921875 50.947265625 22.1328125 50.947265625 149.548828125 c 0,0,0
 50.947265625 296.309570312 212.70940418 332.828491377 327.507290856 332.828491377 c 0,0,0
 336.709666527 332.828491377 345.578125 332.541992188 354 332 c 1,21,22
 354 402 304 438 222 438 c 1,23,-1
 176 357 l 1,24,25
 141.240234375 350.856445312 108.468061652 374.881163208 107.776367188 413.692382812 c 0,0,0
 106.776367188 469.802734375 164.069335938 503 223 503 c 0,28,29
EndSplineSet
EndChar

StartChar: si_Ra
Encoding: 53 3515 4
GlifName: si_R_a
Width: 729
VWidth: -5
Flags: HMW
LayerCount: 4
Back
SplineSet
603 785 m 1
 603 707.080078125 536.435546875 660.377929688 428 594 c 0
 300 516 125 415 125 245 c 0
 125 138 214 48 360 48 c 4
 537.439453125 48 602.853515625 143 606 242 c 4
 610.389648438 379.393554688 502.021484375 481 377 481 c 0
 208.249023438 481 137 339 137 339 c 1
 165 428 l 0
 164 431 253.985351562 531.200195312 386 532 c 0
 536.497072311 532.911779604 688.461914062 424.852539062 685 245 c 0
 681.881835938 83.00390625 550.1171875 -52 356 -52 c 0
 153 -52 47.3366726873 93.98512553 55 252 c 0
 67.9033203125 518.061523438 406 604 504 736 c 1
 544 834 l 1
 586.75390625 835.307617188 603 811.384765625 603 785 c 1
EndSplineSet
Fore
SplineSet
675.066618805 251.899164463 m 0
 675.066618805 84.9059161516 551.97675665 -52 356 -52 c 0
 159.88004048 -52 54.6107250228 84.2574075305 54.6107250228 235.980431581 c 0
 54.6107250228 516.426255002 404.42940796 601.884508681 504 736 c 1
 544 834 l 5
 545.121167552 834.03429062 546.224106084 834.05123063 547.309000652 834.05123063 c 0
 587.59480091 834.05123063 603 810.692858249 603 785 c 0
 603 707.080078125 536.435546875 660.377929688 428 594 c 0
 300 516 125 415 125 245 c 0
 125 133.073973286 231.297716313 53.6681819591 366.324043717 53.6681819591 c 0
 532.528814129 53.6681819591 600.15472283 157.20300922 600.15472283 260.633713181 c 0
 600.15472283 392.842255763 511.772068188 484 377 484 c 0
 208.249023438 484 137 339 137 339 c 1
 165 428 l 1
 163.905622903 431.283131291 265.472067896 532.005728598 397.88989189 532.005728598 c 0
 545.667763935 532.005728598 675.066618805 426.866792457 675.066618805 251.899164463 c 0
EndSplineSet
EndChar

StartChar: si_Ca
Encoding: 27 3488 5
GlifName: si_C_a
Width: 831
VWidth: -14
Flags: HMW
LayerCount: 4
Back
SplineSet
27 327 m 5
 448 333 l 1
 443 283 l 1
 120 283 l 1
 26 271 l 5
 27 327 l 5
EndSplineSet
Refer: 2 3520 N 1 0 0 1 57 0 2
Fore
SplineSet
22 333 m 1
 448 333 l 1
 443 283 l 1
 126 283 l 1
 26 273 l 1
 20.7978515625 284.331054688 11.576171875 308.646484375 22 333 c 1
EndSplineSet
Refer: 2 3520 N 1 0 0 1 57 0 2
Layer: 2
SplineSet
447.541992188 225.029296875 m 5
 446.516601562 225.029296875 411.653320312 225.541992188 368.586914062 225.541992188 c 4
 292.561523438 225.541992188 191.194335938 217.26953125 191.194335938 152.739257812 c 5
 193.30078125 117.782226562 244.788085938 54.419921875 386.53125 53.2763671875 c 4
 536.75 52.064453125 603.9140625 170.841796875 603.9140625 336.284179688 c 5
 603.9140625 521.017578125 537.776367188 628.779296875 368.586914062 636.2109375 c 5
 281.428710938 632.109375 131.208984375 569.047851562 128.1328125 569.047851562 c 5
 111.7265625 610.576171875 l 4
 149.153320312 637.236328125 279.377929688 696.196289062 369.612304688 695.68359375 c 4
 579.817382812 694.658203125 685.9453125 548.540039062 685.9453125 331.157226562 c 4
 685.9453125 112.749023438 598.787109375 -37.470703125 382.4296875 -37.470703125 c 4
 226.057617188 -37.470703125 112.751953125 25.078125 112.751953125 147.099609375 c 4
 112.751953125 277.32421875 260.408203125 289.116210938 260.408203125 289.116210938 c 5
 374.2265625 292.192382812 l 5
 447.541992188 225.029296875 l 5
374.2265625 290.141601562 m 5
 366.536132812 372.172851562 l 5
 366.536132812 372.172851562 343.46484375 416.264648438 258.357421875 416.264648438 c 4
 252.205078125 356.279296875 l 5
 182.991210938 355.25390625 l 5
 175.813476562 365.5078125 171.19921875 392.680664062 171.19921875 409.599609375 c 4
 171.19921875 459.84375 229.133789062 479.326171875 276.301757812 479.326171875 c 4
 367.561523438 479.326171875 442.415039062 437.28515625 450.618164062 328.081054688 c 4
 447.541992188 225.029296875 l 5
 374.2265625 290.141601562 l 5
EndSplineSet
EndChar

StartChar: si_Sa
Encoding: 58 3523 6
GlifName: si_S_a
Width: 912
VWidth: -24
Flags: HMW
AnchorPoint: "si_MaU" 864 185.28 basechar 0
AnchorPoint: "si_MaI" 494 559 basechar 0
AnchorPoint: "si_hal" 746 536 basechar 0
LayerCount: 4
Back
SplineSet
39 379 m 1xf8
 417 381 l 1
 419 336 l 1
 123 335 l 1
 38 322 l 1
 39 379 l 1xf8
547 373 m 1
 580 384 l 1
 679.491210938 410.330078125 865 380.840820312 865 186 c 0
 865 64 790.377929688 -45 659 -45 c 0
 554 -45 487 22 472 126 c 1
 470 123 509 129 507 126 c 1
 489.119140625 25 420.748046875 -43.1982421875 304 -44 c 0
 171.470703125 -44.91015625 99.1728515625 54.9951171875 101 154 c 0
 103.165039062 268 197.35546875 346 232 347 c 1
 326 338 l 1
 239.861328125 324.103515625 161.854492188 266.251953125 163 183 c 0
 163.899414062 112.950195312 215.522286828 64.8459850735 304 62 c 0
 371.15625 59.83984375 469 88.2900390625 472 214 c 1
 507 215 l 1
 510 100.411132812 583.994140625 64.4326171875 664 64 c 0
 743.806640625 63.599609375 799.400390625 113.7890625 801 195 c 0xfa
 803.384765625 310.975585938 705.305664062 383.813476562 542 328 c 1
 537 350.166992188 532.391601562 374.670898438 532 398 c 0
 530 500 603 568 687 570 c 0
 753.981445312 571.594726562 830 532 830 452 c 0
 830 356 737 330 737 330 c 1
 721 337 l 1
 721 337 760 374.990234375 760 424 c 0xfc
 760 465 719.879882812 513.047851562 656 509 c 0
 619.995117188 506.71875 577 472 572 411 c 0
 568.227539062 364.98046875 588 353 588 353 c 1
 547 373 l 1
388 364 m 1
 391 398 391 417 379 445 c 0
 365 480 310 508 260 503 c 0
 209 419 l 1
 179 422 155 439 155 476 c 0
 155 543 227 568 280 568 c 0
 360 568 433.292681415 518.050987214 436 433 c 0
 437.56640625 383.791015625 428 358.083007812 419 337 c 1
 388 364 l 1
EndSplineSet
Fore
SplineSet
38 379 m 1
 417 379 l 1
 419 337 l 1
 123 337 l 1
 38 322 l 1
 32.9708431108 343.51528707 32.3697515592 362.815917542 38 379 c 1
669.50390625 503.239257812 m 0
 625.010742188 503.239257812 571.521497141 469.518401438 571.521497141 399.736570483 c 0
 571.521497141 362.984603796 588 353 588 353 c 1
 547 373 l 1
 580 384 l 1
 599.655293784 389.201719992 622.667784798 392.224855977 646.943859699 392.224855977 c 0
 745.548476136 392.224855977 865 342.348439645 865 186 c 0
 865 63.4368784584 786.774414062 -46 650.874023438 -46 c 0
 531.23828125 -46 481.905273438 22.66015625 467 126 c 1
 466.577148438 125.366210938 467.985351562 125.133789062 470.451171875 125.133789062 c 0
 477.186523438 125.133789062 491.813476562 126.866210938 498.548828125 126.866210938 c 0
 501.014648438 126.866210938 502.422851562 126.633789062 502 126 c 0
 484.051757812 24.6181640625 419.15625 -44 301.205078125 -44 c 0
 165.446289062 -44 100.966195144 52.9929529197 100.966195144 150.334902037 c 0
 100.966195144 273.780552002 193.487595798 347 229.930389091 347 c 2
 326 347 l 1
 228.312359602 335.927953482 165.805664062 265.528320312 165.805664062 186.677734375 c 0
 165.805664062 113.049804688 226.936523438 53.853515625 317.05078125 53.853515625 c 0
 383.274414062 53.853515625 460.1328125 90.8466796875 465 211 c 1
 478 215.658796875 491 217.1015625 504 215 c 5
 506.95703125 102.041992188 571.49609375 53.98046875 654 53.98046875 c 0
 736.674804688 53.98046875 801.034641671 113.801570516 801.034641671 198.36259074 c 0
 801.034641671 284.981470218 731.791232481 348.38544635 637.628166871 348.38544635 c 0
 607.784850009 348.38544635 575.438476562 343.016601562 542 329 c 1
 536.674804688 352.608398438 531.959846987 376.578855594 531.959846987 402.085058768 c 0
 531.959846987 502.724983096 609.195598398 566.658793936 704.900390625 568.045898438 c 0
 773.896484375 569.045898438 841 531.451171875 841 453 c 0
 841 357 748 331 748 331 c 1
 732 331 l 1
 732 331 767 369.990234375 767 419 c 0
 767 458.370117188 734.005859375 503.239257812 669.50390625 503.239257812 c 0
280 568 m 0
 364.702132678 568 436.169614714 515.178234878 436.169614714 422.569098419 c 0
 436.169614714 380.053997323 427.341528536 356.540501255 419 337 c 1
 391 364 l 1
 392 375.333007812 395.666992188 385 395.666992188 393.888671875 c 0
 395.666992188 462.0078125 333.787991519 508.655960281 263.433975885 508.655960281 c 1
 209 419 l 1
 179 422 155 439 155 476 c 0
 155 543 227 568 280 568 c 0
EndSplineSet
EndChar

StartChar: si_Ka
Encoding: 21 3482 7
GlifName: si_K_a
Width: 1095
VWidth: -24
Flags: HMW
AnchorPoint: "si_hal" 890 494 basechar 0
LayerCount: 4
Back
SplineSet
832 17 m 0xb0
 944.916015625 20.09375 966.169921875 184.509765625 942 281 c 0
 911.051757812 404.547851562 781.896484375 466.663085938 642 462 c 0
 542.9140625 458.697265625 465.959960938 431.771484375 372 374 c 1
 355 362 366 367 352 355 c 1
 255 276 173 211 73 79 c 1
 73 79 38.1279296875 98.5439453125 44 107 c 0
 144 251 234 322 332 413 c 1
 339 419 348 420 355 425 c 1
 447 505 560.087890625 556.008789062 669 561 c 0
 875.541015625 570.465820312 1028.95410156 450.18359375 1042 282 c 0
 1055.14355469 112.560546875 966.994140625 -33 819 -33 c 4
 760 -33 723 -15 723 -15 c 1
 743 46 l 1
 743 46 774.74609375 15.431640625 832 17 c 0xb0
305 377 m 1x30
 317 400 320.857421875 420.9921875 320 439 c 0
 318 481 281.760742188 505.678710938 232 501 c 0
 197.934570312 497.796875 162 470 168 426 c 1
 208 371 l 1
 194 347 171.001953125 335.022460938 149 336 c 0
 104 338 84 369 84 415 c 0
 84 495 150.983398438 563.181640625 248 559 c 0
 330.926757812 555.42578125 379.715820312 480.119140625 353 416 c 0
 338 380 353 404 340 387 c 1
 305 377 l 1x30
124 165 m 1
 132 169 141.001953125 171.854492188 148 172 c 0
 196 173 205 72 288 72 c 0
 337 72 387 101 388 197 c 1
 423 197 l 0
 424 94 483.997070312 71.1669921875 544 72 c 0
 604.002929688 72.8330078125 655 118 655 194 c 0
 655 273 583 340 469 345 c 0
 407.059570312 347.716796875 331 329 298 311 c 1
 352 364 l 1
 365 368 398.99609375 390.330078125 476 391 c 0
 591 392 713 332 713 182 c 0
 713 48 637.995117188 -34.9423828125 533 -36 c 0
 447.693359375 -36.859375 414.721679688 8.326171875 396 49 c 1
 414 49 l 1
 396.737304688 7.81640625 353.954101562 -36 289 -36 c 0
 130.997070312 -36 177 169 112 130 c 0
 124 165 l 1
EndSplineSet
Fore
SplineSet
817.751953125 11.94140625 m 4
 917.66796875 11.94140625 966.915039062 119.083007812 966.915039062 218.872070312 c 0
 966.915039062 394.147460938 822.669921875 469.244140625 655.630859375 469.244140625 c 0
 546.423828125 469.244140625 469.286480476 435.127076233 372 374 c 0
 354.385236433 362.932285451 366.259108476 366.689899742 352 355 c 0
 262.000634018 272.916819313 179.03125 205.615234375 86 69 c 1
 86 69 51.306640625 78.6123046875 57 97 c 1
 150.243164062 245.556640625 240.408800462 319.384162158 332 413 c 0
 338.771757017 419.255813626 348 420 355 425 c 0
 452.931900518 510.158174363 568.045898438 561.522460938 693.647460938 561.522460938 c 0
 884.84375 561.522460938 1038.29101562 430.892578125 1038.29101562 243.915039062 c 0
 1038.29101562 89.0449218752 964.2421875 -36.9794921875 807 -39 c 4
 747.993164062 -39.7587890625 708 -15 708 -15 c 5
 706.233398438 1.33203125 723.057617188 30.666015625 737 41 c 5
 737 41 758.177734375 11.94140625 817.751953125 11.94140625 c 4
227.564453125 559.182617188 m 0
 303.166992188 559.182617188 351.336914062 505.442382812 351.336914062 449.491210938 c 0
 351.336914062 414.751953125 335.06640625 393.625 330 387 c 1
 295 377 l 1
 305.942382812 397.973632812 309.114257812 410.27734375 309.114257812 434.170898438 c 0
 309.114257812 476.407226562 274.12109375 501.565429688 228.819335938 501.565429688 c 0
 189.75390625 501.565429688 153.227539062 475.264648438 153.227539062 432.5625 c 1
 198 371 l 1
 184.529296875 347.90625 162.7265625 335.944335938 141.497070312 335.944335938 c 0
 94.6474609375 335.944335938 74 368.904296875 74 415 c 0
 74 492.66015625 135.122070312 559.182617188 227.564453125 559.182617188 c 0
713 182 m 0
 713 47.2467431379 637.491210938 -36 540.61328125 -36 c 0
 451.076171875 -36 421.545898438 18.7080078125 403 59 c 1
 421 56 l 1
 403.737304688 14.81640625 359.954101562 -36 295 -36 c 0
 167.658203125 -36 176.21875 122.934570312 128.631835938 122.934570312 c 0
 124.454101562 122.934570312 119.645507812 121.387695312 114 118 c 1
 126 145 l 1
 134.268554688 149.134765625 143.1640625 152.0078125 150.706054688 152.0078125 c 0
 200.298828125 152.0078125 215.981445312 68 296 68 c 0
 345 68 394 102 395 197 c 1
 406.083984375 200.626953125 421.239257812 201.359375 430 198 c 1
 430.982421875 96.7763671875 488.9453125 65.978515625 545.896484375 65.978515625 c 0
 611.200195312 65.978515625 655 115.718415806 655 194 c 0
 655 275.772692542 586.983398438 345.264648438 446.643554688 345.264648438 c 0
 387.265625 345.264648438 318.834960938 325.819335938 288 309 c 1
 314 350 l 1
 326.453125 353.83203125 402.179524427 391.012279158 478.823715208 391.012279158 c 0
 582.987953375 391.012279158 713 330.772878088 713 182 c 0
EndSplineSet
Layer: 2
SplineSet
66.326171875 67.880859375 m 4
 176.326171875 281.57421875 420.939453125 524.341796875 643.62109375 533.0859375 c 4
 798.192382812 539.15625 942.725585938 463.5625 957.004882812 265.268554688 c 4
 965.497070312 124.8046875 914.6171875 -34.4140625 763.591796875 -34.8349609375 c 4
 728.2109375 -34.93359375 701.04296875 -23.37890625 701.04296875 -23.37890625 c 5
 712.322265625 29.4287109375 l 5
 712.322265625 29.4287109375 730.873046875 21.8466796875 756.412109375 21.806640625 c 4
 842.055664062 21.6630859375 885.763671875 102.141601562 881.553710938 211.435546875 c 4
 876.166015625 351.30078125 785.966796875 431.989257812 650.798828125 441.000976562 c 4
 561.961914062 447.6640625 473.952148438 415.846679688 393.42578125 365.911132812 c 5
 262.13671875 271.62109375 154.274414062 117.798828125 107.854492188 37.119140625 c 5
 107.854492188 37.119140625 61.4423828125 58.3955078125 66.326171875 67.880859375 c 4
279.607421875 343.198242188 m 5
 328.935546875 386.706054688 315.552734375 475.928710938 233.46484375 475.555664062 c 4
 195.796875 475.383789062 164.247070312 443.416015625 165.7890625 409.3359375 c 5
 210.90625 333.45703125 l 4
 153.484375 303.073242188 l 4
 120.538085938 307.661132812 75.951171875 329.982421875 72.478515625 387.745117188 c 4
 67.6318359375 468.33984375 144.56640625 534.123046875 232.439453125 536.939453125 c 4
 364.852539062 541.184570312 393.092773438 430.3125 362.266601562 380.625 c 4
 337.954101562 341.435546875 354.93359375 359.189453125 317.034179688 327.3046875 c 5
 279.607421875 343.198242188 l 5
158.098632812 125.302734375 m 5
 246.37109375 136.614257812 222.497070312 68.2265625 307.805664062 67.880859375 c 4
 346.783203125 67.72265625 398.271484375 94.3310546875 399.065429688 189.537109375 c 5
 452.8984375 189.389648438 l 4
 454.41796875 86.7236328125 513.942382812 67.1943359375 548.772460938 67.880859375 c 4
 609.311523438 69.07421875 629.265625 108.717773438 629.265625 174.521484375 c 4
 629.265625 258.342773438 562.046875 335.881835938 432.903320312 336.8125 c 4
 391.630859375 337.111328125 366.022460938 332.555664062 333.953125 320.126953125 c 5
 391.375 373.447265625 l 5
 404.348632812 377.874023438 420.5078125 385.955078125 451.360351562 386.822265625 c 4
 556.364257812 389.775390625 705.14453125 341.606445312 705.14453125 166.318359375 c 4
 705.14453125 46.3330078125 656.326171875 -34.4091796875 550.823242188 -34.830078125 c 4
 436.723632812 -35.283203125 429.314453125 53.525390625 429.314453125 53.525390625 c 5
 429.314453125 53.525390625 407.747070312 -33.6240234375 305.2421875 -34.02734375 c 4
 156.338867188 -34.615234375 188.34765625 130.942382812 132.9765625 77.109375 c 4
 158.098632812 125.302734375 l 5
EndSplineSet
EndChar

StartChar: si_Ta
Encoding: 40 3501 8
GlifName: si_T_a
Width: 1073
VWidth: -24
Flags: HMW
AnchorPoint: "si_hal" 803 516 basechar 0
LayerCount: 4
Back
SplineSet
211.738963395 558.17474967 m 4
 284.700138257 558.17474967 333.513355325 508.070220636 333.513355325 453.082209001 c 4
 333.513355325 441.019094297 331.102081218 428.812180821 326 417 c 4
 319.554325321 402.077173105 318.481825627 397.509441064 318.481825627 396.026216927 c 4
 318.481825627 393.950882003 320.581538917 397.914320122 313 388 c 5
 278 378 l 5
 289.000080717 399.08348804 293.099516984 418.477542788 293.099516984 435.436238788 c 4
 293.099516984 479.665506312 257.412768846 503.18416106 219.499329021 503.18416106 c 4
 174.15187671 503.18416106 144.217320145 475.142999345 140 425 c 5
 180 370 l 5
 166.572459681 346.981359453 144.863593061 334.934226259 123.702788897 334.934226259 c 4
 80.6625011172 334.934226259 56 367.775543355 56 414 c 4
 56 491.708854238 119.197708112 558.17474967 211.738963395 558.17474967 c 4
775.15625 6.958984375 m 4
 878.91796875 6.958984375 932.396484375 114.30859375 932.396484375 231.428710938 c 4
 932.396484375 399.433039323 780.780833168 474.298828125 622.684570312 474.298828125 c 4
 527.213746528 474.298828125 437.940021452 439.868446905 345 374 c 4
 328 362 339.259108476 366.689899742 325 355 c 4
 228.259108476 275.689899742 176 211 76 79 c 5
 76 79 46.3336130532 95.6259098453 46.3336130532 104.843544007 c 4
 46.3336130532 105.619666746 46.543935942 106.343267756 47 107 c 4
 147 251 206.771757017 322.255813626 305 413 c 4
 311.771757017 419.255813626 321.394653095 419.491760642 328 425 c 4
 428.447726849 508.763976429 535.623046875 566.521484375 669.826171875 566.521484375 c 4
 868.513671875 566.521484375 1005.23242188 434.396484375 1005.23242188 250.580078125 c 4
 1005.23242188 83.39453125 922.244140625 -44 757 -44 c 4
 689.244318182 -44 657 -19 657 -19 c 5
 681 33 l 5
 681 33 718.021231811 6.958984375 775.15625 6.958984375 c 4
439.532839242 394.038331181 m 4
 542.330797788 394.038331181 679 345.958712157 679 195 c 4
 679 89.8291015625 604.740995136 -50.050004766 392 -44 c 4
 286.508680556 -41 206.624736743 7.71405288191 192 67.9970703125 c 4
 181.32594097 103.811324101 159.547134979 118.073394991 132.660279873 118.073394991 c 4
 117.749217157 118.073394991 101.122537441 112.842500458 84 104 c 5
 106 142 l 5
 124.02191534 149.744964542 136.283800807 157.664846595 153.473278219 157.664846595 c 4
 232.445388634 157.664846595 247.436412199 53.951171875 408.198242188 53.951171875 c 4
 541.564509704 53.951171875 620.018344598 119.684629784 620.018344598 202.86130792 c 4
 620.018344598 328.066955412 482.690587802 346.001349777 430.783340442 346.001349777 c 4
 349.51152125 346.001349777 291.836380406 327.910752948 259 310 c 5
 296 362 l 5
 308.730408226 365.917048685 369.412282368 394.038331181 439.532839242 394.038331181 c 4
EndSplineSet
Fore
SplineSet
211.738963395 558.17474967 m 0
 284.700138257 558.17474967 333.513355325 508.070220636 333.513355325 453.082209001 c 0
 333.513355325 428.649211764 317.797008089 394.273010578 313 388 c 1
 278 378 l 1
 289.000080717 399.08348804 293.099516984 418.477542788 293.099516984 435.436238788 c 0
 293.099516984 479.665506312 257.412768846 503.18416106 219.499329021 503.18416106 c 0
 174.15187671 503.18416106 144.217320145 475.142999345 140 425 c 1
 180 370 l 1
 166.572459681 346.981359453 144.863593061 334.934226259 123.702788897 334.934226259 c 0
 80.6625011172 334.934226259 56 367.775543355 56 414 c 0
 56 491.708854238 119.197708112 558.17474967 211.738963395 558.17474967 c 0
786.15625 6.958984375 m 0
 903.116210938 6.958984375 963.46484375 125.241210938 956.396484375 245.428710938 c 0
 946.92674122 406.448361333 812.990234375 479.298828125 644.684570312 479.298828125 c 0
 549.213867188 479.298828125 438.064437519 439.692544131 345 374 c 0
 328 362 339.050861031 366.939398427 325 355 c 0
 228.354255652 272.877484839 169.902104592 199.680851064 70 63 c 1
 70 63 40.83203125 70.1142578125 41 92 c 1
 140.90843381 240.63022508 205.352786033 320.944954705 305 413 c 0
 311.771757017 419.255813626 321.394653095 419.491760642 328 425 c 0
 428.447726849 508.763976429 545.623046875 566.521484375 679.826171875 566.521484375 c 0
 890.361328125 566.521484375 1036.23242188 433.578125 1036.23242188 255.580078125 c 0
 1036.23242188 82.71875 938.557617188 -46 780 -46 c 0
 702.244140625 -46 681 -24 681 -24 c 1
 678.689453125 -8.111328125 689.52734375 18.0341796875 708 30 c 1
 708 30 738.59375 6.958984375 786.15625 6.958984375 c 0
439.533203125 391.038085938 m 0
 542.331054688 391.038085938 677 345.958984375 677 195 c 0
 677 89.8291015625 607.5390625 -40.9365234375 408 -40 c 0
 313.073242188 -39.61328125 225.405273438 0.6572265625 194 59.9970703125 c 0
 168.548828125 108.086914062 142.657887308 131.646048571 93 106 c 1
 95 137 l 1
 105.022460938 144.745117188 128.284179688 161.665039062 165.473632812 161.665039062 c 0
 247.803565114 161.665039062 265.601996671 53.951171875 433.198242188 53.951171875 c 0
 549.669695653 53.951171875 619.018554688 119.684570312 619.018554688 202.861328125 c 0
 619.018554688 318.690429688 494.867586792 349.000976562 433.783203125 349.000976562 c 0
 351.092129325 349.000976562 289.41015625 325.403320312 256 306 c 1
 286 341 l 1
 298.73046875 346.139648438 359.412109375 391.038085938 439.533203125 391.038085938 c 0
EndSplineSet
Layer: 2
SplineSet
650.8046875 -22.5302734375 m 13
 664.133789062 34.111328125 l 4
 673.158203125 34.099609375 692.454101562 26.2783203125 721.043945312 26.2783203125 c 4
 828.709960938 26.2783203125 872.337890625 139.078125 871.305664062 238.608398438 c 4
 869.853515625 378.5703125 750.03125 462.880859375 620.04296875 464.584960938 c 4
 515.595703125 465.955078125 428.328125 437.892578125 342.674804688 382.830078125 c 5
 211.385742188 288.540039062 159.407226562 235.71875 56.5908203125 73.0078125 c 5
 56.5908203125 73.0078125 14.9287109375 94.48828125 20.189453125 103.76953125 c 4
 85.23828125 218.547851562 184.014648438 315.069335938 282.176757812 406.313476562 c 5
 289.81640625 412.305664062 297.509765625 418.155273438 305.248046875 423.856445312 c 5
 390.520507812 496.668945312 514.975585938 555.073242188 628.24609375 556.157226562 c 4
 798.30859375 557.784179688 958.811523438 460.306640625 962.137695312 271.93359375 c 4
 965.504882812 81.2705078125 854.120117188 -24.0751953125 724.120117188 -31.71484375 c 4
 683.104492188 -34.125 658.315429688 -22.5107421875 650.8046875 -22.5302734375 c 13
247.826171875 365.756835938 m 5
 284.606445312 440.026367188 243.995117188 496.55859375 201.68359375 497.6015625 c 4
 158.612304688 498.662109375 133.166992188 465.461914062 128.880859375 431.381835938 c 5
 158.6171875 376.010742188 l 5
 144.875 352.084960938 121.26953125 339.463867188 99.6572265625 340.846679688 c 4
 73.9462890625 342.491210938 51.056640625 363.958007812 50.951171875 409.791015625 c 4
 50.7890625 480.055664062 104.263671875 565.857421875 216.0390625 558.985351562 c 4
 303.006835938 553.638671875 331.68359375 473.038085938 304.228515625 408.823242188 c 4
 289.037109375 373.291992188 300.887695312 391.560546875 287.81640625 374.985351562 c 5
 247.826171875 365.756835938 l 5
152.977539062 228.354492188 m 5
 140.852539062 101.243164062 257.12109375 60.1318359375 369.84765625 57.626953125 c 4
 532.9140625 54.0029296875 583.4296875 113.750976562 583.641601562 200.668945312 c 4
 583.879882812 299.25 495.337890625 339.16015625 402.147460938 343.477539062 c 4
 330.133789062 346.815429688 258.362304688 318.712890625 226.29296875 301.157226562 c 5
 283.71484375 365.244140625 l 5
 296.688476562 369.670898438 369.370117188 394.450195312 430.858398438 393.487304688 c 4
 541.220703125 391.759765625 681.171875 347.966796875 670.799804688 178.110351562 c 4
 664.412109375 73.5126953125 595.322265625 -40.947265625 356.517578125 -40.982421875 c 4
 205.581054688 -41.00390625 92.37890625 57.7041015625 120.677734375 189.90234375 c 5
 152.977539062 228.354492188 l 5
EndSplineSet
EndChar

StartChar: si_Na
Encoding: 44 3505 9
GlifName: si_N_a
Width: 1051
VWidth: -24
Flags: HMW
AnchorPoint: "si_hal" 782 502 basechar 0
LayerCount: 4
Back
SplineSet
256.046875 557.208007812 m 4
 328.749023438 557.208007812 377.932617188 504.991210938 377.932617188 447.366210938 c 4
 377.932617188 434.515625 375.395507812 421.525390625 370 409 c 4
 363.658203125 393.779296875 362.678710938 389.284179688 362.678710938 387.880859375 c 4
 362.678710938 385.965820312 364.50390625 389.8125 357 380 c 5
 322 370 l 5
 333.041992188 391.165039062 337.08984375 410.625 337.08984375 427.631835938 c 4
 337.08984375 472.862304688 305.258789062 499.474609375 259.663085938 499.474609375 c 4
 221.247070312 499.474609375 180.227539062 472.674804688 180.227539062 430.5625 c 5
 225 369 l 5
 211.529296875 345.907226562 189.727539062 333.944335938 168.498046875 333.944335938 c 4
 121.647460938 333.944335938 101 366.903320312 101 413 c 4
 101 490.514648438 163.8984375 557.208007812 256.046875 557.208007812 c 4
744.59765625 0.9326171875 m 4
 862.9375 0.9326171875 931.004882812 117.193359375 931.004882812 227.26953125 c 4
 931.004882812 372.034179688 809.458984375 464.146484375 649.123046875 464.146484375 c 4
 549.690429688 464.146484375 471.706054688 440.256835938 362 329 c 5
 349 329 l 5
 284.053710938 242.874023438 214.962890625 142.756835938 133.70703125 142.756835938 c 4
 117.008789062 142.756835938 99.7958984375 146.858398438 82 156 c 5
 82 212 l 5
 95.19140625 196.40625 108.775390625 189.645507812 124.333007812 189.645507812 c 4
 187.19140625 189.645507812 264.524414062 301.34375 333 384 c 4
 341.571289062 394.346679688 343 383 355 391 c 5
 448.7890625 498.123046875 558.565429688 561 679 561 c 4
 852.860351562 561 1004.03515625 444.884765625 1004.03515625 246.28515625 c 4
 1004.03515625 90.357421875 913.12890625 -51 738 -51 c 4
 678.92578125 -51 627 -29.25 627 -27 c 6
 649 25 l 5
 670.5546875 12.6357421875 690.5 0.9326171875 744.59765625 0.9326171875 c 4
586 207 m 4
 586 269.006835938 530.9765625 323.471679688 431.235351562 323.471679688 c 4
 371.1875 323.471679688 320.662109375 302.854492188 282 278 c 5
 312 322 l 5
 325 326 377 363 459 363 c 4
 559 363 648 308.276367188 648 196 c 4
 648 91 576 -49 346 -49 c 4
 163.63671875 -49 37.939453125 71.2451171875 40 222 c 5
 87 222 l 5
 83.8623046875 77.033203125 247.317382812 53.9091796875 355.77734375 53.9091796875 c 4
 464.829101562 53.9091796875 586 107.375 586 207 c 4
EndSplineSet
Fore
SplineSet
256.046875 557.208007812 m 0
 328.749023438 557.208007812 377.932617188 504.991210938 377.932617188 447.366210938 c 0
 377.932617188 434.515625 375.395507812 421.525390625 370 409 c 0
 356.759765625 377.221679688 358.920898438 380.565429688 323 370 c 1
 334.041992188 391.165039062 337.08984375 410.625 337.08984375 427.631835938 c 0
 337.08984375 472.862304688 305.258789062 499.474609375 259.663085938 499.474609375 c 0
 221.247070312 499.474609375 180.227539062 472.674804688 180.227539062 430.5625 c 1
 225 369 l 1
 211.529296875 345.907226562 189.727539062 333.944335938 168.498046875 333.944335938 c 0
 121.647460938 333.944335938 101 366.903320312 101 413 c 0
 101 490.514648438 163.8984375 557.208007812 256.046875 557.208007812 c 0
751.59765625 -2.0673828125 m 4
 869.9375 -2.0673828125 931.004882812 117.193359375 931.004882812 227.26953125 c 0
 931.004882812 372.034179688 809.458984375 464.146484375 649.123046875 464.146484375 c 0
 549.690429688 464.146484375 471.706054688 440.256835938 362 329 c 1
 349 329 l 1
 287.0703125 233.625 221.188476562 122.756835938 143.70703125 122.756835938 c 0
 127.008789062 122.756835938 109.795898438 126.858398438 92 136 c 1
 92 192 l 1
 105.190429688 176.40625 118.774414062 169.645507812 134.333007812 169.645507812 c 0
 194.178710938 169.645507812 267.805664062 292.837890625 333 384 c 0
 341.571289062 394.346679688 343 383 355 391 c 1
 448.7890625 498.123046875 558.565429688 561 679 561 c 0
 852.860351562 561 1004.03515625 444.884765625 1004.03515625 246.28515625 c 0
 1004.03515625 90.357421875 915.12890625 -51 742 -51 c 0
 682.92578125 -51 635 -27.25 635 -25 c 1
 627.974609375 -12.6162109375 641 24 653 32 c 1
 665.5546875 22.6357421875 697.5 -2.0673828125 751.59765625 -2.0673828125 c 4
586 207 m 0
 586 269.006835938 530.9765625 323.471679688 431.235351562 323.471679688 c 0
 371.1875 323.471679688 320.662109375 302.854492188 282 278 c 1
 312 310 l 1
 325 314 377 363 459 363 c 0
 559 363 648 308.276367188 648 196 c 0
 648 91 576 -49 346 -49 c 0
 169.595703125 -49 48.0068359375 64.37109375 50 204 c 1
 64.9716796875 208.721679688 86.7958984375 205.384765625 95 203 c 1
 91.9794921875 75.28125 252.352539062 49.9091796875 356.77734375 49.9091796875 c 0
 465.829101562 49.9091796875 586 107.375 586 207 c 0
EndSplineSet
Layer: 2
SplineSet
19.7060546875 83.3212890625 m 0
 129.70703125 297.014648438 348.685546875 541.3203125 586.747070312 550.064453125 c 0
 741.333007812 555.743164062 903.002929688 475.564453125 920.126953125 277.120117188 c 0
 932.224609375 136.918945312 847.490234375 -32.3037109375 696.463867188 -32.724609375 c 0
 661.083984375 -32.8232421875 644.168945312 -21.2685546875 644.168945312 -21.2685546875 c 1
 660.575195312 26.412109375 l 1
 660.575195312 26.412109375 668.873046875 18.8330078125 694.412109375 18.7900390625 c 0
 780.055664062 18.646484375 840.682617188 119.120117188 834.421875 228.4140625 c 0
 826.416015625 368.154296875 713.6328125 447.84765625 588.797851562 452.852539062 c 0
 499.783203125 456.421875 422.206054688 437.952148438 341.678710938 388.016601562 c 1
 210.390625 293.7265625 107.655273438 133.239257812 61.234375 52.5595703125 c 1
 61.234375 52.5595703125 14.8232421875 73.8359375 19.7060546875 83.3212890625 c 0
250.931640625 381.197265625 m 1
 287.712890625 455.466796875 234.236328125 494.984375 181.717773438 492.534179688 c 0
 156.075195312 491.3359375 118.328125 470.6484375 114.041992188 436.568359375 c 1
 143.778320312 376.0703125 l 0
 122.487304688 339.00390625 87.47265625 333.344726562 60.7216796875 345.686523438 c 0
 60.7216796875 345.686523438 31.107421875 362.216796875 30.9853515625 414.977539062 c 0
 30.82421875 485.2421875 84.0283203125 553.598632812 180.692382812 553.91796875 c 0
 267.637695312 554.205078125 311.71875 503.859375 315.025390625 444.771484375 c 0
 317.184570312 406.189453125 296.303710938 391.620117188 283.231445312 375.044921875 c 1
 250.931640625 381.197265625 l 1
168.387695312 214.571289062 m 1
 138.741210938 169.486328125 165.624023438 68.28515625 256.05859375 67.9404296875 c 0
 295.037109375 67.7919921875 346.525390625 94.390625 347.318359375 189.596679688 c 1
 401.151367188 189.44921875 l 0
 402.671875 86.783203125 462.197265625 67.1904296875 497.025390625 67.9404296875 c 0
 552.4375 69.1337890625 586.747070312 124.158203125 586.747070312 184.834960938 c 0
 586.747070312 299.41796875 500.049804688 343.943359375 376.029296875 343.537109375 c 0
 314.25 343.3359375 278.387695312 323.899414062 246.317382812 306.34375 c 1
 303.739257812 369.91796875 l 1
 316.713867188 374.344726562 353.508789062 385.482421875 384.232421875 388.419921875 c 0
 468.729492188 396.5 654.935546875 373.965820312 654.935546875 167.916015625 c 0
 654.935546875 53.0576171875 599.965820312 -34.349609375 494.461914062 -34.7705078125 c 0
 380.36328125 -35.2236328125 377.567382812 53.5849609375 377.567382812 53.5849609375 c 1
 377.567382812 53.5849609375 356.000976562 -33.5771484375 253.495117188 -33.9677734375 c 0
 99.4658203125 -34.5556640625 98.6611328125 125.875 120.194335938 164.327148438 c 0
 168.387695312 214.571289062 l 1
EndSplineSet
EndChar

StartChar: anusvara
Encoding: 1 3458 10
GlifName: anusvara
Width: 588
VWidth: 0
Flags: HMW
LayerCount: 4
Back
SplineSet
120 225 m 0
 120 135 165.049804688 67.998046875 283 67 c 0
 373.046875 66.23828125 438.099609375 143.999023438 439 224 c 4
 440.125 323.993164062 371 393 264 387 c 0
 194.109375 383.081054688 120 318 120 225 c 0
55 194 m 0
 55 345 173 443 294 443 c 0
 445 443 523 335 523 214 c 0
 523 93 436 -25 285 -25 c 0
 134 -25 55 73 55 194 c 0
EndSplineSet
Fore
SplineSet
276.804849177 387.362834515 m 0
 197.40242493 387.362834515 120 322.895278909 120 225 c 0
 120 134.970185429 165.539771338 66.9944493907 284.31159427 66.9944493907 c 0
 374.433779927 66.9944493907 439.013528677 145.133316226 439.013528677 226.400414439 c 0
 439.013528677 321.068276513 375.647539695 387.362834515 276.804849177 387.362834515 c 0
55 194 m 0
 55 345 173 443 294 443 c 0
 445 443 523 335 523 214 c 0
 523 93 436 -25 285 -25 c 0
 134 -25 55 73 55 194 c 0
EndSplineSet
EndChar

StartChar: si_A
Encoding: 3 3461 12
GlifName: si_A_
Width: 758
VWidth: -17
Flags: HMW
AnchorPoint: "si_hal" 412 492 basechar 0
LayerCount: 4
Back
SplineSet
364 -57.5380859375 m 0
 153.625 -57.1875 52.4326171875 37.0244140625 54 157 c 0
 55.8642578125 305.000976562 183.197265625 381 323 383 c 0
 356.912109375 383.546875 385.2578125 381.401367188 402.384765625 378.52734375 c 1
 403.505859375 468.180664062 340.708007812 504.435546875 271 497 c 1
 215 408 l 1
 169 411 141 448 150 484 c 0
 166 546 225 567 288 567 c 0
 360 567 432 527 446 443 c 0
 455.095703125 388.426757812 439 334 439 334 c 1
 329.883789062 352.869140625 188.782226562 312.513671875 175 179 c 0
 164.526367188 81.240234375 240.35546875 4.236328125 408 4.8173828125 c 0
 529.96875 5.240234375 602.526367188 50.912109375 665 88.599609375 c 1
 696 47 l 1
 624.354492188 -10.3515625 511.6953125 -57.7841796875 364 -57.5380859375 c 0
506 406.842773438 m 1
 507.64453125 463.158203125 496.786132812 528.805664062 565 568 c 1
 594 546.889648438 l 1
 593.51171875 491.823242188 726 455.326171875 726 386 c 0
 726 313.143554688 634 241.561523438 545 234 c 1
 536 274 l 1
 593 284 652 321.561523438 652 378 c 0
 652 426 566.39453125 468.649414062 566 507.856445312 c 1
 554.118164062 493.653320312 558.6328125 470 558.6328125 421.313476562 c 0
 556 -378 l 1
 506 -378 l 1
 506 406.842773438 l 1
438.465820312 371.448242188 m 1
 439.303710938 371.296875 440.147460938 371.146484375 441 371 c 1
 441 371.776367188 440.05859375 371.853515625 438.465820312 371.448242188 c 1
EndSplineSet
Fore
SplineSet
373.143554688 -79.5390625 m 0
 161.489257812 -79.5390625 49.982421875 30.4658203125 49.982421875 144.259765625 c 0
 49.982421875 311.889648438 197.977459536 383.0859375 339.553710938 383.0859375 c 0
 368.775390625 383.0859375 393.067382812 381.09765625 408.384765625 378.52734375 c 1
 409.427734375 461.930664062 350.018155033 507.77575901 286.444162578 507.77575901 c 0
 281.680304618 507.77575901 276.859372162 507.518334846 272 507 c 1
 216 418 l 1
 175.781142969 420.622968937 149.322218025 449.236920704 149.322218025 480.448973724 c 0
 149.322218025 484.93545977 149.86890681 489.475627242 151 494 c 0
 167 556 226 577 289 577 c 0
 371.74637516 577 448.785001471 513.447203543 448.785001471 407.533639407 c 0
 448.785001471 367.087458255 439 334 439 334 c 1
 422.345828067 336.879956237 404.9465491 338.380259887 387.368571723 338.380259887 c 0
 275.899784359 338.380259887 149.047851562 294.682617188 149.047851562 161.479492188 c 0
 149.047851562 52.5537109375 233.619140625 -20.185546875 409.118164062 -20.185546875 c 0
 548.9140625 -20.185546875 626.356445312 25.6611328125 680 74.599609375 c 1
 695.521484375 69.1767578125 716.018554688 42.4033203125 716 25 c 1
 654.640625 -22.203125 550.366210938 -79.5390625 373.143554688 -79.5390625 c 0
506 434.910299435 m 2
 506 483.814733106 507.881801594 535.181015404 565 568 c 1
 594 546.889648438 l 1
 593.51171875 491.823242188 726 455.326171875 726 386 c 0
 726 313.143554688 634 241.561523438 545 234 c 1
 545 278 l 1
 612 288 652 321.561523438 652 378 c 0
 652 446 580.6328125 427.856445312 558.6328125 497.856445312 c 9
 558.6328125 -378 l 1
 506 -378 l 1
 506 434.910299435 l 2
438.465820312 371.448242188 m 1
 439.303710938 371.296875 440.147460938 371.146484375 441 371 c 1
 441 371.776367188 440.05859375 371.853515625 438.465820312 371.448242188 c 1
EndSplineSet
EndChar

StartChar: si_I
Encoding: 7 3465 16
GlifName: si_I_
Width: 857
VWidth: -14
Flags: HMW
LayerCount: 4
Fore
SplineSet
372 -79 m 25
 420 -107 l 17
 507.953125 -97.1103515625 550.8515625 -145.977539062 552 -197 c 0
 553.572756699 -266.87399598 483.82421875 -300.0390625 400 -296.16796875 c 0
 296.26171875 -291.376953125 265 -245 265 -245 c 1
 244.741210938 -252.1953125 234.137695312 -271.7890625 235 -286 c 1
 235 -286 284.810546875 -348.875976562 412 -352.227539062 c 0
 561.825195312 -356.17578125 637.879882812 -280.344726562 637 -199 c 0
 635.77734375 -85.935546875 463 -68 463 -68 c 25
 372 -79 l 25
307 17.958984375 m 4
 468.19921875 17.263671875 531.712890625 105.370117188 543.787109375 185.13671875 c 0
 557.87890625 278.235351562 512.83203125 362.711914062 422 363.724609375 c 0
 341.125 364.625976562 288.684570312 312.276367188 289.181640625 244.071289062 c 0
 289.590820312 187.927734375 335.723632812 157.18359375 382 156.622070312 c 0
 437.8359375 155.944335938 490.663085938 147.661132812 493.295898438 204.763671875 c 1
 501.756835938 272.411132812 l 2
 496.126953125 245.734375 435.629882812 207.0703125 412 207.946289062 c 0
 390.310546875 208.75 352.07421875 222.79296875 352.3203125 255.8671875 c 0
 352.569335938 289.360351562 376.372070312 315.041015625 412 312.029296875 c 0
 454.850585938 308.407226562 478 246.3046875 472.993164062 186.864257812 c 0
 467.99609375 127.541992188 431.633789062 81.509765625 318 80.9814453125 c 4
 194.189453125 80.40625 113.99609375 139.9921875 113.99609375 259.010742188 c 0
 113.99609375 406.533203125 259.825195312 489.028320312 407.971679688 489.028320312 c 0
 587.291992188 489.028320312 709.483398438 372.490234375 711 222 c 0
 713.436523438 -23.587890625 506.467773438 -77.0703125 320 -65 c 1
 309.650390625 -88.2861328125 317.310546875 -103.297851562 330 -116 c 1
 591.01171875 -136.120117188 782 6.6904296875 782 237 c 0
 782 456.323242188 623.922851562 582.578125 427.182617188 582.578125 c 0
 233.877929688 582.578125 54.841796875 455.2265625 54.841796875 259.87890625 c 0
 54.841796875 75.3095703125 182.9765625 18.494140625 307 17.958984375 c 4
EndSplineSet
EndChar

StartChar: si_Ii
Encoding: 8 3466 17
GlifName: si_I_i
Width: 729
VWidth: -5
Flags: HMW
LayerCount: 4
Back
SplineSet
527 611 m 0xb0
 527 642 552 667 583 667 c 0
 614 667 639 642 639 611 c 0
 639 580 614 555 583 555 c 0
 552 555 527 580 527 611 c 0xb0
215 701 m 4
 215 733 241 759 273 759 c 4
 305 759 331 733 331 701 c 4
 331 669 305 643 273 643 c 4x70
 241 643 215 669 215 701 c 4
EndSplineSet
Refer: 4 3515 N 1 0 0 1 0 0 2
Fore
SplineSet
567 611 m 4
 567 642 592 667 623 667 c 4
 654 667 679 642 679 611 c 4
 679 580 654 555 623 555 c 4
 592 555 567 580 567 611 c 4
225 701 m 4
 225 733 251 759 283 759 c 4
 315 759 341 733 341 701 c 4
 341 669 315 643 283 643 c 4
 251 643 225 669 225 701 c 4
EndSplineSet
Refer: 4 3515 N 1 0 0 1 0 0 2
EndChar

StartChar: si_U
Encoding: 9 3467 18
GlifName: si_U_
Width: 726
VWidth: -17
Flags: HMW
LayerCount: 4
Back
SplineSet
153 82 m 4
 134.201906315 -47.7994601107 198.972526228 -212.974609023 382 -236.380859375 c 4
 516.911576709 -252.204891615 598.588777731 -209.567542192 672 -151 c 5
 706 -208 l 5
 656.222222222 -243.865923717 549.874452006 -301.940847466 398 -296.19140625 c 4
 120.45118203 -285.48990852 25.9167733352 -102.742418168 37 34 c 4
 59.611328125 311.194438579 311.991484908 369.895574109 467 371 c 4
 529.002929688 371.436523438 565 367.727539062 594 365 c 5
 594 370 569.833007812 346 569 351 c 5
 581.571289062 478 452.213867188 499 374 481 c 5
 318 402 l 5
 272 405 250.087119932 445.53313978 261 481 c 4
 277 533 338 561 421 561 c 4
 503.286132812 561 597.034094894 506.79393118 611 423 c 4
 620.095703125 368.426757812 608 318 608 318 c 5
 608 316 l 5
 392.633333333 336.892578125 186.468603666 299.200396191 153 82 c 4
EndSplineSet
Fore
SplineSet
147.6796875 50.0458984375 m 0
 147.6796875 -115.368164062 258.983398438 -240.8203125 436.21875 -240.8203125 c 0
 562.009765625 -240.8203125 652.995117188 -187.651367188 701 -144 c 1
 718.437692349 -148.753305681 735.622435795 -173.683402672 735 -193 c 1
 706.22265625 -220.866210938 598.908203125 -296.444335938 437 -301.19140625 c 0
 143.122070312 -309.807617188 30.97265625 -133.884765625 30.97265625 15.0390625 c 0
 30.97265625 231.73046875 184.608398438 343.334960938 356 370.828125 c 0
 386.184570312 375.669921875 418.515625 377.599609375 450.393554688 377.599609375 c 0
 500.826171875 377.599609375 550.125976562 372.76953125 588 367 c 1
 588 372 572.833007812 348 572 353 c 1
 572.525390625 358.309570312 572.780273438 363.43359375 572.780273438 368.377929688 c 0
 572.780273438 458.353515625 488.390625 492.584960938 416.109375 492.584960938 c 0
 397.364257812 492.584960938 379.43359375 490.551757812 364 487 c 1
 308 408 l 1
 269.823242188 410.490234375 248.237304688 438.831054688 248.237304688 468.673828125 c 0
 248.237304688 474.7890625 249.143554688 480.967773438 251 487 c 0
 267 539 328 567 411 567 c 0
 501.286132812 567 591.034179688 508.793945312 605 425 c 0
 607.485351562 410.087890625 608.388671875 395.93359375 608.388671875 383.235351562 c 0
 608.388671875 349.46484375 602 326 602 326 c 1
 602 324 l 1
 568.096679688 327.201171875 537.833007812 328.799804688 509.639648438 328.799804688 c 0
 468.655273438 328.799804688 422.046875 325.421875 385 318.68359375 c 0
 224.732421875 289.53125 147.6796875 184.10546875 147.6796875 50.0458984375 c 0
EndSplineSet
EndChar

StartChar: si_E
Encoding: 15 3473 22
GlifName: si_E_
Width: 862
VWidth: -14
Flags: HMW
LayerCount: 4
Back
SplineSet
411.81640625 669.124023438 m 1xde
 502 678 l 1
 500.842773438 653.400390625 523.36328125 575.997070312 563 559 c 0
 639.103515625 526.365234375 672.166015625 606.057617188 729 558 c 1
 758 526 l 1
 689.135742188 554.92578125 634.416015625 470.92578125 532 505.301757812 c 0
 451.956054688 532.168945312 455.421875 669.104492188 411.81640625 669.124023438 c 1xde
105 317 m 5
 494 316 l 5
 489 275 l 5
 188 270 l 5
 104 252 l 5
 105 317 l 5
490.504882812 661.212890625 m 0
 440.150390625 668.377929688 406.440429688 662.286132812 390 661 c 1
 391 741 l 1xee
 722.9140625 740.212890625 875 516.80859375 875 311 c 0
 875 91.0390625 746.75 -56.3564453125 524 -61 c 0
 304.623046875 -65.5732421875 201.234375 17.80078125 198 121 c 0
 193.596679688 261.4765625 337.522460938 302.262695312 451 306 c 1
 451 394 409.69140625 438 317 438 c 1
 291 357 l 1
 244.63671875 350 213.268554688 378.897460938 221 425 c 0
 230.391601562 481 284.861328125 500 329 500 c 0
 395 500 492.48046875 462.978515625 497 359 c 0
 498.383789062 327.161132812 489 282 489 282 c 1
 361.25 299.456054688 270.404296875 246.993164062 271 162 c 0
 271.51953125 86.0546875 379.6484375 38.986328125 518 40 c 0
 703.478515625 41.3388671875 813 144.6484375 813 346 c 0
 813 538.337890625 624.268554688 642.180664062 490.504882812 661.212890625 c 0
EndSplineSet
Fore
SplineSet
22 374 m 1
 405 374 l 1
 407 331 l 1
 121 331 l 1
 26 316 l 1
 19 336.248046875 17 359.344726562 22 374 c 1
EndSplineSet
Refer: 48 3509 N 1 0 0 1 87 0 2
EndChar

StartChar: si_Os
Encoding: 18 3476 25
GlifName: si_O_s
Width: 834
VWidth: -24
Flags: HMW
LayerCount: 4
Back
SplineSet
36.5693359375 261.502929688 m 5
 36.9334436903 82.8531187449 172.949780949 -58 402 -58 c 4
 626.449717158 -58 771.955078125 95.5924149499 771.955078125 334 c 4
 771.955078125 548.226380068 632.78501402 732.00390625 393.225585938 732.00390625 c 4
 252.952413706 732.00390625 141 652 141 652 c 5
 169 602 l 5
 171.940313393 602 264.062207574 679.03515625 386.681640625 679.03515625 c 4
 622.347878896 679.03515625 716.161457658 514.502456528 709.274414062 329 c 4
 703.750249383 180.206674658 619.590879651 42.5884674051 396.830078125 43.9912109375 c 4
 230.499156252 45.0386107641 96.3523720223 137.694676798 94.3828125 287.059570312 c 4
 93.169469742 379.075480364 123.535845823 444.005859375 171.852539062 444.005859375 c 4
 195.824222358 444.005859375 206.802365015 424.258593421 208 375 c 4
 209.643524219 310.58886983 225.894275599 262.171612784 258 234.584960938 c 4
 295.501332899 200.76789332 347.868360814 186.986328125 398.486328125 186.986328125 c 4
 513.100366087 186.986328125 566.001953125 275.466696952 566.001953125 360.115234375 c 4
 566.001953125 436.70658352 513.804846502 504 418 504 c 4
 343.728519358 504 300.993164062 451.715820312 300.993164062 398.010742188 c 4
 300.993164062 337.248955748 347.929227248 311.997070312 390.306640625 311.997070312 c 4
 450.300421504 311.997070312 482.123046875 359.837890625 482.123046875 409.515625 c 4
 482.123046875 433.040280755 471.550383764 458.828923076 456 473.561523438 c 5
 430 474.561523438 l 5
 441.456054688 456.457229511 446.998046875 438.291413674 446.998046875 415.853515625 c 4
 446.998046875 388.53125 429.532817296 357.55859375 394.282226562 357.55859375 c 4
 360.217966138 357.55859375 347.991210938 383.942501537 347.991210938 402.051757812 c 4
 347.991210938 436.836135773 370.263077098 463.909599697 404.439453125 469.001953125 c 4
 480.015623489 480.262964823 529.657238608 426.975375045 528.05078125 358.48046875 c 4
 526.606496331 296.900147497 483.13118144 253.766643775 398.0703125 252.998046875 c 4
 337.704123238 252.452587294 251.984816845 276.978876448 250.819335938 381 c 4
 250.010232216 453.213862649 222.193157738 482.034179688 177.60546875 482.034179688 c 4
 110.138389831 482.034179688 36.012686984 417.208915301 36.5693359375 261.502929688 c 5
EndSplineSet
Fore
SplineSet
181.138671875 442.47265625 m 0
 201.517997064 442.050786569 216.237395429 421.568723369 217 373 c 0
 219.004298927 245.350305959 312.828125 205.986328125 397.486328125 205.986328125 c 0
 508.942382812 205.986328125 575.001953125 294.977763364 575.001953125 380.115234375 c 0
 575.001953125 456.70658352 522.804846502 524 427 524 c 0
 352.728519358 524 309.993164062 471.715820312 309.993164062 418.010742188 c 0
 309.993164062 357.248955748 356.929227248 331.997070312 399.306640625 331.997070312 c 0
 459.300421504 331.997070312 491.123046875 379.837890625 491.123046875 429.515625 c 0
 491.123046875 453.040280755 480.550383764 478.828923076 465 493.561523438 c 1
 439 494.561523438 l 1
 450.456054688 476.457229511 455.998046875 458.291413674 455.998046875 435.853515625 c 0
 455.998046875 408.53125 438.532817296 377.55859375 403.282226562 377.55859375 c 0
 369.217966138 377.55859375 356.991210938 403.942501537 356.991210938 422.051757812 c 0
 356.991210938 456.836135773 379.263077098 483.909599697 413.439453125 489.001953125 c 0
 489.015623489 500.262964823 538.531008925 446.978219221 537.05078125 378.48046875 c 0
 535.606496331 311.645974513 484.12109375 263.528320312 399.0703125 261.998046875 c 0
 338.705078125 260.94921875 256.407226562 275.493164062 254.819335938 404 c 0
 254.208984375 458.67578125 221 483 188.224609375 481.879882812 c 0
 77.7399392486 478.104007814 25.939453125 357.974609375 25.939453125 241.661132812 c 0
 25.939453125 140.786132812 52.0546875 -40 234 -40 c 0
 343.450195312 -40 389.682617188 31.8828125 406 111 c 1
 371 111 l 1
 376 21.1640625 435.0859375 -42 533 -42 c 0
 728.176757812 -42 779.049804688 181.506835938 779.049804688 318.88671875 c 0
 779.049804688 526.501227212 646.481445312 738.002929688 373.423828125 738.002929688 c 0
 224.430664062 738.002929688 142 672 142 672 c 1
 137.842773438 641.486328125 151.295898438 619.133789062 167 612 c 1
 170.243164062 612 241.55078125 680.028320312 383.43359375 680.028320312 c 0
 619.595703125 680.028320312 709.8828125 510.26953125 709.8828125 330.400390625 c 0
 709.8828125 221.034179688 671.155273438 53.9521484375 536.28125 53.9521484375 c 0
 476.586914062 53.9521484375 415.733398438 91.45703125 409 176 c 1
 397.3359375 179.5390625 381.69921875 176.36328125 372 172 c 1
 369.150390625 93.1796875 307.234375 56.783203125 242.8671875 56.783203125 c 0
 149.646484375 56.783203125 86.703125 122.932617188 86.703125 276.920898438 c 0
 86.703125 342.083007812 120.446004317 442.270337041 181.138671875 442.47265625 c 0
EndSplineSet
EndChar

StartChar: si_Oo
Encoding: 19 3477 26
GlifName: si_O_o
Width: 834
VWidth: -14
Flags: HMW
LayerCount: 4
Back
Refer: 25 3476 N 1 0 0 1 0 0 2
Fore
SplineSet
301 550 m 1053
EndSplineSet
Refer: 25 3476 N 1 0 0 1 0 0 2
EndChar

StartChar: si_Kha
Encoding: 22 3483 28
GlifName: si_K_ha
Width: 877
VWidth: -24
Flags: HMW
LayerCount: 4
Back
SplineSet
749.43359375 336.353515625 m 4
 749.43359375 539.126490675 646.108565882 671.095703125 399.279296875 671.095703125 c 4
 275.705788322 671.095703125 179.568791679 603 178 603 c 5
 150 660 l 5
 150 660 258.779684805 733.059570312 411.782226562 733.059570312 c 4
 624.87287783 733.059570312 822.630859375 586.017108398 822.630859375 332.138671875 c 4
 822.630859375 115.980232309 735.285671607 -51.8984375 562.459960938 -51.8984375 c 4
 523.012225123 -51.8984375 507.52734375 -36.3955078125 489.404296875 -36.3955078125 c 4
 465.8984375 -36.3955078125 441.67321187 -59.0445764547 426 -93.9130859375 c 5
 387.888671875 -77 l 5
 437.870117188 0.8115234375 487.031105893 84.272451719 481.032226562 178.049804688 c 4
 474.748046875 276.287109375 382.245117188 329.544921875 307.25390625 329.544921875 c 4
 204.419921875 329.544921875 114.188426452 262.353356026 114.188426452 129.487772851 c 4
 114.188426452 46.1939293237 150.720429627 -8.29996482784 223.156450723 -8.29996482784 c 4
 264.450240012 -8.29996482784 283.410676113 25.0716101117 283.410676113 52.2395919339 c 4
 283.410676113 85.2871093689 263.3278797 110.944387788 231.645347396 110.944387788 c 4
 206.208828671 110.944387788 182.908099119 91.3329854617 182.908099119 54.2901043244 c 4
 182.908099119 26.8554342915 199.269719187 -6.75007071989 241.888671875 -12.09375 c 5
 241.888671875 -23.3828125 l 5
 173.338103735 -21.2866882992 140.354969036 15.9624058636 140.354969036 56.8915928886 c 4
 140.354969036 114.103920526 180.590897669 169.707495946 246.030764778 169.707495946 c 4
 302.182274151 169.707495946 345.776368325 127.157170152 345.776368325 61.1018357432 c 4
 345.776368325 9.07230137733 306.615454565 -58.7974827796 225.735726507 -58.7974827796 c 4
 106.116836192 -58.7974827796 61.5204093666 58.3383752433 61.5204093666 151.438548147 c 4
 61.5204093666 326.481537799 178.671644692 422.469784526 320.525390625 424.913085938 c 4
 404.267578125 426.35546875 542.91796875 370.383789062 542.91796875 194.314453125 c 4
 542.91796875 113.931640625 513.920168399 68.4514024232 492.997070312 30 c 5
 492.197265625 78 l 5
 503.946937263 58.0712910083 536.127328535 46.37890625 565.459960938 46.37890625 c 4
 689.814958075 46.37890625 749.43359375 172.436332435 749.43359375 336.353515625 c 4
EndSplineSet
Fore
SplineSet
749.43359375 336.353515625 m 0
 749.43359375 539.126490675 644.92822877 671.095703125 395.279296875 671.095703125 c 0
 271.705788322 671.095703125 175.568791679 603 174 603 c 4
 159.364452456 610.882191359 142.905192379 636.331798692 146 660 c 5
 146 660 254.779684805 733.059570312 407.782226562 733.059570312 c 0
 622.947516851 733.059570312 822.630859375 586.017108398 822.630859375 332.138671875 c 0
 822.630859375 114.291657682 738.642895197 -54.8984375 572.459960938 -54.8984375 c 0
 502.900515902 -54.8984375 450.546456451 -33.2026369221 447 28 c 1
 485.404296875 3.6044921875 l 1
 473.602531392 -18.2237119679 464.434253454 -34.0080821595 430 -91.9130859375 c 1
 389.888671875 -71 l 1
 428.796904007 -11.0189784176 486.890033588 86.4777615137 481.032226562 178.049804688 c 0
 474.748046875 276.287109375 382.245117188 329.544921875 307.25390625 329.544921875 c 0
 204.419921875 329.544921875 114.188426452 262.353356026 114.188426452 129.487772851 c 0
 114.188426452 46.1939293237 150.720429627 -8.29996482784 223.156450723 -8.29996482784 c 0
 264.450240012 -8.29996482784 283.410676113 25.0716101117 283.410676113 52.2395919339 c 0
 283.410676113 85.2871093689 263.3278797 110.944387788 231.645347396 110.944387788 c 0
 206.208828671 110.944387788 182.908099119 91.3329854617 182.908099119 54.2901043244 c 0
 182.908099119 26.8554342915 199.269719187 -6.75007071989 241.888671875 -12.09375 c 1
 241.888671875 -23.3828125 l 1
 173.338103735 -21.2866882992 140.354969036 15.9624058636 140.354969036 56.8915928886 c 0
 140.354969036 114.103920526 180.590897669 169.707495946 246.030764778 169.707495946 c 0
 302.182274151 169.707495946 345.776368325 127.157170152 345.776368325 61.1018357432 c 0
 345.776368325 9.07230137733 306.615454565 -58.7974827796 225.735726507 -58.7974827796 c 0
 106.116836192 -58.7974827796 61.5204093666 58.3383752433 61.5204093666 151.438548147 c 0
 61.5204093666 326.481537799 178.671644692 422.469784526 320.525390625 424.913085938 c 0
 404.267578125 426.35546875 542.91796875 370.383789062 542.91796875 194.314453125 c 0
 542.91796875 113.931640625 513.920168399 68.4514024232 492.997070312 30 c 1
 502.197265625 102 l 1
 515.550710041 69.4665979833 525.800725937 50.37890625 585.459960938 50.37890625 c 0
 686.296173319 50.37890625 749.43359375 174.69745707 749.43359375 336.353515625 c 0
EndSplineSet
EndChar

StartChar: si_Ga
Encoding: 23 3484 29
GlifName: si_G_a
Width: 982
VWidth: -24
Flags: HMW
LayerCount: 4
Back
SplineSet
685.764648438 15.6123046875 m 4
 792.69921875 27.6982421875 847.627929688 96.9677734375 847.627929688 219.600585938 c 4
 847.627929688 341.538085938 780.137695312 439.272460938 644.942382812 437.533203125 c 4
 551.682617188 436.399414062 465.357421875 377.801757812 439.8828125 264.823242188 c 5
 389.615234375 248.01171875 l 5
 404.201171875 440.625976562 519.979492188 535.514648438 643.684570312 542.603515625 c 4
 821.747070312 552.603515625 911.875 411.889648438 911.875 267.375 c 4
 911.875 101.1640625 834.436523438 -54.5166015625 655.416015625 -55.814453125 c 4
 605.0078125 -56.1796875 569.495117188 -45.9150390625 551.6875 -36.138671875 c 5
 570.45703125 38.328125 l 5
 591.125 22.771484375 643.908203125 10.5341796875 685.764648438 15.6123046875 c 4
105.979492188 245.841796875 m 4
 105.15234375 150.483398438 166.659179688 56.111328125 316.004882812 50.5908203125 c 4
 401.580078125 47.0771484375 486.891601562 79.8349609375 489.004882812 150 c 4
 490.190429688 200.606445312 456.321289062 247 390.004882812 247 c 5
 431.004882812 281 l 5
 473.004882812 279.932617188 542.657226562 240.7421875 543.004882812 152 c 4
 543.51171875 44.1220703125 469.598632812 -57.0576171875 304.603515625 -55.0048828125 c 4
 146.708984375 -53.0400390625 45 61.9140625 45 221.564453125 c 4
 45 428.865234375 193.293945312 526 328.004882812 538 c 4
 335.884765625 461.879882812 l 4
 240.920898438 461.879882812 107.439453125 422.454101562 105.979492188 245.841796875 c 4
EndSplineSet
Fore
SplineSet
941.875 267.375 m 0
 941.875 100.338867188 859.881835938 -55.8251953125 678.806640625 -56.82421875 c 0
 629.782226562 -57.0947265625 598.185546875 -49.7451171875 580.6875 -40.138671875 c 1
 573.841796875 -32.3212890625 570.577148438 -0.8974609375 590.45703125 19.328125 c 5
 607.998046875 6.125 640.659179688 -3.5849609375 686.151367188 -2.4404296875 c 4
 817.171875 0.8564453125 870.627929688 96.849609375 870.627929688 229.600585938 c 0
 870.627929688 360.360351562 784.00390625 460.555664062 662.450195312 460.555664062 c 0
 550.557617188 460.555664062 433.315429688 391.236328125 426.8828125 187.823242188 c 1
 414.460286458 185.352597871 402.037760417 184.575791931 389.615234375 187.823242188 c 1
 395.288085938 431.571289062 520.135742188 552.653320312 675.456054688 552.653320312 c 0
 857.038085938 552.653320312 941.875 410.295898438 941.875 267.375 c 0
308.604492188 -55.0390625 m 0
 141.687121542 -55.0390625 35 56.1299781787 35 211.564453125 c 0
 35 435.215669652 196.741210938 545.938476562 323.004882812 548 c 1
 330.559570312 529.03125 324.536132812 490.330078125 319.004882812 480.879882812 c 1
 233.756835938 480.879882812 105.642051033 424.635383571 101.971679688 256.94921875 c 0
 99.3068409792 135.117241989 178.282226562 36.76953125 310.431640625 34.2587890625 c 0
 417.211914062 32.2587890625 495.021484375 83.4892578125 495.021484375 181.946289062 c 0
 495.021484375 237.381835938 454.079101562 277 415.004882812 277 c 1
 426.004882812 321 l 1
 473.494140625 319.794921875 547.0078125 275.235351562 547.0078125 174.76953125 c 0
 547.0078125 56.0498046875 462.547584085 -55.0390625 308.604492188 -55.0390625 c 0
EndSplineSet
EndChar

StartChar: si_Gha
Encoding: 24 3485 30
GlifName: si_G_ha
Width: 915
VWidth: -24
Flags: HMW
LayerCount: 4
Back
SplineSet
39 379 m 1xe8
 417 381 l 1
 419 336 l 1
 123 335 l 1
 38 322 l 1
 39 379 l 1xe8
547 373 m 1
 580 384 l 1
 679.491210938 410.330078125 865 380.840820312 865 186 c 0
 865 64 790.377929688 -45 659 -45 c 0
 554 -45 521 13 506 117 c 1
 505.427734375 116.142578125 540 147 534 165 c 24
 528 183 486.626953125 183.658203125 484 184 c 1
 481.327148438 184.34765625 438 184 427 162 c 24
 419 145 461.505859375 117.758789062 461 117 c 1
 443.119140625 16 420.748046875 -43.1982421875 304 -44 c 0
 171.470703125 -44.91015625 99.1728515625 54.9951171875 101 154 c 0
 103.165039062 268 197.35546875 346 232 347 c 1
 326 338 l 1
 239.861328125 324.103515625 161.854492188 266.251953125 163 183 c 0
 163.899414062 112.950195312 215.602539062 66.7216796875 304 62 c 0
 345.575534477 59.7790143032 409.211914062 74.7744140625 415 107.828125 c 1
 414.201171875 132.467773438 370.123013369 139.845373801 371 171 c 0
 372.030155581 207.595896569 416.004882812 243.372070312 488 242 c 0
 555.00390625 240.72265625 590 210 590 174 c 0
 590 142.71560447 550.262695312 129.123046875 548 112.466796875 c 1
 551.45703125 84.8037109375 620.854500708 64.2333014695 664 64 c 0
 743.806640625 63.599609375 799.400390625 113.7890625 801 195 c 0xf2
 803.384765625 310.975585938 705.305664062 383.813476562 542 328 c 1
 537 350.166992188 532.391601562 374.670898438 532 398 c 0
 530 500 603 568 687 570 c 0
 753.981445312 571.594726562 830 532 830 452 c 0
 830 356 737 330 737 330 c 1
 721 337 l 1
 721 337 760 374.990234375 760 424 c 0xe4
 760 465 719.879882812 513.047851562 656 509 c 0
 619.995117188 506.71875 577 472 572 411 c 0
 568.227539062 364.98046875 588 353 588 353 c 1
 547 373 l 1
388 364 m 1xe8
 391 398 391 417 379 445 c 0
 365 480 310 508 260 503 c 0
 209 419 l 1
 179 422 155 439 155 476 c 0
 155 543 227 568 280 568 c 0
 360 568 433.29296875 518.05078125 436 433 c 0
 437.56640625 383.791015625 428 358.083007812 419 337 c 1
 388 364 l 1xe8
EndSplineSet
Fore
SplineSet
38 380 m 5
 417 380 l 5
 417 336 l 1
 123 336 l 1
 38 322 l 1
 32.4132757638 334.615611725 25.484375 356.697265625 38 380 c 5
669.50390625 509.239257812 m 0
 624.901367188 509.239257812 567.521484375 469.69140625 567.521484375 399.736328125 c 0
 567.521484375 362.984375 578 353 578 353 c 1
 547 373 l 1
 580 384 l 1
 599.655293784 389.201719992 622.667784798 392.224855977 646.943859699 392.224855977 c 0
 745.548476136 392.224855977 865 342.348439645 865 186 c 0
 865 64 790.377929688 -35 659 -35 c 0
 554 -35 521 23 506 127 c 1
 506 127 534.700195312 155.271484375 534.700195312 173.461914062 c 0
 534.700195312 196.291015625 485.583984375 197.0625 482.056640625 197.0625 c 0
 472.999023438 197.0625 436.90234375 194.803710938 427 175 c 0
 426.311523438 173.537109375 425.997070312 171.998046875 425.997070312 170.407226562 c 0
 425.997070312 153.6171875 461.165039062 127.975585938 461.004882812 127.016601562 c 0
 444.004882812 25.55078125 396.713867188 -35 292.205078125 -35 c 0
 162.446289062 -35 100.966195144 52.9929529197 100.966195144 150.334902037 c 0
 100.966195144 263.780552002 199.487304688 347 235.930664062 347 c 2
 326 347 l 1
 240.486672483 333.204400488 162.987539454 277.089611123 162.987539454 184.809139398 c 0
 162.987539454 112.461820647 218.894174903 61.7853380784 312.285623038 61.7853380784 c 0
 353.532063923 61.7853380784 409.584960938 86.9033203125 415 117.828125 c 1
 394.208984375 132.224609375 370.987304688 144.698242188 370.987304688 175.0859375 c 0
 370.987304688 211.868164062 414.483398438 242.038085938 484.00390625 242.038085938 c 0
 552.623046875 242.038085938 590 209.9609375 590 173 c 0
 590 141.715820312 560.262695312 129.123046875 548 122.466796875 c 1
 551.478515625 94.6357421875 621.488865829 63.9976221333 664.947023244 63.9976221333 c 0
 745.537953266 63.9976221333 801.042515461 115.421463652 801.042515461 199.119644635 c 0
 801.042515461 285.642742474 744.348655419 347.144005151 645.992879046 347.144005151 c 0
 615.246714379 347.144005151 580.429359456 341.134119785 542 328 c 1
 536.674954473 351.60804852 531.959846987 376.578855594 531.959846987 402.085058768 c 0
 531.959846987 502.724983096 597.185546875 566.045898438 694.900390625 566.045898438 c 0
 770.896484375 566.045898438 830 521.451039846 830 452 c 0
 830 356 737 330 737 330 c 1
 721 339 l 1
 721 339 760 374.990234375 760 424 c 0
 760 463.370376237 729.005859375 509.239257812 669.50390625 509.239257812 c 0
280 568 m 0
 364.702352926 568 436.169614714 515.178033822 436.169614714 422.569098419 c 0
 436.169614714 380.053997323 427.341528536 356.540501255 419 337 c 1
 393 364 l 1
 394 375.333007812 394.666992188 385 394.666992188 393.888671875 c 0
 394.666992188 462.0078125 333.787991519 508.655960281 263.433975885 508.655960281 c 1
 209 419 l 1
 179 422 155 439 155 476 c 0
 155 543 227 568 280 568 c 0
EndSplineSet
Colour: ff0000
EndChar

StartChar: si_Nga
Encoding: 25 3486 31
GlifName: si_N_ga
Width: 880
VWidth: -14
Flags: HMW
LayerCount: 4
Back
SplineSet
458.51171875 474 m 25x9e
 308.51171875 490 l 17
 173.51171875 448 112.876953125 383.963867188 107.51171875 238 c 0
 104.762695312 163.2109375 147.520507812 56.189453125 195.51171875 18.7021484375 c 0
 154.51171875 -30.3115234375 l 0
 86.853515625 20.875 39.51171875 137.236328125 45.51171875 245 c 0
 58.5751953125 479.63671875 268.51171875 599 457.51171875 539 c 1
 458.51171875 474 l 25x9e
EndSplineSet
Refer: 29 3484 N 1 0 0 1 121.512 0 2
Fore
SplineSet
419.9609375 685.259765625 m 0
 330.626904612 685.259765625 260.679150602 654.611239207 219.7890625 630.07421875 c 1
 206.64166512 638.690868362 197.13671875 675.057617188 208.092773438 698.413085938 c 1
 265.267578125 725.336914062 324.510464651 739.006835938 421.509765625 739.006835938 c 0
 648.682356593 739.006835938 825.450195312 574.588166798 825.450195312 316.625 c 0
 825.450195312 150.355622609 769.649213195 -42 601.009765625 -42 c 0
 525.294079316 -42 465.104327053 -11.0987465788 443.442382812 51 c 1
 420.08559888 -16.6407284114 350.243275455 -42 290.967773438 -42 c 0
 192.490000084 -42 101.413085938 10.6818988978 101.413085938 131.486328125 c 0
 101.413085938 351.767770741 318.65625 380.260742188 446.442382812 351 c 5
 437.166992188 310.391601562 l 1
 341.4609375 330.391601562 172.439453125 301.797517427 172.439453125 176.115234375 c 0
 172.439453125 110.336027146 215.283658113 61 293.64453125 61 c 0
 365.165152991 61 427.442382812 101.407262976 427.442382812 195 c 1
 434.446289399 199.26831435 459.297851562 203.076171875 466 197.6796875 c 1
 466 102.482421875 532.490043127 61 611.086914062 61 c 0
 695.497523747 61 754.629882812 157.26038484 754.629882812 329.989257812 c 0
 754.629882812 536.509180506 637.416850847 685.259765625 419.9609375 685.259765625 c 0
405 332 m 1
 407.171875 342.696289062 408.227539062 352.93359375 408.227539062 362.647460938 c 0
 408.227539062 426.63671875 362.421875 467.885742188 288.291015625 467.885742188 c 0
 282.057617188 467.885742188 275.624023438 467.59375 269 467 c 1
 219 385 l 1
 189 388 165 405 165 442 c 0
 165 509 237 534 290 534 c 0
 380.079101562 534 450.567382812 478.989257812 450.567382812 379.237304688 c 0
 450.567382812 345.047851562 443.940429688 328.739257812 438 310 c 1
 405 332 l 1
EndSplineSet
Colour: ff0000
EndChar

StartChar: si_Nnga
Encoding: 26 3487 32
GlifName: si_N_nga
Width: 1103
VWidth: -24
Flags: HMW
LayerCount: 4
Back
SplineSet
580 474 m 25x9e
 430 490 l 17
 295 448 234.365234375 383.963867188 229 238 c 0
 226.250976562 163.2109375 269.008789062 56.189453125 317 18.7021484375 c 0
 276 -30.3115234375 l 0
 208.341796875 20.875 161 137.236328125 167 245 c 0
 180.063476562 479.63671875 390 599 579 539 c 1
 580 474 l 25x9e
EndSplineSet
Refer: 29 3484 N 1 0 0 1 243 0 2
Fore
SplineSet
47.48828125 226.418945312 m 0
 47.48828125 432.39453125 211.377929688 554.3671875 371.396484375 554.3671875 c 0
 404.141601562 554.3671875 424.3828125 552.354492188 457 548 c 1
 433 492 l 25
 321 500 l 17
 186 458 115.365234375 383.963867188 110 238 c 0
 107.157226562 160.663085938 140.754882812 55.607421875 188 18.7021484375 c 1
 183.287109375 -5.1513671875 171.327148438 -28.431640625 147 -30.3115234375 c 1
 83.2158203125 17.9443359375 47.48828125 124.125 47.48828125 226.418945312 c 0
EndSplineSet
Refer: 29 3484 N 1 0 0 1 134 0 2
Colour: ff0000
EndChar

StartChar: si_Cha
Encoding: 28 3489 33
GlifName: si_C_ha
Width: 855
VWidth: -24
Flags: HMW
LayerCount: 4
Back
SplineSet
592 219 m 4xfe
 511.918945312 219.434570312 488.59767288 292.774526608 486.741210938 352 c 4
 480.630275284 546.953125 659.343518324 725.752779993 861 771 c 5
 888 708 l 5
 661.627138847 678.284179687 550.038899453 515.277348419 537.295898438 414 c 4
 525.741210937 322.166992188 542.078852691 262.99468962 595 264 c 4
 645.830847538 264.965602245 670.828253228 301.4742841 671 387 c 4
 671.085100446 432.637795276 645.946428571 513 549 513 c 4
 502 513 465 472.893333333 465 419 c 4
 465 367 490 352 490 352 c 5
 442 333 l 5
 434 358 426.578735898 384.002112713 427 426 c 4
 427.930555556 518.771653543 504.236111111 563 561 563 c 4
 670.688311688 563 725 482.128205128 725 397 c 4
 725 266.061523438 656.436523092 218.650326784 592 219 c 4xfe
119 209 m 0
 118 124 203 45 388 45 c 0
 563 45 663.451154009 127.008854445 665 216 c 0
 666.775330903 318.004157759 539 348 442 333 c 1
 462 373 l 1
 607 402 740.207129289 330.993840671 736 193 c 0xfd
 731 29 564 -59 383 -59 c 0
 189 -59 38.150918543 32.9980241705 40 180 c 0
 42 339 208 394 316 384 c 1
 292 345 l 1
 299 365 312.3731417 386.33162663 308 415 c 0
 299 474 239 505 171 490 c 0
 204 511 l 1
 149 409 l 1
 108 411 81.6005478023 436.013695057 83 471 c 0
 85 521 142 557 202 557 c 0
 272 557 343.891968781 516.997155104 346 439 c 0
 347 402 341 370 332 333 c 1
 208 351 119.917658967 287.001012186 119 209 c 0
EndSplineSet
Fore
SplineSet
604 229 m 0xfe
 523.918945312 229.434570312 500.597672879 302.774526608 498.741210938 362 c 0
 492.630275284 556.953125 631.34375 725.752929688 823 781 c 5
 837.082337152 773.388230927 855.514103776 746.009415258 850 718 c 5
 683.626953125 678.284179688 572.038899453 565.277348419 549.295898438 424 c 0
 534.585339429 332.619413546 554.078852691 272.99468962 607 274 c 0
 664.519116951 274.97345267 692.810513575 321.860245306 693 398 c 0
 693.104267165 441.102338879 665.892857143 517 561 517 c 0
 508.404761905 517 467 479.453333333 467 429 c 0
 467 377 482 362 482 362 c 1
 444 343 l 1
 436 368 428.526570112 394.002668369 429 436 c 0
 430 524.708661417 512 567 573 567 c 0
 682.688311688 567 737 489.051282051 737 407 c 0
 737 276.061523438 668.436523092 228.650326784 604 229 c 0xfe
207.01953125 569 m 0
 280.920898438 569 351.127929688 527.0234375 351.127929688 442.978515625 c 0
 351.127929688 409.3046875 345.36328125 379.30078125 337.01953125 345 c 1
 322.7265625 347.275390625 308.912109375 348.356445312 295.654296875 348.356445312 c 0
 193.576171875 348.356445312 117.010742188 284.40234375 117.010742188 207.518554688 c 0
 117.010742188 123.084960938 199.097655916 37.9911454971 393.01953125 37 c 0
 588.673828125 36 675.0390625 127.10546875 675.0390625 218.502929688 c 0
 675.0390625 261.447987808 624.796570691 345 447.01953125 345 c 1
 467.01953125 391 l 1
 492.002226434 391.564532321 516.792834057 394.606722499 539.876953125 391.83984375 c 0
 647 379 741.114257812 321.03125 741.114257812 199.946289062 c 0
 741.114257812 30.0625 570.21484375 -59 388.01953125 -59 c 0
 195.291015625 -59 45 31.798828125 45 177.118164062 c 0
 45 334.90234375 188.390625 397.203125 295.756835938 397.203125 c 0
 304.442382812 397.203125 312.895507812 396.796875 321.01953125 396 c 1
 297.01953125 357 l 1
 303.069335938 374.28515625 313.879882812 392.565429688 313.879882812 415.716796875 c 0
 313.879882812 472.971679688 264.365234375 505.75 209.526367188 505.75 c 0
 198.72265625 505.75 187.484375 504.529296875 176.01953125 502 c 1
 209.01953125 523 l 1
 154.01953125 421 l 1
 114.057617188 422.94921875 87.966796875 446.76171875 87.966796875 480.361328125 c 0
 87.966796875 532.604492188 146.654296875 569 207.01953125 569 c 0
EndSplineSet
EndChar

StartChar: si_Ja
Encoding: 29 3490 34
GlifName: si_J_a
Width: 841
VWidth: -24
Flags: HMW
LayerCount: 4
Back
SplineSet
637 458 m 9xf8
 688 479 l 25
 688 479 689.344726562 453.623046875 690 432 c 0
 691 399 681.14316462 345.14565047 612 346 c 0
 529.8046875 347.015625 511.294642069 411.631971212 510.409179688 474 c 0
 508.469726562 610.606445312 612.135742188 725.743164062 761 771 c 1
 784 684 l 21
 669.265625 682.305664062 545.011365245 606.846052658 555.295898438 461 c 0
 558.677497152 413.045191066 581.100585938 386.447265625 614 385 c 4
 662.357421875 382.873046875 648.147857261 447.357724458 637 458 c 9xf8
497 352 m 1
 442 333 l 1
 434 358 427 384 427 426 c 0
 428 512 510 553 571 553 c 0
 654 553 715 507 715 427 c 0
 715 349 618 309 618 309 c 1
 602 326 l 1
 636.051288152 347.130311028 650.883587155 377.105818001 651 417 c 0
 651.13422914 462.999749757 608 494 549 494 c 0
 502 494 469 452 469 409 c 0
 469 357 497 352 497 352 c 1
119 209 m 0
 118 124 203 45 388 45 c 0
 563 45 663.451154009 127.008854445 665 216 c 0
 666.775330903 318.004157759 539 348 442 333 c 1
 462 373 l 1
 607 402 740 331 736 193 c 0xf4
 731 29 564 -59 383 -59 c 0
 189 -59 38 33 40 180 c 0
 42 339 208 394 316 384 c 1
 287 345 l 1
 294 365 307.373046875 386.33203125 303 415 c 0
 294 474 239 505 171 490 c 0
 204 511 l 1
 149 409 l 1
 108 411 81.6005478023 436.013695057 83 471 c 0
 85 521 142 557 202 557 c 0
 272 557 344 517 346 439 c 0
 347 402 341 370 332 333 c 1
 208 351 120 287 119 209 c 0
EndSplineSet
Fore
SplineSet
518.741210938 362 m 1
 512.629882812 556.953125 651.34375 725.752929688 843 781 c 5
 858.024953647 770.766370513 871.82192823 743.095701995 870 718 c 5
 703.626953125 678.284179688 592.0390625 565.27734375 569.295898438 424 c 0
 566.715820312 407.970703125 565.1875 392.918945312 564.708007812 379 c 1
 518.741210938 362 l 1
EndSplineSet
Refer: 1 3508 N 1 0 0 1 0 0 2
EndChar

StartChar: si_Ttha
Encoding: 35 3496 39
GlifName: si_T_tha
Width: 872
VWidth: -14
Flags: HMW
LayerCount: 4
Back
SplineSet
447 305 m 1
 464.684570312 392.088867188 408.3515625 448.735351562 311 440 c 1
 261 358 l 1
 231 361 207 378 207 415 c 0
 207 482 279 507 332 507 c 0
 412 507 487.65625 457.983398438 492 373 c 0
 494.56640625 322.791015625 488 304.083007812 481 282 c 1
 447 305 l 1
479.442382812 293 m 1
 453.442382812 305 415.467773438 291.521484375 382.442382812 290 c 0
 286.631835938 285.69921875 206.629882812 248.908203125 205.442382812 161 c 0
 204.799804688 113.450195312 247.28515625 71.2998046875 325 71 c 0
 391.03125 70.7548828125 447.442382812 111.124023438 447.442382812 205 c 1
 454.446289062 205.030273438 479.297851562 205.259765625 486 205.6796875 c 1
 486 108.375 550.194335938 71.36328125 605 71 c 0
 685.8515625 70.4794921875 736.901367188 143.420898438 741.442382812 317 c 0
 747.26953125 552.506835938 598.926757812 660.170898438 454.442382812 663 c 0
 313.016601562 665.685546875 223.5625 574 220.442382812 574 c 1
 187.442382812 625 l 0
 237.416015625 663.076171875 326.6796875 712.578125 445.442382812 712 c 0
 665.841796875 710.90234375 816.264648438 549.208007812 817.442382812 312 c 0
 818.178710938 149.983398438 765.995117188 -37.759765625 609 -41 c 0
 539.114257812 -42.470703125 483.245117188 -12.5888671875 463.442382812 51 c 1
 440.416992188 -17 371.322265625 -41.2734375 313 -41 c 0
 221.05859375 -40.5693359375 138.290039062 9.8798828125 134.442382812 128 c 0
 129.907226562 267.220703125 269.413085938 328.831054688 380.442382812 332 c 0
 452.442382812 334 469.442382812 319 469.442382812 319 c 1
 479.442382812 293 l 1
EndSplineSet
Fore
SplineSet
447 305 m 1
 449.172104173 315.696674474 450.227583862 325.934097094 450.227583862 335.647527588 c 0
 450.227583862 399.63689724 404.421805161 440.886021268 330.291200025 440.886021268 c 0
 324.0576198 440.886021268 317.623755106 440.594349264 311 440 c 1
 261 358 l 1
 231 361 207 378 207 415 c 0
 207 482 279 507 332 507 c 0
 412 507 487.65625 457.983398438 492 373 c 0
 492.388618557 365.397094946 492.567825481 358.516494322 492.567825481 352.237104646 c 0
 492.567825481 317.047900947 486.940023662 300.739084134 481 282 c 1
 447 305 l 1
134.334607405 134.579525331 m 0
 134.334607405 273.21555106 276.58899028 332.18359375 393.307128906 332.18359375 c 0
 454.500976562 332.18359375 469.442382812 319 469.442382812 319 c 1
 479.442382812 293 l 1
 471.567196909 296.634701186 462.593419369 297.931916171 452.991335062 297.931916171 c 0
 430.892048119 297.931916171 405.464654565 291.060639286 382.442382812 290 c 0
 286.770582104 285.705446842 205.435199046 248.749672508 205.435199046 159.93749759 c 0
 205.435199046 112.734028958 248.164467032 70.9988908464 325.597222753 70.9988908464 c 0
 391.371029174 70.9988908464 447.442382812 111.407170368 447.442382812 205 c 1
 454.446289062 205.030273438 479.297851562 205.259765625 486 205.6796875 c 1
 486 108.131855964 550.38151485 70.9972351985 605.857616037 70.9972351985 c 0
 688.250858861 70.9972351985 741.608651451 153.813745779 741.608651451 330.344505391 c 0
 741.608651451 558.229662505 594.831483005 663.057865136 448.350938349 663.057865136 c 0
 310.452222363 663.057865136 223.517464139 574 220.442382812 574 c 1
 187.442382812 625 l 1
 237.126537827 662.855611436 325.646866457 712.005017302 443.381516012 712.005017302 c 0
 666.342109112 712.005017302 817.450049384 548.454112945 817.450049384 308.62636563 c 0
 817.450049384 145.955633454 764.575054261 -41.0517111095 604.110336323 -41.0517111095 c 0
 536.51562506 -41.0517111095 482.781066421 -11.0987465788 463.442382812 51 c 1
 440.54495888 -16.622080892 372.088849063 -41.0022811445 313.973389848 -41.0022811445 c 0
 220.16162493 -41.0022811445 134.334607405 11.8777429797 134.334607405 134.579525331 c 0
EndSplineSet
EndChar

StartChar: si_Dda
Encoding: 36 3497 40
GlifName: si_D_da
Width: 880
VWidth: -14
Flags: HMW
LayerCount: 4
Back
SplineSet
182.7890625 617.07421875 m 1
 151.092773438 677.413085938 l 1
 213.742146034 708.273373392 300.795694322 736.526279832 407.442382812 736 c 0
 666.066806821 734.807105655 824.011550953 569.886773006 825.442382812 312 c 0
 826.218000843 149.983398438 771.278805969 -37.6119217922 606 -41 c 0
 534.673885055 -42.470703125 477.653259367 -12.5888671875 457.442382812 51 c 1
 433.345633629 -17 361.035964911 -41.2595697902 300 -41 c 0
 202.909179688 -40.5693359375 113.434872152 9.87236579321 111.442382812 128 c 0
 109.146944111 264.088428637 241.437663144 341.288024422 348.442382812 342 c 0
 412.352495172 342.461538462 427.442382812 339 427.442382812 339 c 1
 437.442382812 313 l 1
 414.122795183 325 380.033947874 307.885306092 350.442382812 310 c 0
 259.503558661 316.317738614 183.01505552 245.279416021 182.442382812 167 c 4
 182.021394909 106.674237477 224.634868025 61.2450768942 303 61 c 0
 374.256037929 60.7548828125 436.442382812 101.124023438 436.442382812 195 c 1
 443.446289062 195.030273438 468.297851562 195.259765625 475 195.6796875 c 1
 475 98.375 540.157859231 59.2183612945 616 61 c 0
 701.006593559 63.07551542 763.506846543 162.636115313 759.442382812 338 c 0
 753.860609073 539.378806602 647.08391055 686.296056147 384.442382812 679 c 0
 294.152055003 676.27367156 224.183070698 642.521980831 182.7890625 617.07421875 c 1
32 348 m 1
 443 353 l 1
 438 303 l 1
 135 300 l 1
 31 285 l 1
 32 348 l 1
405 325 m 1
 422.684570312 412.088867188 366.3515625 468.735351562 269 460 c 1
 219 378 l 1
 189 381 165 398 165 435 c 0
 165 502 237 527 290 527 c 0
 370 527 445.656117918 477.983391686 450 393 c 0
 452.56640625 342.791015625 446 324.083007812 439 302 c 1
 405 325 l 1
EndSplineSet
Fore
SplineSet
419.9609375 685.259765625 m 0
 330.626904612 685.259765625 260.679150602 654.611239207 219.7890625 630.07421875 c 1
 206.64166512 638.690868362 197.13671875 675.057617188 208.092773438 698.413085938 c 1
 265.267578125 725.336914062 324.510464651 739.006835938 421.509765625 739.006835938 c 0
 648.682356593 739.006835938 825.450195312 574.588166798 825.450195312 316.625 c 0
 825.450195312 150.355622609 769.649213195 -42 601.009765625 -42 c 0
 525.294079316 -42 465.104327053 -11.0987465788 443.442382812 51 c 1
 420.08559888 -16.6407284114 350.243275455 -42 290.967773438 -42 c 0
 192.490000084 -42 101.413085938 10.6818988978 101.413085938 131.486328125 c 0
 101.413085938 271.767770741 215.656035683 351.260405393 313.442382812 352 c 1
 304.166992188 320.391601562 l 1
 228.461176063 320.391601562 172.439453125 251.797517427 172.439453125 176.115234375 c 0
 172.439453125 110.336027146 215.283658113 61 293.64453125 61 c 0
 365.165152991 61 427.442382812 101.407262976 427.442382812 195 c 1
 434.446289399 199.26831435 459.297851562 203.076171875 466 197.6796875 c 1
 466 102.482421875 532.490043127 61 611.086914062 61 c 0
 695.497523747 61 754.629882812 157.26038484 754.629882812 329.989257812 c 0
 754.629882812 536.509180506 637.416850847 685.259765625 419.9609375 685.259765625 c 0
29 365 m 5
 443 362 l 1
 438 320 l 1
 135 320 l 1
 31 303 l 5
 20.3193359375 317.057617188 13.3515625 346.249023438 29 365 c 5
405 342 m 1
 407.172074024 352.696651211 408.227539062 362.934051568 408.227539062 372.647460938 c 0
 408.227539062 436.636701423 362.421707046 477.885742188 288.291015625 477.885742188 c 0
 282.057494985 477.885742188 275.623691791 477.594162055 269 477 c 1
 219 395 l 1
 189 398 165 415 165 452 c 0
 165 519 237 544 290 544 c 0
 380.079106345 544 450.567382812 488.989632509 450.567382812 389.237304688 c 0
 450.567382812 355.048002208 443.940220452 338.739311954 438 320 c 1
 405 342 l 1
EndSplineSet
EndChar

StartChar: si_Nna
Encoding: 38 3499 42
GlifName: si_N_na
Width: 1391
VWidth: 0
Flags: HMW
LayerCount: 4
Back
SplineSet
887.641601562 408 m 4
 780.274956437 408 790.507489001 250.246822528 758 134 c 5
 743.650390625 274.952148438 l 5
 733.650390625 441.182617188 828.764648438 476 876.39453125 476 c 4
 925.104180395 476 992.820137361 446.081054688 998 354 c 5
 998 348 l 5
 1009.95214844 442.46875 1085.59863281 476 1139.18554688 476 c 4
 1240.13378906 476 1322.02269535 401.870672258 1322.02269535 219.342978679 c 4
 1322.02269535 80.765578374 1271.69140625 -70.0009765625 1115.8125 -70.0009765625 c 4
 1017.11328125 -70.0009765625 946.904296875 -22.419921875 946.904296875 132 c 5
 984 132 l 5
 985.497070312 23.7373046875 1049.10546875 -1.0009765625 1105.32910156 -1.0009765625 c 4
 1189.765625 -1.0009765625 1219.04394531 106.603515625 1219.04394531 197.5859375 c 4
 1219.04394531 338.063476562 1188.64648438 408 1112.24511719 408 c 4
 1068.7578125 408 1021.87304688 368.509765625 1021.87304688 298 c 5
 960 298 l 5
 959.145394332 370.229492188 918.008793658 408 887.641601562 408 c 4
222.620117188 332.629882812 m 260
 222.620117188 170.885742188 380.40142047 153.988374506 444.17416997 153.988374506 c 4
 475.993722979 153.988374506 513.83984375 179.44689085 513.83984375 222.740234375 c 260
 513.83984375 263.330078125 485.860351562 296.540039062 445.26953125 296.540039062 c 260
 404.6796875 296.540039062 377.469726562 263.330078125 377.469726562 222.740234375 c 260
 377.469726562 182.150390625 406.6796875 151.940429688 437.26953125 151.940429688 c 261
 437.26953125 106.26953125 l 261
 388.23046875 106.26953125 343.030273438 164.76953125 343.030273438 223.809570312 c 260
 343.030273438 292.849609375 394.23046875 344.75 463.26953125 344.75 c 260
 538.309570312 344.75 579.509765625 290.549804688 579.509765625 231.509765625 c 260
 579.509765625 159.440429688 527.5390625 94.66015625 428.990234375 94.66015625 c 260
 287.617118317 94.66015625 178.1796875 182.720532812 178.1796875 316.48046875 c 260
 178.1796875 475.790039062 314.600558429 575.049804688 471.1796875 575.049804688 c 260
 647.391200184 575.049804688 776.700195312 438.8440402 776.700195312 251.83984375 c 260
 776.700195312 132.530273438 710.125517381 -72 448.509765625 -72 c 260
 231.471744097 -72 218.277147189 89.91015625 114.91015625 89.91015625 c 260
 81.700195312 89.91015625 63.08984375 70.919921875 47.259765625 56.7001953125 c 261
 21.4296875 86.2197265625 l 261
 240.334960938 273.590820312 556.352539062 612.549804688 799.969726562 785.549804688 c 261
 834.5703125 738.969726562 l 261
 649.614257812 618.169921875 297.568359375 265.106445312 133.360351562 121.889648438 c 261
 208.624923416 121.889648438 250.98944278 17.330078125 441.66015625 17.330078125 c 260
 604.567903375 17.330078125 685.280273438 134.669921875 685.280273438 260.129882812 c 260
 685.280273438 420.740234375 560.46484375 514.299804688 440.719726562 514.299804688 c 260
 306.999023438 514.299804688 222.620117188 433.1953125 222.620117188 332.629882812 c 260
EndSplineSet
Fore
SplineSet
882.641601562 438 m 0
 779.407226562 439.573242188 789.25390625 274.489257812 758 154 c 1
 743.650390625 294.952148438 l 1
 733.047851562 461.182617188 833.89453125 496 884.39453125 496 c 0
 930.701171875 496 995.076171875 469.759765625 1000 389 c 1
 1000 383 l 1
 1011.10546875 466.3984375 1081.39453125 496 1131.18554688 496 c 0
 1236.55078125 496 1322.02246094 421.87109375 1322.02246094 239.342773438 c 0
 1322.02246094 100.765625 1271.69140625 -50.0009765625 1115.8125 -50.0009765625 c 0
 1017.11328125 -50.0009765625 946.904296875 -2.419921875 946.904296875 152 c 1
 965.87890625 160.215820312 985.612304688 156.944335938 994 152 c 1
 995.497070312 43.7373046875 1049.10546875 18.9990234375 1105.32910156 18.9990234375 c 0
 1189.765625 18.9990234375 1217.2421875 126.62109375 1219.04394531 217.5859375 c 0
 1222.04394531 376.262695312 1191.49316406 438 1122.24511719 438 c 0
 1065.09082031 438 1027.87304688 367.790039062 1027.87304688 246 c 1
 1012.91503906 237.690429688 985.958007812 234.689453125 974 243 c 1
 972.920898438 367.759765625 943.047851562 437.206054688 882.641601562 438 c 0
222.620117188 352.629882812 m 256
 222.620117188 190.885742188 380.401367188 173.98828125 444.173828125 173.98828125 c 0
 475.994140625 173.98828125 513.83984375 199.447265625 513.83984375 242.740234375 c 256
 513.83984375 283.330078125 485.860351562 316.540039062 445.26953125 316.540039062 c 256
 404.6796875 316.540039062 377.469726562 283.330078125 377.469726562 242.740234375 c 256
 377.469726562 202.150390625 406.6796875 171.940429688 437.26953125 171.940429688 c 257
 437.26953125 126.26953125 l 257
 388.23046875 126.26953125 343.030273438 184.76953125 343.030273438 243.809570312 c 256
 343.030273438 312.849609375 394.23046875 364.75 463.26953125 364.75 c 256
 538.309570312 364.75 579.509765625 310.549804688 579.509765625 251.509765625 c 256
 579.509765625 179.440429688 527.5390625 114.66015625 428.990234375 114.66015625 c 256
 287.6171875 114.66015625 178.1796875 202.720703125 178.1796875 336.48046875 c 256
 178.1796875 495.790039062 314.600585938 595.049804688 471.1796875 595.049804688 c 256
 647.391601562 595.049804688 776.700195312 458.84375 776.700195312 271.83984375 c 256
 776.700195312 152.530273438 710.125976562 -52 448.509765625 -52 c 256
 231.471679688 -52 220.27734375 102.91015625 116.91015625 102.91015625 c 256
 83.7001953125 102.91015625 65.08984375 83.919921875 49.259765625 69.7001953125 c 257
 24.9208984375 78.0771484375 13.1708984375 94.18359375 17.4296875 105.219726562 c 257
 246.334960938 342.590820312 696.352539062 672.549804688 959.969726562 835.549804688 c 261
 975.79568244 830.696846383 993.618368672 804.708602299 994.5703125 788.969726562 c 261
 759.614257812 658.169921875 292.568359375 315.106445312 128.360351562 141.889648438 c 257
 203.625 141.889648438 250.989257812 37.330078125 441.66015625 37.330078125 c 256
 604.568359375 37.330078125 685.280273438 154.669921875 685.280273438 280.129882812 c 256
 685.280273438 440.740234375 560.46484375 534.299804688 440.719726562 534.299804688 c 256
 306.999023438 534.299804688 222.620117188 453.1953125 222.620117188 352.629882812 c 256
EndSplineSet
EndChar

StartChar: si_Tha
Encoding: 41 3502 44
GlifName: si_T_ha
Width: 811
VWidth: -14
Flags: HMW
LayerCount: 4
Back
SplineSet
488.442382812 53 m 0
 662.903320312 53.3701171875 754 160.372070312 754 346 c 0
 754 548.7109375 595.286132812 641.901367188 461.504882812 668.212890625 c 0
 415.705078125 677.881835938 412.819335938 669.99609375 371 663 c 1
 372 731 l 1
 697.056640625 730.212890625 816 516.80859375 816 311 c 0
 816 91.0390625 685.969726562 -56.3818359375 487.442382812 -59 c 0
 294.44921875 -60.677734375 184.573242188 38.0029296875 181.442382812 176 c 0
 178.153320312 320.966796875 300.427734375 394.418945312 411.442382812 398 c 0
 473.442382812 400 513.442382812 379 513.442382812 379 c 1
 499.442382812 334 l 1
 473.442382812 346 439.442382812 352 406.442382812 350 c 0
 336.369140625 345.8515625 263.5546875 302.787109375 262.442382812 218 c 0
 261.442382812 140.005859375 325.440429688 52.2841796875 488.442382812 53 c 0
392.81640625 671.124023438 m 1
 464 680 l 1
 462.842773438 652.919921875 498.176757812 567.0546875 538 549 c 0
 614.103515625 516.365234375 653.166015625 581.057617188 710 533 c 1
 727 500 l 1
 658.135742188 518.92578125 607.494140625 455.291015625 516 485.301757812 c 0
 425.477539062 516.791992188 446.421875 651.103515625 392.81640625 671.124023438 c 1
EndSplineSet
Fore
SplineSet
310.81640625 734.124023438 m 1
 350 748.124023438 l 1
 437.693359375 716.4140625 419.575195312 616.358398438 452.033203125 556.356445312 c 0
 481.755859375 501.41015625 564.594726562 491.95703125 658 533 c 1
 681 496 l 1
 608.212890625 449.369140625 450.287109375 421.567382812 398.029296875 526.12109375 c 0
 365.484375 591.235351562 372.3984375 697.697265625 310.81640625 734.124023438 c 1
408.971679688 40.9716796875 m 0
 604.291992188 40.9716796875 682.483398438 195.509765625 684 346 c 0
 686.436523438 591.587890625 487.467773438 705.0703125 311 733 c 1
 321 781 l 1
 582.01171875 741.120117188 756 561.309570312 756 331 c 0
 756 100.676757812 620.922851562 -58.578125 404.182617188 -58.578125 c 0
 169.877929688 -58.578125 58.841796875 77.7734375 58.841796875 223.12109375 c 0
 58.841796875 412.412109375 192.012695312 500.8046875 323.893554688 500.8046875 c 1
 328.850585938 449.663085938 l 1
 203.975585938 449.663085938 128.99609375 363.698242188 128.99609375 253.989257812 c 0
 128.99609375 128.466796875 234.825195312 40.9716796875 408.971679688 40.9716796875 c 0
EndSplineSet
EndChar

StartChar: si_Da
Encoding: 42 3503 45
GlifName: si_D_a
Width: 619
VWidth: -17
Flags: HMW
LayerCount: 4
Back
SplineSet
526.106445312 -389.28125 m 1
 382.545898438 -403.743164062 323.763671875 -298.6640625 320.015625 -231 c 4
 317.322265625 -146.361328125 373.14453125 -34.4345703125 513.015625 16 c 1
 525.015625 18.3330078125 533.015625 -0.3330078125 497.015625 2 c 1
 257.522460938 -90.2666015625 42.9150390625 -4.337890625 45.015625 165 c 0
 46.935546875 319.76171875 209.903320312 393.12109375 401.015625 394 c 0
 460.018554688 394.271484375 503.015625 385 503.015625 385 c 1
 503.015625 387.5 492.370117188 375.5 492.015625 378 c 1
 495.615234375 475 377.015625 506 322.015625 498 c 1
 266.015625 409 l 1
 220.015625 412 199.572265625 452.114257812 209.015625 488 c 0
 224.015625 545 277.015625 571 340.015625 571 c 0
 412.015625 571 510.015625 528 524.015625 444 c 0
 533.111328125 389.426757812 517.015625 345 517.015625 345 c 1
 517.015625 343 l 1
 277.473632812 364.4921875 166.551757812 306.422851562 156.015625 199 c 0
 142.364257812 59.8173828125 307.245117188 -31.3037109375 553.015625 57 c 1
 569.015625 23 l 1
 475.79296875 -18.275390625 429.576171875 -95.525390625 418.015625 -148 c 0
 402.9453125 -208.849609375 397.454101562 -324.783203125 549.374023438 -359.80859375 c 1
 526.106445312 -389.28125 l 1
EndSplineSet
Fore
SplineSet
45 162.538085938 m 0
 45 320.041015625 210.904296875 394.005859375 403.557617188 394.005859375 c 0
 461.249023438 394.005859375 503.015625 385 503.015625 385 c 1
 503.015625 387.5 492.015625 375.474609375 492.015625 378 c 0
 492.015625 465.44140625 399.334960938 499.203125 340.072265625 499.203125 c 0
 333.548828125 499.203125 327.469726562 498.79296875 322.015625 498 c 1
 266.015625 409 l 1
 227.368164062 411.520507812 206.760742188 440.239257812 206.760742188 470.63671875 c 0
 206.760742188 540.732216144 276.717224938 571 340.015625 571 c 0
 425.252633458 571 526.80078125 519.046658633 526.80078125 409.775390625 c 0
 526.80078125 369.609077039 519.015625 346.321308109 517.015625 343 c 1
 483.786132812 345.981445312 453.032226562 347.431640625 424.676757812 347.431640625 c 0
 244.092503061 347.431640625 155.227539062 290.808438099 155.227539062 183.088867188 c 0
 155.227539062 90.033203125 237.927734375 22.123046875 371.541992188 22.123046875 c 0
 424.654296875 22.123046875 505.810546875 36.853515625 553.015625 61 c 5
 565.103515625 56.50390625 567.823242188 28.857421875 563.015625 19 c 5
 469.79296875 -22.275390625 429.576171875 -95.525390625 418.015625 -148 c 0
 414.08203125 -163.880859375 410.801757812 -183.514648438 410.801757812 -204.483398438 c 0
 410.801757812 -263.854492188 437.104492188 -333.924804688 549.374023438 -359.80859375 c 1
 547.901017461 -369.6328125 538.774936057 -381.45703125 526.106445312 -389.28125 c 1
 517.046875 -390.194335938 508.325195312 -390.630859375 499.93359375 -390.630859375 c 0
 374.504882812 -390.630859375 319.922851562 -293.12890625 319.922851562 -225.143554688 c 0
 319.922851562 -141.266601562 376.318359375 -33.1728515625 513.015625 16 c 1
 497.015625 2 l 1
 430.030273438 -23.806640625 364.991210938 -35.6728515625 306.096679688 -35.6728515625 c 0
 155.448242188 -35.6728515625 45 41.9677734375 45 162.538085938 c 0
EndSplineSet
Layer: 3
SplineSet
456.106445312 -399.28125 m 5
 373.345703125 -372.770507812 330.344726562 -299.50390625 328.015625 -225 c 4
 325.43359375 -142.416992188 378.942382812 -33.208984375 513.015625 16 c 5
 525.015625 18.3330078125 533.015625 -0.3330078125 497.015625 2 c 5
 257.522460938 -90.2666015625 42.9150390625 -4.337890625 45.015625 165 c 4
 46.935546875 319.76171875 209.903320312 393.12109375 401.015625 394 c 4
 460.018554688 394.271484375 503.015625 385 503.015625 385 c 5
 503.015625 387.5 492.370117188 375.5 492.015625 378 c 5
 495.615234375 475 377.015625 506 322.015625 498 c 5
 266.015625 409 l 5
 220.015625 412 199.572265625 452.114257812 209.015625 488 c 4
 224.015625 545 277.015625 571 340.015625 571 c 4
 412.015625 571 510.015625 528 524.015625 444 c 4
 533.111328125 389.426757812 517.015625 345 517.015625 345 c 5
 517.015625 343 l 5
 277.473632812 364.4921875 166.551757812 306.422851562 156.015625 199 c 4
 142.364257812 59.8173828125 307.245117188 -31.3037109375 553.015625 57 c 5
 569.015625 23 l 5
 477.028320312 -15.8623046875 431.986328125 -88.3837890625 420.015625 -138 c 4
 401.427734375 -215.045898438 416.208984375 -321.025390625 471.374023438 -369.80859375 c 5
 456.106445312 -399.28125 l 5
EndSplineSet
EndChar

StartChar: si_Dha
Encoding: 43 3504 46
GlifName: si_D_ha
Width: 845
VWidth: -14
Flags: HMW
AnchorPoint: "si_MaU" 739 211 basechar 0
LayerCount: 4
Back
SplineSet
386 284 m 5
 250.503597122 301.379310345 123.466247874 252.459206919 128 158 c 4
 131.068944452 87.7909007353 219.271735546 45.1571471554 365 46 c 4
 558.999747213 47.1220420377 667 174.791108795 667 339 c 4
 667 547.71874417 557.941173041 679.712552472 342 677 c 4
 219.063691057 675.455731327 132.310705627 606 129 606 c 5
 97 660 l 5
 139.236417611 688.125 219.378877917 735.634192064 358 735 c 4
 565.816845959 734.018099283 730 582.319357855 730 331 c 4
 730 111.353515625 598.414766771 -48.5793000132 375 -58 c 4
 192.556677605 -65.2548684968 49.349757601 8.03433236137 46 137 c 4
 42.243902439 299.324324324 239.43902439 339.378378378 354 332 c 5
 354 402 304 438 212 438 c 5
 186 357 l 5
 135 350 100.76031191 378.857746694 109 425 c 4
 119 481 177 500 224 500 c 4
 300 500 389.99945787 462.999979147 394 359 c 4
 395.383789062 323.026367188 386 284 386 284 c 5
EndSplineSet
Fore
SplineSet
254.680664062 -40 m 4
 151.012517581 -41.212656981 48.37890625 36.5471136398 48.37890625 192.37890625 c 0
 48.37890625 364.814917227 177.972814592 450.603515625 301.880859375 450.603515625 c 0
 361.659179688 450.603515625 393.442382812 432 393.442382812 432 c 1
 394.306086425 412.052077755 390.771953197 396.291186497 380.442382812 387 c 1
 357.262695312 397.698242188 327.745117188 403.247070312 298.212890625 403.247070312 c 0
 205.085509018 403.247070312 118.438476562 334.483238394 118.438476562 219.955078125 c 0
 118.438476562 130.174879182 167.62844221 64 258.694335938 64 c 0
 338.549257812 64 383.442382812 121.157226562 383.442382812 208 c 1
 396.069335938 212.856445312 410.75390625 215.182617188 424 212.6796875 c 1
 424 113.965820312 476.127551075 60 557.565429688 60 c 0
 674.377602892 60 721.998046875 191.377929688 721.998046875 328.465820312 c 0
 721.998046875 565.487304688 592.2265625 680.056640625 392.532226562 680.056640625 c 0
 252.923828125 680.056640625 157.541992188 608 154.442382812 608 c 1
 139.510742188 623.830078125 133.51953125 653.52734375 138.442382812 674 c 1
 190.578125 706.124023438 280.383224775 739.004882812 406.391601562 739.004882812 c 0
 628.323534956 739.004882812 790.85879754 574.848439666 790.85879754 327.71325897 c 0
 790.85879754 161.296690931 733.641225607 -40 552.311523438 -40 c 0
 451.183621723 -40 397.350218409 14.40625 393.442382812 97 c 1
 411 97 l 1
 403.604492188 10.875 348.517578125 -38.90234375 254.680664062 -40 c 4
EndSplineSet
EndChar

StartChar: si_Nda
Encoding: 45 3507 47
GlifName: si_N_da
Width: 619
VWidth: -17
Flags: HMW
LayerCount: 4
Fore
SplineSet
-13 219.418945312 m 0
 -32.4010329841 410.394084821 80.4908958872 563.844662823 310.908203125 562.3671875 c 0
 365.83106657 562.07717953 403.207413429 559.771713481 409.51171875 558 c 1
 410.51171875 494 l 1
 275.51171875 514 l 5
 137.805361181 508.287248909 37.6474035407 382.89014715 39.51171875 228 c 0
 40.0752563291 179.543392028 80.5851862981 114.757237663 144.51171875 91.7021484375 c 1
 111.51171875 49.6884765625 l 1
 40.655313396 84.8815033959 -4.7063200283 144.917899838 -13 219.418945312 c 0
EndSplineSet
Refer: 45 3503 N 1 0 0 1 0 0 2
EndChar

StartChar: si_Pha
Encoding: 47 3509 48
GlifName: si_P_ha
Width: 775
VWidth: -14
Flags: HMW
LayerCount: 4
Back
SplineSet
336.81640625 671.124023438 m 1
 408 680 l 1
 406.842411748 652.9199701 442.176652403 567.054609442 482 549 c 0
 558.103687328 516.365234375 597.165650755 581.057617188 654 533 c 1
 671 500 l 1
 602.136145356 518.925781249 551.493716699 455.291092093 460 485.301757812 c 0
 369.477344724 516.791841306 390.422138226 651.103124612 336.81640625 671.124023438 c 1
405.504882812 668.212890625 m 0
 359.70476176 677.881634396 356.819335938 669.996182698 315 663 c 1
 316 731 l 1
 641.057046308 730.21331936 760 516.808403201 760 311 c 0
 760 91.0389972145 639.969813788 -50.3820154111 450 -58 c 0
 241.291028787 -65.8599509371 126.364332992 17.8013347216 123 121 c 0
 118.614471687 269.0700682 271.970703125 309.060546875 385 303 c 5
 378 375.333007812 330 419 262 408 c 5
 236 327 l 1
 189.63671875 320 158.509765625 348.857421875 166 395 c 0
 175.391601562 451 229.861328125 470 274 470 c 0
 340 470 419.999023438 443 424 339 c 0
 425.383789062 303.026367188 416 252 416 252 c 1
 288.25 268.000976562 195.34375 233.91015625 196 156 c 4
 196.540039062 85.6572265625 290.048202864 50.9382715874 434 52 c 0
 606.9035995 53.3002457237 698 160.372262774 698 346 c 0
 698 548.711039482 539.286272538 641.901776851 405.504882812 668.212890625 c 0
EndSplineSet
Fore
SplineSet
274.81640625 727.124023438 m 1
 314 748.124023438 l 1
 401.693359375 716.4140625 383.57561281 616.358624281 416.033203125 556.356445312 c 0
 445.755859375 501.41015625 528.594726562 491.95703125 622 533 c 1
 645 496 l 1
 572.212890625 449.369140625 414.286663057 421.567159736 362.029296875 526.12109375 c 0
 329.484375 591.235351562 336.3984375 690.697265625 274.81640625 727.124023438 c 1
362.971679688 33.9716796875 m 0
 575.337110166 33.9716796875 646.384765625 192.056640625 648 346 c 0
 650.489257812 591.587890625 455.252929688 698.0703125 275 726 c 5
 269.071289062 739.521484375 266.564453125 773.75 280 784 c 5
 541.01171875 744.120117188 720 561.309570312 720 331 c 0
 720 100.676757812 584.083007812 -58.578125 361.182617188 -58.578125 c 0
 123.952148438 -58.578125 22.841796875 43.8911661279 22.841796875 153.12109375 c 0
 22.841796875 308.888558903 161.037030919 373.8046875 297.893554688 373.8046875 c 1
 302.850585938 323.663085938 l 1
 171.727539062 323.663085938 92.99609375 275.667462156 92.99609375 183.989257812 c 0
 92.99609375 95.5899659666 190.545298558 33.9716796875 362.971679688 33.9716796875 c 0
276.998046875 373.61328125 m 0
 285.138671875 373.61328125 293.157226562 373.403320312 301 373 c 1
 303.905273438 437.873046875 259.541992188 479.6875 195.030273438 479.6875 c 0
 187.611328125 479.6875 179.92578125 479.134765625 172 478 c 1
 146 397 l 1
 141.353515625 396.298828125 136.861328125 395.95703125 132.543945312 395.95703125 c 0
 98.09375 395.95703125 74.8876953125 417.703125 74.8876953125 451.693359375 c 0
 74.8876953125 517.354492188 137.708007812 540 184 540 c 0
 258.817382812 540 337.422855934 491.442382993 341.139648438 401.66015625 c 0
 342.537109375 367.903320312 330 318 330 318 c 1
 306.952148438 320.931640625 286.91796875 322.381835938 266.174804688 322.381835938 c 0
 266.146484375 322.381835938 276.951558304 373.61328125 276.998046875 373.61328125 c 0
EndSplineSet
EndChar

StartChar: si_Ba
Encoding: 48 3510 49
GlifName: si_B_a
Width: 835
VWidth: -24
Flags: HMW
LayerCount: 4
Back
SplineSet
525 284 m 1
 389.50390625 301.37890625 262.465820312 252.458984375 267 158 c 0
 270.198242188 82.6845703125 362.123046875 39.095703125 514 40 c 0
 704.145507812 41.1494140625 810 165.786132812 810 334 c 0
 810 543.329101562 699.598632812 679.720703125 481 677 c 0
 358.063476562 675.456054688 271.310546875 606 268 606 c 1
 236 660 l 1
 278.236328125 688.125 358.37890625 735.633789062 497 735 c 0
 707.051757812 734.015625 873 585.947265625 873 334 c 0
 873 114.912109375 743.638671875 -48.603515625 524 -58 c 0
 336.01171875 -65.2548828125 188.451171875 8.0341796875 185 137 c 0
 181.244140625 299.32421875 378.439453125 339.377929688 493 332 c 1
 493 402 443 438 351 438 c 1
 325 357 l 1
 274 350 239.760742188 378.857421875 248 425 c 0
 258 481 316 500 363 500 c 0
 439 500 528.999023438 463 533 359 c 0
 534.383789062 323.026367188 525 284 525 284 c 1
EndSplineSet
Fore
SplineSet
356.719726562 736.170898438 m 0
 608.471985605 736.170898438 780.819335938 576.395507812 780.819335938 314.8359375 c 0
 780.819335938 103.4123831 698.696709765 -57 541.998046875 -57 c 0
 413.805855287 -57 362.73828125 17.5883587458 362.73828125 95.5048828125 c 0
 362.73828125 177.607421875 419.689453125 239.149414062 472 251 c 1
 459.032226562 236 l 1
 405.962890625 314.694335938 343.040039062 337.40234375 285.7265625 337.40234375 c 0
 180.359375 337.40234375 88.2646484375 267.654296875 88.2646484375 129.993164062 c 0
 88.2646484375 46.3876953125 124.56640625 -18.2998046875 197.130859375 -18.2998046875 c 0
 238.424804688 -18.2998046875 257.41015625 15.0498046875 257.41015625 42.18359375 c 0
 257.41015625 75.2587890625 237.345703125 100.944335938 205.645507812 100.944335938 c 0
 180.131835938 100.944335938 156.920898438 81.2216796875 156.920898438 43.95703125 c 0
 156.920898438 16.765625 173.3671875 -16.7626953125 215.888671875 -22.09375 c 1
 218.706054688 -33.3828125 l 1
 160.139648438 -31.2861328125 117.353515625 -4.029296875 117.353515625 46.935546875 c 0
 117.353515625 104.098632812 160.522460938 151.697265625 220.788085938 151.697265625 c 0
 267.067382812 151.697265625 319.776367188 117.247070493 319.776367188 51.1015625 c 0
 319.776367188 -0.927734375 280.615234375 -58.7978515625 199.735351562 -58.7978515625 c 0
 80.111328125 -58.7978515625 35.5205078125 58.345703125 35.5205078125 151.451171875 c 0
 35.5205078125 325.930664062 157.985351562 434.862304688 295.784179688 434.862304688 c 0
 395.133789062 434.862304688 501.083984375 373.58203125 501.083984375 245.984375 c 0
 501.083984375 242.052734375 500.983398438 238.057617188 500.779296875 234 c 1
 488.501953125 220 l 1
 461.44921875 212.868164062 422.287109375 182.701171875 422.287109375 131.16015625 c 0
 422.287109375 78.955078125 474.200446899 50.6875 541.715820312 50.6875 c 0
 652.413777348 50.6875 706.782086862 168.639196666 713.068359375 312.538085938 c 0
 722.068359375 518.55683563 619.599044899 675.955078125 349.274414062 675.955078125 c 0
 232.85546875 675.955078125 134.091351958 611.837923945 134 612 c 0
 128.357862056 610.323798141 106.930664062 645.533203125 121 679 c 5
 121 679 208.478278037 736.170898438 356.719726562 736.170898438 c 0
EndSplineSet
EndChar

StartChar: si_Bha
Encoding: 49 3511 50
GlifName: si_B_ha
Width: 1023
VWidth: -24
Flags: HMW
LayerCount: 4
Back
SplineSet
23 373 m 5
 402 372 l 5
 397 331 l 5
 106 326 l 5
 22 308 l 5
 23 373 l 5
EndSplineSet
Refer: 57 3524 S 1 0 0 1 58 0 2
Fore
SplineSet
22 395 m 5
 402 395 l 1
 402 346 l 1
 106 346 l 1
 22 323 l 1
 18.4090394013 335.272548887 15.8779296875 380.91796875 22 395 c 5
EndSplineSet
Refer: 57 3524 N 1 0 0 1 58 0 2
EndChar

StartChar: si_Ma
Encoding: 50 3512 51
GlifName: si_M_a
Width: 826
VWidth: -14
Flags: HMW
LayerCount: 4
Back
SplineSet
566.001953125 365.115234375 m 4
 566.001953125 288.616810729 522.00763753 186.986328125 393.486328125 186.986328125 c 4
 288.428759675 186.986328125 205 239.481411877 205 355 c 4
 205 404.53944138 190.044327188 425.005859375 156.852539062 425.005859375 c 4
 110.11073292 425.005859375 84.3828125 359.789351818 84.3828125 286.059570312 c 4
 84.3828125 141.196289062 203.550703807 43.9912109375 392.830078125 43.9912109375 c 4
 608.465820312 43.9912109375 693.212150756 196.577059826 695.274414062 339 c 4
 697.883859651 519.212154244 606.148745812 670.03515625 365.681640625 670.03515625 c 4
 237.625504657 670.03515625 151.926805991 603 149 603 c 5
 121 652 l 5
 121 652 236.059421638 732.00390625 380.225585938 732.00390625 c 4
 621.682617188 732.00390625 761.955078125 548.226380068 761.955078125 334 c 4
 761.955078125 95.5924149499 617.236328125 -58 394 -58 c 4
 131.252865153 -58 25.9404296875 94.1738281247 25.9404296875 240.522460938 c 4
 25.9404296875 395.614786915 83.7145487622 473.034179688 160.60546875 473.034179688 c 4
 210.960053365 473.034179688 248.819335938 436.755879416 248.819335938 367 c 4
 248.819335938 262.442268448 343.606219323 249.488153801 391.0703125 249.998046875 c 4
 480.056205258 250.953996676 525.53982701 299.726989522 527.05078125 369.48046875 c 4
 528.480831933 435.499020461 479.133276904 486.001953125 403.439453125 476.001953125 c 4
 368.735005189 471.018066331 345.991210938 447.6796875 345.991210938 417.051757812 c 4
 345.991210938 397.314453125 358.482094178 368.55859375 393.282226562 368.55859375 c 4
 428.532817296 368.55859375 445.998046875 399.53125 445.998046875 426.853515625 c 4
 445.998046875 446.291413674 440.456054688 467.457229511 429 485.561523438 c 5
 455 484.561523438 l 5
 472.550383764 466.828923076 481.123046875 444.040280755 481.123046875 420.515625 c 4
 481.123046875 369.309635786 448.953831753 319.997070312 388.306640625 319.997070312 c 4
 348.047447366 319.997070312 296.993164062 346.129695457 296.993164062 409.010742188 c 4
 296.993164062 462.715820312 339.36328125 515 413 515 c 4
 503.041454009 515 566.001953125 444.900445587 566.001953125 365.115234375 c 4
EndSplineSet
Fore
SplineSet
36.5693359375 261.502929688 m 0
 36.012686984 417.208915301 110.138389831 482.034179688 177.60546875 482.034179688 c 0
 222.802163801 482.034179688 251.220835723 456.068612832 251.819335938 391 c 0
 252.984816845 264.289559221 338.704123238 250.401451239 399.0703125 250.998046875 c 0
 483.476768744 251.78121676 526.617607884 295.732553501 528.05078125 358.48046875 c 0
 529.657238608 426.975375045 480.015623489 480.262964823 404.439453125 469.001953125 c 0
 370.263077098 463.909599697 347.991210938 436.836135773 347.991210938 402.051757812 c 0
 347.991210938 383.942501537 360.217966138 357.55859375 394.282226562 357.55859375 c 0
 429.532817296 357.55859375 446.998046875 388.53125 446.998046875 415.853515625 c 0
 446.998046875 438.291413674 441.456054688 456.457229511 430 474.561523438 c 1
 456 473.561523438 l 1
 471.550383764 458.828923076 482.123046875 433.040280755 482.123046875 409.515625 c 0
 482.123046875 359.837890625 450.300421504 311.997070312 390.306640625 311.997070312 c 0
 347.929227248 311.997070312 300.993164062 337.248955748 300.993164062 398.010742188 c 0
 300.993164062 451.715820312 343.728519358 504 418 504 c 0
 513.804846502 504 566.001953125 436.70658352 566.001953125 360.115234375 c 0
 566.001953125 275.466696952 510.889759708 186.986328125 391.486328125 186.986328125 c 0
 343.390497849 186.986328125 293.63275726 200.76789332 258 234.584960938 c 0
 227.178504575 262.171612784 211.577783251 310.58886983 210 375 c 0
 208.736101164 424.258593421 197.150549722 444.005859375 171.852539062 444.005859375 c 0
 123.535845823 444.005859375 93.169469742 379.075480364 94.3828125 287.059570312 c 0
 96.3523720223 137.694676798 230.499156252 45.0386107641 396.830078125 43.9912109375 c 0
 619.590879651 42.5884674051 703.750249383 180.206674658 709.274414062 329 c 0
 716.161457658 514.502456528 614.347878896 679.03515625 386.681640625 679.03515625 c 0
 272.500762075 679.03515625 184.737895714 623 182 623 c 1
 172.29296875 629.273379198 159.869140625 660.089931204 167 685 c 1
 167 685 257.301967423 735.485425237 398.225585938 732.00390625 c 0
 634.552721102 726.165442712 771.955078125 548.226380068 771.955078125 334 c 0
 771.955078125 95.5924149499 626.449717158 -58 402 -58 c 0
 172.949780949 -58 36.9334436903 82.8531187449 36.5693359375 261.502929688 c 0
EndSplineSet
Layer: 2
SplineSet
182 418 m 5
 140.951171875 386.802734375 116.327148438 320.063476562 119 258 c 4
 124.50390625 130.204101562 243.995117188 60.369140625 377 60 c 4
 571.99609375 59.458984375 655.291992188 192.06640625 661 317 c 4
 670 514 564.998046875 663.875976562 368 667 c 4
 246.999023438 668.918945312 153 595 150 595 c 5
 132 621 l 4
 132 621 236.998046875 706.665039062 384 706 c 4
 605 705 743 549 733 312 c 4
 724.189453125 103.185546875 601 -59 380 -59 c 4
 157 -59 57.4697265625 63.16796875 55 209 c 4
 52.66015625 347.161132812 113.9375 412.219726562 167 451 c 4
 182 450.357421875 l 5
 197.462890625 436 l 5
 194.671875 339.133789062 241.944335938 230.7109375 375 230 c 4
 470.00390625 229.4921875 494 298 494 343 c 4
 494 396.241210938 449.006835938 441.466796875 386 442 c 4
 343.19921875 442.362304688 322.262695312 421.0390625 322 396 c 4
 321.715820312 368.926757812 338 353 367 351.561523438 c 4
 425.037109375 348.682617188 412.008789062 415.986328125 413 445.561523438 c 5
 413.514648438 440.146484375 451.958984375 443.584960938 440 435.561523438 c 5
 456.25 412.91796875 454.431640625 308.831054688 363 310 c 4
 307.922851562 310.704101562 281.73828125 346.096679688 281 385.856445312 c 4
 279.995117188 440.03125 325 481 388 481 c 4
 458 481 539 438 537 334 c 4
 536.049804688 284.586914062 501 184 368 184 c 4
 237.788085938 184 153.149414062 277.543945312 161 419 c 5
 182 418 l 5
EndSplineSet
EndChar

StartChar: si_Mba
Encoding: 51 3513 52
GlifName: si_M_ba
Width: 864
VWidth: -14
Flags: HMW
LayerCount: 4
Back
SplineSet
594.7537112 -43.0136502063 m 0
 763.072639867 -43.0136502063 819.024174485 190.033707926 819.024174485 317.230565953 c 0
 819.024174485 538.070391283 689.528614812 743.003053052 419.252811937 743.003053052 c 0
 249.917024311 743.003053052 128 657 128 657 c 1
 163 600 l 1
 166.27734375 600 258.401202386 680.519648197 399 682 c 0
 663.781687963 684.787861977 748.293085182 534.267877346 748.293085182 325.691962894 c 4
 748.293085182 203.387789686 698.697411429 55.2896769881 583.271245299 55.2896769881 c 0
 529.174765719 55.2896769881 492.374237206 81.6783806896 489 124.466796875 c 1
 501.262695312 146.536790725 531 164.547593046 531 206 c 0
 531 242.514192598 489.038811627 273.039299773 414.248873297 273.039299773 c 0
 349.937269314 273.039299773 311.976731577 238.702213627 311.976731577 200.985301669 c 0
 311.976731577 164.037178878 335.570327023 139.122640275 356 125.828125 c 1
 340.229604335 74.7546052442 304.886414003 53.9872027416 243.65175046 53.9872027416 c 0
 155.433384175 53.9872027416 108.997547512 135.183060437 108.997547512 225.385097283 c 0
 108.997547512 328.62526177 149.823111188 408.0103208 218.060096175 408.0103208 c 0
 254.186597049 408.0103208 261 371.577096237 261 328 c 0
 261 285.559305425 304.245997803 225.999654539 427.48560482 225.999654539 c 0
 537.439453921 225.999654539 590.239257812 310.2734375 590.239257812 377.76953125 c 0
 590.239257812 460.4921875 532.66015625 513 458 513 c 0
 373.548828125 513 340.990234375 452.721679688 340.990234375 413.915039062 c 0
 340.990234375 349.384765625 386.575195312 321.98046875 428.051757812 321.98046875 c 0
 487.361328125 321.98046875 513.215820312 371.37109375 513.215820312 418.228515625 c 0
 513.215820312 436.395507812 509.329101562 454.181640625 502 468.561523438 c 1
 460 473.561523438 l 1
 471.255859375 459.3125 476.497070312 442.65625 476.497070312 427.069335938 c 0
 476.497070312 398.484375 458.943359375 373.55859375 428.376953125 373.55859375 c 0
 394.411132812 373.55859375 380.9921875 399.428710938 380.9921875 419.184570312 c 0
 380.9921875 443.725585938 403.459960938 473.001953125 441.474609375 473.001953125 c 0
 519.674804688 473.001953125 542.226593822 404.425401291 536.226593822 356.343391497 c 0
 531.614734749 319.385482641 512.033962928 272.96419932 422.231623908 272.96419932 c 0
 352.112397568 272.96419932 307.819335938 296.475258123 307.819335938 350 c 0
 307.819335938 419.559922828 270.830869141 456.046373231 224.849558647 456.046373231 c 0
 127.562730833 456.046373231 40.9141889283 350.51258632 40.9141889283 202.121699218 c 0
 40.9141889283 101.249399846 82.6933839677 -42.0176313172 237.915116467 -42.0176313172 c 0
 329.546390386 -42.0176313172 402.005408228 20.4422853611 402.005408228 149.018820199 c 0
 402.005408228 149.999867175 367.99123144 167.112108888 367.99123144 195.217971147 c 0
 367.99123144 222.396535265 411.060657338 225.101395101 423.75259302 225.101395101 c 0
 429.071693931 225.101395101 475.021906173 219.704746842 475.021906173 194.515993175 c 0
 475.021906173 161.596411911 443 149 443 149 c 1
 442.835970599 144.628312708 442.755062813 140.335691274 442.755062813 136.121690137 c 0
 442.755062813 12.9932116654 511.829609845 -43.0136502063 594.7537112 -43.0136502063 c 0
EndSplineSet
Fore
SplineSet
163 617 m 1
 164.283794068 617 262.641580027 684.038085938 396.2265625 684.038085938 c 0
 626.288225583 684.038085938 738.29296875 533.004958422 738.29296875 325.692382812 c 0
 738.29296875 194.342093258 682.68660063 35 553.271484375 35 c 0
 509.503962434 35 488.729801384 44.7586932295 477 56 c 1
 496.110399433 60.905325336 526 77.6028891261 526 111 c 0
 526 149.26130852 481.050220731 183.0390625 414.249023438 183.0390625 c 0
 339.247467821 183.0390625 294.9765625 147.30129695 294.9765625 107 c 0
 294.9765625 78.1966179958 318.5703125 63.8141249246 339 56 c 1
 323.938792257 42.5627366219 309.269203332 35 273.651367188 35 c 0
 155.778896241 35 111.462975923 159.339365892 108.997070312 265.384765625 c 0
 107 351.268068964 147.634298274 454.005859375 205.852539062 454.005859375 c 0
 233.803204451 454.005859375 242.759034668 433.427770076 248 391 c 0
 254.830838056 335.701556271 268.247450388 295.94237603 297 269.584960938 c 0
 331.564999753 237.89928233 379.831719013 224.986328125 426.486328125 224.986328125 c 0
 538.363569733 224.986328125 590.001953125 302.223235902 590.001953125 376.115234375 c 0
 590.001953125 452.70658352 536.394132508 520 438 520 c 0
 366.267566929 520 324.993164062 467.715820312 324.993164062 414.010742188 c 0
 324.993164062 351.836115554 371.015456832 325.997070312 407.306640625 325.997070312 c 0
 471.874293247 325.997070312 506.123046875 374.819054066 506.123046875 425.515625 c 0
 506.123046875 449.040280755 495.550383764 474.828923076 480 489.561523438 c 1
 454 490.561523438 l 1
 465.456054688 472.457229511 470.998046875 454.291413674 470.998046875 431.853515625 c 0
 470.998046875 404.53125 453.532817296 373.55859375 418.282226562 373.55859375 c 0
 384.217966138 373.55859375 371.991210938 399.942501537 371.991210938 418.051757812 c 0
 371.991210938 450.757911637 394.281463237 476.096542872 428.439453125 481.001953125 c 0
 504.015623489 491.855405632 553.56362217 440.497375915 552.05078125 374.48046875 c 0
 550.706500311 315.819132488 510.241810902 274.690184563 431.0703125 273.998046875 c 0
 371.114077662 273.473893984 285.939295436 297.041738546 284.819335938 397 c 0
 284.010232216 469.213862649 256.193157738 498.034179688 211.60546875 498.034179688 c 0
 124.372671991 498.034179688 50.5805112478 396.835629819 48.9140625 242.122070312 c 1
 48.9140625 130.210177103 91.1175208307 -62.017578125 247.915039062 -62.017578125 c 0
 313.910643768 -62.017578125 384.005859375 -29.5061975943 384.005859375 69 c 0
 384.005859375 69.5627510369 347.991210938 76.3088445645 347.991210938 99 c 0
 347.991210938 124.932098259 377.379604291 135.1015625 410.752929688 135.1015625 c 0
 442.497072774 135.1015625 475.021484375 124.991671676 475.021484375 99 c 0
 475.021484375 76.4270187131 433 69 433 69 c 1
 430.131665826 -28.7576319761 488.077123094 -63.013671875 567.75390625 -63.013671875 c 0
 748.831667446 -63.013671875 809.024414062 189.441084981 809.024414062 327.23046875 c 0
 809.024414062 542.883476947 645.539136323 743.002929688 399.252929688 743.002929688 c 0
 247.35921809 743.002929688 138 664 138 664 c 1
 163 617 l 1
EndSplineSet
EndChar

StartChar: si_Ya
Encoding: 52 3514 53
GlifName: si_Y_a
Width: 856
VWidth: -24
Flags: HMW
AnchorPoint: "si_hal" 696.004 536 basechar 0
LayerCount: 4
Back
SplineSet
512.00390625 366 m 1xfe
 644.237304688 410.743164062 809.00390625 353.65625 809.00390625 178 c 0
 809.00390625 41.892578125 728.3125 -53 600.00390625 -53 c 0
 491.380859375 -53 426.90625 13 425.00390625 108 c 1
 423.00390625 105 458.00390625 111 456.00390625 108 c 1
 449.080078125 27 393.1171875 -51.3505859375 274.00390625 -52 c 0
 127.01953125 -52.837890625 45.71484375 49.0859375 45.00390625 178 c 0
 44.26171875 339.895507812 156.064453125 459.76953125 288.00390625 464 c 0
 314.009765625 464.833984375 341.00390625 463 365.00390625 453 c 1
 356.00390625 388 l 5
 323.178710938 402.400390625 297.998046875 404.036132812 255.00390625 401 c 4
 186.518554688 396.028320312 105.446289062 344.875976562 107.00390625 219 c 0
 108.138671875 124.959960938 172.78125 62.5048828125 270.00390625 61 c 0
 349.502929688 59.796875 417.73046875 93 420.00390625 197 c 1
 456.00390625 197 l 1
 456.00390625 100 526.936523438 56 608.00390625 56 c 0
 712.224609375 56 747.893554688 116.850585938 749.00390625 188 c 0xfd
 750.200195312 267.428710938 689.77734375 384.211914062 492.00390625 321 c 1
 487.00390625 349.743164062 484.70703125 349.853515625 483.00390625 380 c 0
 473.588867188 484.619140625 557.391601562 548.891601562 644.00390625 549 c 0
 715.208984375 549.086914062 781.00390625 514 781.00390625 434 c 0
 781.00390625 338 688.00390625 312 688.00390625 312 c 1
 662.00390625 329 l 1
 662.00390625 329 713.212890625 342.997070312 714.00390625 402 c 0
 714.647460938 449.994140625 663.10546875 479.125 619.00390625 479 c 0
 568.109375 478.870117188 522.546875 453 517.00390625 401 c 0
 513.00390625 355 530.00390625 339 530.00390625 339 c 1
 512.00390625 366 l 1xfe
EndSplineSet
Fore
SplineSet
619.331054688 497 m 0
 564.297851562 496.932617188 516.450195312 467.916992188 516.450195312 406.686523438 c 0
 516.450195312 370.279296875 532.00390625 358 532.00390625 358 c 1
 496.00390625 371 l 1
 512.00390625 384 l 1
 540.548828125 393.658203125 570.609375 398.572265625 600.201171875 398.572265625 c 0
 707.694335938 398.572265625 809.00390625 327.977316317 809.00390625 178 c 0
 809.00390625 41.892578125 726.3125 -51 602.00390625 -51 c 0
 502.381835938 -51 428.90625 5 425.00390625 108 c 1
 424.581054688 107.366210938 425.810546875 107.133789062 427.994140625 107.133789062 c 0
 433.959960938 107.133789062 447.046875 108.866210938 453.012695312 108.866210938 c 0
 455.196289062 108.866210938 456.426757812 108.633789062 456.00390625 108 c 0
 449.033203125 26.4521484375 387.41015625 -50.0048828125 267.170898438 -50.0048828125 c 4
 114.415687466 -50.0048828125 35.3857421875 50.4091796875 34 177.602539062 c 4
 32 361.233398438 150.5 459.723632812 280.00390625 464 c 0
 298.721679688 464.618164062 318.2734375 462.861328125 335.00390625 459 c 1
 339.646484375 445.506835938 335.203125 422.823242188 327.00390625 411 c 1
 311.58984375 415.65234375 298.706122437 418.723632812 282.352539062 418.723632812 c 0
 186.597315137 418.723632812 94.982421875 365.325195312 92.982421875 225.434570312 c 0
 91.5768355963 127.120398801 154.057617188 57 266.125976562 57 c 0
 343.84765625 57 416.770507812 94.0673828125 419.00390625 197 c 1
 424.307617188 199.543945312 443.500976562 205.254882812 458.00390625 202 c 1
 458.00390625 104.301757812 524.532226562 57 611.00390625 57 c 0
 698.963867188 57 748.018554688 128.87890625 749.018554688 201.9921875 c 0
 749.987075523 272.803923759 704.260742188 357.3828125 592.330078125 357.3828125 c 0
 563.478515625 357.3828125 530.165039062 351.846679688 492.00390625 339 c 1
 487.001953125 357.750976562 481.6953125 377.517578125 481.6953125 408.8359375 c 0
 481.6953125 507.3828125 560.498046875 566.94921875 644.267578125 567 c 0
 715.37109375 567 781.00390625 531.901367188 781.00390625 452 c 0
 781.00390625 356 688.00390625 330 688.00390625 330 c 1
 663.00390625 347 l 1
 663.00390625 347 715.010742188 361.586914062 715.010742188 421.00390625 c 0
 715.010742188 468.297851562 669.942382812 497 619.331054688 497 c 0
EndSplineSet
EndChar

StartChar: si_La
Encoding: 54 3517 54
GlifName: si_L_a
Width: 884
VWidth: -5
Flags: HMW
LayerCount: 4
Back
SplineSet
355 341 m 1
 443.666666667 336.596679688 532.333333333 339.290039062 621 341 c 1
 621 294 l 1
 355 294 l 1
 355 341 l 1
620 295 m 1
 547.709677419 295 537 262 537 239 c 0
 537 191.264496312 595.001138693 166.735844698 645 168 c 0
 730.586206897 170.163934426 781 218.852459016 781 300 c 0
 781 409.951923077 680.522180886 509.968996741 506 510 c 0
 309.467732884 510.033994334 184.02420052 333.001423777 177 145 c 0
 169.534239511 -54.8196944059 280.09053023 -214.834296789 482 -232 c 4
 638.394494372 -245.296164253 744.364444444 -168.980073294 790 -115 c 0
 836 -172 l 0
 793.174050633 -220.06060606 665.451836998 -297.584578157 489 -294 c 0
 238.676640506 -288.914738992 66.7577688588 -139.141784136 66 89 c 0
 65.064383628 370.68640861 263.869266055 564 513 564 c 0
 732.544303797 564 849 422 849 296 c 0
 849 155.94520548 762 83 642 83 c 0
 514.512820513 83 467.003722264 152.776664134 466 213 c 0
 465 273 508 323 548 327 c 1
 620 295 l 1
EndSplineSet
Fore
SplineSet
351 358.60546875 m 1
 633 358.60546875 l 1
 633 314 l 1
 351 314 l 1
 351 358.60546875 l 1
490.178710938 -287.106445312 m 0
 207.627774705 -287.106445312 44.9970703125 -123.983398438 44.9970703125 114.818359375 c 4
 44.9970703125 391.477539062 251.14453125 564 497 564 c 0
 726.760742188 564 835 427.298828125 835 306 c 0
 835 175.670898438 744.067382812 105 642 105 c 0
 533.111328125 105 482.982421875 168.331054688 482.982421875 227.053710938 c 0
 482.982421875 297.41796875 536.122070312 332.97265625 574 337 c 1
 632 315 l 1
 555.045898438 315 533 285.536132812 533 249 c 0
 533 204.401367188 588.888671875 180.953125 649.306640625 180.953125 c 0
 719.349609375 180.953125 777 222.991210938 777 315 c 0
 777 416.595703125 683.428710938 509 494.935546875 509 c 0
 279.943359375 509 146.557617188 364.627929688 146.557617188 152.208007812 c 4
 146.557617188 -67.6474609375 282.821918717 -223.764648438 511.658203125 -223.764648438 c 0
 651.096179904 -223.764648438 734.854492188 -159.587890625 774 -121 c 1
 795.65625 -128.8203125 811.541015625 -149.8515625 818 -170 c 1
 775.883789062 -214.029296875 670.617147377 -287.106445312 490.178710938 -287.106445312 c 0
EndSplineSet
EndChar

StartChar: si_Sha
Encoding: 56 3521 55
GlifName: si_S_ha
Width: 958
VWidth: -24
Flags: HMW
AnchorPoint: "si_hal" 711.005 511 basechar 0
LayerCount: 4
Back
SplineSet
864.334960938 287.131835938 m 5x9c
 861.387695312 202.45703125 l 5
 834.8671875 208.05078125 744.361328125 180.313476562 720.004882812 144 c 0
 675.302734375 74.296875 732.693359375 25.1318359375 675.946289062 -23.029296875 c 1
 630.600585938 -14.3720703125 l 1
 670.58984375 40.443359375 616.146484375 100.857421875 660.790039062 176.172851562 c 0
 709.661132812 258.620117188 835.774414062 237.546875 864.334960938 287.131835938 c 5x9c
691.764648438 17.6123046875 m 0
 794.735351562 29.5859375 847.627929688 108.114257812 847.627929688 229.600585938 c 0
 847.627929688 353.83984375 767.364257812 445.533203125 627.942382812 445.533203125 c 0
 547.075195312 445.533203125 436.370117188 397.33203125 429.8828125 254.823242188 c 1
 379.615234375 238.01171875 l 1
 375.662109375 437.1640625 506.456054688 542.603515625 646.684570312 542.603515625 c 0xdc
 818.6484375 542.603515625 911.875 411.889648438 911.875 267.375 c 0
 911.875 101.1640625 827.114257812 -54.5166015625 655.416015625 -55.814453125 c 0
 604.540039062 -56.19921875 564.66015625 -45.9150390625 546.6875 -36.138671875 c 1
 571.45703125 40.328125 l 1
 593.021484375 24.771484375 648.092773438 12.5341796875 691.764648438 17.6123046875 c 0
102.979492188 245.841796875 m 0
 102.229492188 128.7109375 171.219726562 50.8837890625 299.004882812 47.5908203125 c 0
 405.431640625 44.8486328125 476.637695312 87.9111328125 479.004882812 160 c 0
 480.32421875 200.172851562 453.772460938 237 380.004882812 237 c 1
 431.004882812 291 l 1
 480.004882812 290 542.657226562 244.21484375 543.004882812 160 c 0
 543.456054688 47.953125 464.599609375 -55.0048828125 299.603515625 -55.0048828125 c 0
 131.696289062 -55.0048828125 45 61.9140625 45 221.564453125 c 0
 45 428.865234375 201.293945312 536 328.004882812 538 c 0
 335.884765625 462.879882812 l 0xbc
 240.920898438 462.879882812 104.064453125 415.424804688 102.979492188 245.841796875 c 0
EndSplineSet
Fore
SplineSet
911.875 267.375 m 0
 911.875 100.338867188 833.881835938 -55.82421875 652.806640625 -55.82421875 c 0
 603.78125 -55.82421875 599.185546875 -51.7451171875 581.6875 -42.138671875 c 1
 576.444335938 -26.31640625 575.590820312 -6.4951171875 590.45703125 11.328125 c 1
 611.040039062 -4.1640625 632.899414062 -9.22265625 675.764648438 -5.3876953125 c 0
 782.466796875 4.1591796875 845.627929688 112.291015625 845.627929688 239.600585938 c 0
 845.627929688 368.616210938 754.774414062 458.555664062 638.450195312 458.555664062 c 0
 539.291992188 458.555664062 411.18359375 407.1953125 404.8828125 187.823242188 c 1
 359.615234375 187.823242188 l 1
 365.23046875 435.693359375 506.619140625 549.653320312 650.456054688 549.653320312 c 0
 824.030273438 549.653320312 911.875 413.411132812 911.875 267.375 c 0
308.604492188 -55.0390625 m 0
 141.6875 -55.0390625 35 56.1298828125 35 211.564453125 c 0
 35 435.215820312 196.741210938 545.938476562 323.004882812 548 c 1
 330.559570312 529.03125 324.536132812 494.330078125 319.004882812 484.879882812 c 1
 233.756835938 484.879882812 105.641601562 424.635742188 101.971679688 256.94921875 c 0
 99.306640625 135.1171875 178.282226562 36.76953125 310.431640625 34.2587890625 c 0
 417.211914062 32.2587890625 495.021484375 83.4892578125 495.021484375 181.946289062 c 0
 495.021484375 237.381835938 454.079101562 277 415.004882812 277 c 1
 426.004882812 321 l 1
 473.494140625 319.794921875 547.0078125 275.235351562 547.0078125 174.76953125 c 0
 547.0078125 56.0498046875 462.547851562 -55.0390625 308.604492188 -55.0390625 c 0
864.334960938 287.131835938 m 1
 864.334960938 202.45703125 l 1
 862.03515625 202.942382812 856.307617188 203.176757812 853.130859375 203.176757812 c 4
 779.669921875 203.176757812 724.51171875 173.6796875 720.004882812 114 c 4
 713.042922638 21.8094669143 676.09375 -27.443359375 615.946289062 -23.029296875 c 1
 590.600585938 9.970703125 l 1
 688.366210938 61.73828125 643.540806223 120.203465236 660.790039062 176.172851562 c 4
 689.017873788 267.765016948 835.774414062 237.546875 864.334960938 287.131835938 c 1
EndSplineSet
EndChar

StartChar: si_Ssa
Encoding: 57 3522 56
GlifName: si_S_sa
Width: 788
VWidth: -24
Flags: HMW
LayerCount: 4
Back
SplineSet
507.016601562 352 m 1xff80
 457.016601562 333 l 1
 449.016601562 358 441.528320312 375.002929688 442.016601562 417 c 0
 443.016601562 503 514.016601562 556 585.016601562 556 c 0
 658.016601562 556 710.016601562 507 710.016601562 427 c 0
 710.016601562 359 623.016601562 309 623.016601562 309 c 1
 587.016601562 326 l 1
 621.068359375 347.129882812 655.901367188 377.10546875 656.016601562 417 c 0
 656.150390625 463 622.016601562 494 573.016601562 494 c 0
 524.984375 494 480.016601562 452 480.016601562 409 c 0
 480.016601562 357 507.016601562 352 507.016601562 352 c 1xff80
124.016601562 209 m 0
 123.016601562 124 208.016601562 45 393.016601562 45 c 0
 568.016601562 45 668.467773438 127.008789062 670.016601562 216 c 0
 671.791992188 318.00390625 554.016601562 348 457.016601562 333 c 1
 477.016601562 373 l 1
 622.016601562 402 745.223632812 330.994140625 741.016601562 193 c 0xff40
 736.016601562 29 569.016601562 -59 388.016601562 -59 c 0
 194.016601562 -59 43.1591796875 32.998046875 45.0166015625 180 c 0
 47.0166015625 330.426757812 202.016601562 399.4609375 321.016601562 373 c 1
 297.016601562 345 l 1
 304.016601562 365 317.389648438 386.33203125 313.016601562 415 c 0
 304.016601562 474 244.016601562 505 176.016601562 490 c 0
 209.016601562 511 l 1
 154.016601562 409 l 1
 113.016601562 411 86.6171875 436.013671875 88.0166015625 471 c 0
 90.0166015625 521 147.016601562 557 207.016601562 557 c 0
 277.016601562 557 348.909179688 516.997070312 351.016601562 439 c 0
 352.016601562 402 346.016601562 370 337.016601562 333 c 1
 213.016601562 359 124.934570312 287.000976562 124.016601562 209 c 0
648.016601562 323 m 1
 557.806640625 270.456054688 522.510742188 251.752929688 399.016601562 246 c 0
 368.159179688 244.5625 317.151367188 242.704101562 316.016601562 200 c 0
 315.3203125 173.78515625 352.4140625 147.779296875 419.016601562 148 c 0
 457.728515625 148.127929688 499.22265625 171.149414062 499.30078125 212 c 0
 499.364257812 245.018554688 470.301757812 262.201171875 458.016601562 270 c 1
 492.016601562 290 l 1
 491.661132812 268.418945312 538.73828125 261.372070312 539.875976562 195 c 0
 540.79296875 141.533203125 483.875976562 95.91015625 389.016601562 94 c 0
 284.798828125 91.9013671875 233.958007812 135.838867188 235.016601562 190 c 0
 236.385742188 259.994140625 319.200195312 277.727539062 389.016601562 281 c 0
 547.551757812 288.431640625 574.90234375 327.166015625 621.016601562 345.561523438 c 1
 648.016601562 323 l 1
EndSplineSet
Fore
SplineSet
539.887695312 207.728515625 m 4
 539.887695312 152.852539062 478.927734375 105.927734375 381.911132812 105.927734375 c 0
 283.526367188 105.927734375 231.000976562 148.1875 231.000976562 200.344726562 c 0
 231.000976562 271.924804688 318.9140625 289.713867188 389.016601562 293 c 0
 547.551757812 300.431640625 574.90234375 327.166015625 621.016601562 345.561523438 c 1
 648.016601562 323 l 1
 557.806640625 270.456054688 522.510742188 263.752929688 399.016601562 258 c 0
 368.403320312 256.57421875 286.0078125 257.661132812 286.0078125 214.274414062 c 0
 286.0078125 188.41796875 322.712890625 167.999023438 388.17578125 167.999023438 c 0
 427.424804688 167.999023438 499.26171875 182.827148438 499.30078125 224.108398438 c 0
 499.30078125 257.055664062 470.2890625 274.209960938 458.016601562 282 c 1
 492.016601562 302 l 1
 491.6640625 280.567382812 539.887695312 274.552734375 539.887695312 207.728515625 c 4
EndSplineSet
Refer: 1 3508 N 1 0 0 1 0 0 2
EndChar

StartChar: si_Ha
Encoding: 59 3524 57
GlifName: si_H_a
Width: 992
VWidth: -24
Flags: HMW
LayerCount: 4
Back
SplineSet
309.004882812 336 m 1
 326.689453125 423.088867188 270.356445312 479.735351562 173.004882812 471 c 1
 123.004882812 389 l 1
 93.0048828125 392 69.0048828125 409 69.0048828125 446 c 0
 69.0048828125 513 141.004882812 538 194.004882812 538 c 0
 274.004882812 538 349.661132812 488.983398438 354.004882812 404 c 0
 356.571289062 353.791015625 347.004882812 331.083007812 340.004882812 309 c 1
 309.004882812 336 l 1
682.764648438 3.6123046875 m 0
 789.782226562 12.49609375 845.627929688 99.1904296875 845.627929688 236.600585938 c 0
 845.627929688 356.831054688 784.529296875 434.868164062 652.942382812 436.533203125 c 0
 571.99609375 437.557617188 433.370117188 390.266601562 446.8828125 254.823242188 c 1
 399.615234375 244.01171875 l 1
 385.662109375 427.034179688 514.456054688 542.603515625 654.684570312 542.603515625 c 0
 829.677734375 542.603515625 909.875 412.364257812 909.875 268.375 c 0
 909.875 76.21875 813.327148438 -52.93359375 639.416015625 -54.814453125 c 0
 598.541015625 -55.275390625 568.66015625 -45.9150390625 550.6875 -36.138671875 c 1
 576.45703125 29.328125 l 1
 598.021484375 13.771484375 629.108398438 -0.669921875 682.764648438 3.6123046875 c 0
101.979492188 186.841796875 m 0
 100.703125 90.6962890625 179.278320312 50.7744140625 297.004882812 46.5908203125 c 0
 362.458984375 44.2646484375 470.271484375 73.1357421875 472.004882812 155 c 0
 473.32421875 217.323242188 445.772460938 238.487304688 400.004882812 243 c 1
 443.004882812 291 l 1
 484.004882812 281.302734375 534.657226562 242.743164062 535.004882812 152 c 0
 535.456054688 37.15234375 457.599609375 -53.0048828125 292.603515625 -53.0048828125 c 0
 134.696289062 -53.0048828125 45 28.916015625 45 151.564453125 c 0
 45 318.865234375 188.293945312 380 335.004882812 372 c 0
 338.884765625 309.879882812 l 0
 213.920898438 329.879882812 103.438476562 286.419921875 101.979492188 186.841796875 c 0
EndSplineSet
Fore
SplineSet
941.875 267.375 m 0
 941.875 100.338867188 859.881835938 -55.8251953125 678.806640625 -56.82421875 c 0
 629.782226562 -57.0947265625 598.185546875 -49.7451171875 580.6875 -40.138671875 c 1
 573.841796875 -32.3212890625 570.577148438 2.1025390625 590.45703125 22.328125 c 1
 607.998046875 9.125 640.659631961 -0.585140291038 686.151367188 0.5595703125 c 0
 817.171875 3.8564453125 870.627929688 96.849609375 870.627929688 229.600585938 c 0
 870.627929688 360.360351562 795.00390625 450.555664062 673.450195312 450.555664062 c 0
 561.557617188 450.555664062 433.315429688 391.236328125 426.8828125 187.823242188 c 1
 414.460286458 185.352597871 402.037760417 184.575791931 389.615234375 187.823242188 c 1
 395.288085938 431.571289062 538.135742188 542.653320312 683.456054688 542.653320312 c 0
 855.038085938 542.653320312 941.875 410.295898438 941.875 267.375 c 0
309.004882812 359 m 1
 311.176757812 369.696289062 312.232421875 379.828125 312.232421875 389.356445312 c 0
 312.232421875 451.520507812 267.305664062 487.989257812 194.43359375 487.989257812 c 0
 187.536132812 487.989257812 180.388671875 487.662109375 173.004882812 487 c 1
 123.004882812 405 l 1
 93.0048828125 408 69.0048828125 432 69.0048828125 469 c 0
 69.0048828125 536 141.004882812 561 194.004882812 561 c 0
 274.004882812 561 349.667641524 511.983730867 354.004882812 427 c 0
 354.295898438 421.297851562 354.431640625 415.94921875 354.431640625 410.916992188 c 0
 354.431640625 371.640625 346.209960938 351.575195312 340.004882812 332 c 1
 309.004882812 359 l 1
436.004882812 284 m 1
 471.786132812 284.208984375 536.006835938 252.201171875 536.006835938 160.96875 c 0
 536.006835938 46.61328125 451.524414062 -54.0048828125 291.603515625 -54.0048828125 c 0
 162.872070312 -54.0048828125 45 32.916015625 45 155.564453125 c 0
 45 315.586914062 176.096679688 395.521484375 315.88671875 395.521484375 c 0
 322.245117188 395.521484375 328.622070312 395.34765625 335.004882812 395 c 1
 339.004882812 332.879882812 l 1
 318.116992814 337.4453125 298.130967013 339.590820312 279.458007812 339.590820312 c 0
 175.046378299 339.590820312 106.96484375 274.622766617 106.96484375 189.870117188 c 0
 106.96484375 79.6086908498 201.34507608 39.2354341916 292.904296875 37.578125 c 0
 402.91015625 35.5869140625 489.045898438 73.490234375 489.045898438 158.8671875 c 0
 489.045898438 214.016601562 454.663945955 246.91796875 414.438476562 246.91796875 c 1
 436.004882812 284 l 1
EndSplineSet
EndChar

StartChar: si_Lla
Encoding: 60 3525 58
GlifName: si_L_la
Width: 854
VWidth: -5
Flags: HMW
AnchorPoint: "si_hal" 656 547 basechar 0
LayerCount: 4
Back
SplineSet
747.662109375 316.857421875 m 1
 706 371 l 1
 702 364 l 1
 705.431640625 434.71875 677.935546875 501.544921875 607 500 c 0
 564.47265625 499.07421875 501.913085938 463.9609375 503 371 c 1
 477 369 l 1
 478.138671875 459.625976562 436.20703125 505.03515625 375 503 c 0
 315.325195312 501.1328125 285.365234375 434.89453125 285 384 c 0
 284.149414062 262.900390625 356.349609375 167.662109375 518 154.3359375 c 0
 607.342773438 145.145507812 666.795898438 163.501953125 721 197 c 1
 735 166 l 1
 673.184570312 99.427734375 603.87109375 78.2412109375 503 78.9765625 c 0
 353.713867188 80.076171875 226.702148438 173.544921875 223 359 c 0
 220.709960938 471.076171875 279.064453125 571.12109375 378 573 c 4
 490.043945312 575.44140625 509.450195312 440.340820312 491 408 c 1
 482 415 l 1
 483.694335938 469.4453125 522.125976562 572.453125 615 573 c 0
 690.361328125 573.443359375 747.099609375 522.587890625 752 418 c 0
 753.997070312 375.379882812 750.545898438 346.486328125 747.662109375 316.857421875 c 1
212 82 m 0
 186.310546875 -46.61328125 257.73828125 -214.885742188 441 -236.380859375 c 0
 575.911132812 -252.205078125 657.588867188 -209.567382812 731 -151 c 1
 765 -208 l 1
 715.22265625 -243.866210938 608.870117188 -302.046875 457 -296.19140625 c 0
 179.451171875 -285.490234375 85.052734375 -102.752929688 96 34 c 0
 118.716796875 317.774414062 372.760742188 376.5625 528 379 c 0
 628.391601562 380.576171875 686.189453125 371.364257812 733 365 c 1
 733 370 708.833007812 346 708 351 c 1
 750 423 l 0
 759.095703125 368.426757812 747 318 747 318 c 1
 747 316 l 1
 403.766601562 346.892578125 253.637695312 290.458007812 212 82 c 0
EndSplineSet
Fore
SplineSet
487 402 m 1
 488.728515625 456.736328125 531.994140625 558.002929688 626.9765625 558.002929688 c 0
 702.274414062 558.002929688 757.592773438 502.329101562 757.592773438 401.178710938 c 0
 757.592773438 371.391601562 754.94921875 350.35546875 752.662109375 326.857421875 c 1
 705.856445312 328.9296875 561.114257812 337.813476562 431.118164062 337.813476562 c 0
 384.883789062 337.813476562 338.717773438 334.2265625 300 322 c 0
 207.79296875 290.250976562 142.983398438 220.767578125 147.983398438 70.8427734375 c 0
 152.809570312 -82.189453125 257.37890625 -233.38671875 479.8984375 -233.38671875 c 0
 620.544921875 -233.38671875 713.552734375 -163.116210938 755 -107 c 1
 765.2578125 -109.266601562 794.119140625 -129.2421875 797 -146 c 1
 754.96875 -207.765625 635.12890625 -294.012695312 462.841796875 -294.012695312 c 0
 212.129882812 -294.012695312 57.9208984375 -163.717773438 45.998046875 25.2783203125 c 0
 30.998046875 252.166992188 180.954101562 346.325195312 299 374 c 0
 342.6171875 382.830078125 384.931640625 386.228515625 424.456054688 386.228515625 c 0
 546.940429688 386.228515625 670.115234375 381.885742188 731 379 c 1
 714 372 l 1
 714.188476562 376.166015625 714.283203125 380.319335938 714.283203125 384.448242188 c 0
 714.283203125 443.668945312 680.904296875 497.028320312 618.400390625 497.028320312 c 0
 576.0390625 497.028320312 516.967773438 459.012695312 518 358 c 1
 472 356 l 1
 473.184570312 451.486328125 430.447265625 500.057617188 367.56640625 500.057617188 c 0
 299.72265625 500.057617188 263.9921875 436.329101562 263.9921875 368.862304688 c 0
 263.9921875 196.106445312 383.961914062 155.595703125 492.932617188 149.333984375 c 0
 561.6328125 145.768554688 623.965820312 158.716796875 672 181 c 1
 681.923828125 180.825195312 686.838867188 160.856445312 686 150 c 1
 631.103515625 96.568359375 559.659179688 74.11328125 481.004882812 75.9580078125 c 0
 340.838867188 79.244140625 214.931640625 167.419921875 214.931640625 352.35546875 c 0
 214.931640625 462.579101562 274.323242188 560.032226562 375.116210938 560.032226562 c 0
 469.443359375 560.032226562 502.37890625 477.724609375 502.37890625 427.009765625 c 0
 502.37890625 413.26171875 500.072265625 401.8359375 496 395 c 1
 487 402 l 1
EndSplineSet
EndChar

StartChar: si_Fa
Encoding: 61 3526 59
GlifName: si_F_a
Width: 855
VWidth: -24
Flags: HMW
LayerCount: 4
Back
SplineSet
374 -13 m 1
 344.881835938 -25.3193359375 309.634765625 -34.6181640625 259 -33.93359375 c 0
 118.943359375 -32.0400390625 45 85.7529296875 45 228 c 0
 45 384 133 520 269 522 c 0
 393.986328125 523.837890625 442 437 444 362 c 1
 446 365 411 359 413 362 c 1
 420 443 493.002929688 521.33203125 594 522 c 0
 745.000976562 522.999023438 807.434570312 373.00390625 808 254 c 0
 808.831054688 78.9990234375 719.955078125 -30.02734375 603 -33 c 0
 566.997070312 -33.9150390625 521 -27 497 -17 c 1
 516 45 l 1
 542 23 581 17 615 20 c 0
 675.065429688 25.2998046875 738.599609375 89.994140625 737 224 c 0
 735.805664062 323.990234375 689.046875 407.399414062 591 409 c 0
 521.0390625 410.141601562 461 357 459 273 c 1
 403 273 l 1
 403 370 332.948242188 416.880859375 263 414 c 0
 152.022460938 409.428710938 117.696289062 303.002929688 115 219 c 0
 111.829101562 120.224609375 153.603515625 20.6630859375 270 20 c 0
 296.412109375 19.849609375 322.651367188 22.8125 355 45 c 1
 374 -13 l 1
EndSplineSet
Fore
SplineSet
114.833984375 208.666992188 m 0
 114.833984375 112.650390625 158.094726562 19.9951171875 271.806640625 19.9951171875 c 0
 297.612304688 19.9951171875 323.388671875 23.318359375 355 45 c 1
 374 -13 l 1
 345.892578125 -24.8916015625 312.07421875 -33.96875 264.216796875 -33.96875 c 0
 120.118164062 -33.96875 45 83.6826171875 45 228 c 0
 45 385.194335938 133.673828125 522.028320312 272.883789062 522.028320312 c 0
 394.982421875 522.028320312 442.020507812 436.217773438 444 362 c 1
 444.422851562 362.633789062 443.193359375 362.866210938 441.008789062 362.866210938 c 0
 435.04296875 362.866210938 421.95703125 361.133789062 415.991210938 361.133789062 c 0
 413.806640625 361.133789062 412.577148438 361.366210938 413 362 c 0
 420.032226562 443.374023438 493.513671875 522.004882812 595.499023438 522.004882812 c 0
 746.216796875 522.004882812 808.005859375 371.612304688 808.005859375 251.568359375 c 0
 808.005859375 75.7548828125 718.505859375 -33.0810546875 596.473632812 -33.0810546875 c 0
 561.600585938 -33.0810546875 519.572265625 -26.4052734375 497 -17 c 1
 516 45 l 1
 537.916015625 26.4560546875 569.069335938 19.279296875 598.678710938 19.279296875 c 0
 604.1953125 19.279296875 609.659179688 19.5283203125 615 20 c 0
 674.323242188 25.234375 737.029296875 88.404296875 737.029296875 219.0625 c 0
 737.029296875 322.126953125 690.2109375 409.017578125 588.790039062 409.017578125 c 0
 519.780273438 409.017578125 460.978515625 356.114257812 459 273 c 1
 403 273 l 1
 403 367.192382812 336.9453125 414.125 269.072265625 414.125 c 0
 150.444335938 414.125 114.833984375 299.47265625 114.833984375 208.666992188 c 0
EndSplineSet
EndChar

StartChar: si_Halant
Encoding: 62 3530 60
GlifName: si_H_alant
Width: 1
VWidth: -36
Flags: HMW
AnchorPoint: "si_hal" -12 453 mark 0
LayerCount: 4
Back
SplineSet
28 866 m 1
 28 820.333007812 28 774.666992188 28 729 c 1
 44 708 62.9814453125 706.276367188 76 707 c 0
 94 708 109 727 106 767 c 0
 103 806 75 850 28 866 c 1
6 685 m 1
 5.828125 683.069335938 25.6865234375 688.06640625 25.572265625 686 c 1
 23.0244140625 639.911132812 34.3857421875 532.184570312 43 514 c 1
 -16 514 l 1
 -23 565 -21 670 -21 737 c 1
 -22 920 l 1
 54 911 169 868 165 743 c 0
 163 689 125.046875 657 82 657 c 0
 41 657 15 679 6 685 c 1
EndSplineSet
Fore
SplineSet
-21 454 m 1
 -21 864 l 5
 -9.46288289622 870.611786952 3.7685546875 866.306640625 13 864 c 1
 41.36328125 844.711914062 64.7753665175 835.722917351 93 821.342773438 c 4
 118.440359168 808.381187019 185.091796875 779.881835938 185.091796875 702.806640625 c 4
 185.091796875 643.647460938 142.462148568 617.192144683 87 617 c 0
 47.3298122869 616.862565446 18.6625 633.222439237 10 645 c 1
 25.572265625 646 l 1
 25.4524422444 640.996586981 23 635.342773438 23 629.192382812 c 2
 23 454 l 1
 -21 454 l 1
28 677 m 1
 42.2744140625 658.264648438 65.9228515625 655.872070312 78.591796875 655.872070312 c 0
 104.276367188 655.872070312 125.72265625 671.784179688 125.72265625 705.431640625 c 0
 125.72265625 771.408203125 43.2333984375 792.978515625 28 810 c 1
 28 677 l 1
EndSplineSet
EndChar

StartChar: si_MatraAa
Encoding: 63 3535 61
GlifName: si_M_atraA_a
Width: 398
VWidth: -11
Flags: HMW
LayerCount: 4
Back
SplineSet
11 440 m 1
 37 419 l 1
 54.2334365325 430.538461539 88.4733541392 450.502923457 135 444 c 0
 213.00859375 431.585557969 248.154606463 350.39868523 245 231 c 0
 241.972988697 124.423500756 200.964795067 26.691021564 124 17 c 0
 84.2011769494 12.6207021954 42.9523809524 26.9599723948 32 33 c 1
 10 7 l 1
 22.796875 -10.5 68.8708171443 -35.9261539118 127 -33 c 0
 264.933880797 -26.0565725332 331.788192012 122.321918812 335 234 c 0
 339.06942699 378.272912215 271.327595942 493.894728402 145 499 c 0
 94.0841540466 501.080954113 39.7236584411 474.416666667 11 440 c 1
EndSplineSet
Fore
SplineSet
135.141188187 -33.162554757 m 0
 67.6940959142 -33.162554757 25.9501434277 -4.5299015558 11 13 c 1
 12.3770869967 25.2647730079 20.8177518736 38.4558223837 34 43 c 1
 55.023614498 30.1751828249 88.9306640625 14.890625 123.349609375 14.890625 c 0
 215.272460938 14.890625 254.172851562 116.284179688 254.172851562 234.821289062 c 0
 254.172851562 353.245117188 202.544921875 458.172851562 117.368164062 458.172851562 c 0
 79.771484375 458.172851562 51.978515625 434.029296875 37 424 c 1
 26.810546875 429.470703125 15.181640625 438.08984375 17 459 c 1
 44.4189453125 483.150390625 96.259765625 509 144.903320312 509 c 0
 289.287109375 508.94921875 347.228515625 386.616210938 347.228515625 249.094726562 c 0
 347.228515625 126.294921875 290.116325631 -33.162554757 135.141188187 -33.162554757 c 0
EndSplineSet
EndChar

StartChar: si_MatraAe
Encoding: 64 3536 62
GlifName: si_M_atraA_e
Width: 355
VWidth: -11
Flags: HMW
LayerCount: 4
Back
SplineSet
150 96 m 0x40
 134.754354647 7.52286056713 143.063476562 -89.5732421875 245 -97 c 0
 308.692382812 -101.640625 340 -71.2119140625 363 -51 c 1
 384 -73 l 1
 369.114257812 -116.75 296.828125 -174.841796875 216 -173 c 0
 79.068359375 -169.87890625 50.5498046875 -73.234375 65 40 c 0
 80.9677734375 174.33060949 177.349609375 293.039478975 215.163085938 332 c 1x40
 168.428486668 329.587890625 78.0733322503 326.22265625 20 323.856445312 c 1
 21 388.116210938 l 5x80
 43.9092013889 388.107421875 232.430533854 387.998046875 266 388 c 5
 266 323 l 1
 216.875976562 285.021022041 164.067382812 177.639167233 150 96 c 0x40
EndSplineSet
Fore
SplineSet
62.1494140625 7.0751953125 m 0
 62.1494140625 160.453125 175.546875 313.090820312 228.163085938 357 c 5
 26 357 l 5
 25.2109375 373.793945312 24.20703125 390.158203125 26 412.116210938 c 5
 48.7060546875 412.107421875 236.108398438 412 272.073242188 412 c 6
 273 412 l 5
 276.446289062 389.453125 272.966796875 363.88671875 266 347 c 5
 204.771484375 299.663085938 144.061523438 151.978236706 144.061523438 40.478515625 c 0
 144.061523438 -33.013671875 172.801757812 -89.666015625 262.700195312 -89.666015625 c 0
 314.708007812 -89.666015625 352.23828125 -65.244140625 373 -45 c 1
 385.032226562 -48.919921875 393.221264136 -64.4726116652 394 -73 c 1
 376.345202084 -106.071242315 319.057617188 -163.04296875 230.213867188 -163.04296875 c 0
 108.2265625 -163.04296875 62.1494140625 -87.4931640625 62.1494140625 7.0751953125 c 0
EndSplineSet
EndChar

StartChar: si_MatraAae
Encoding: 65 3537 63
GlifName: si_M_atraA_ae
Width: 417
VWidth: -11
Flags: HMW
LayerCount: 4
Back
SplineSet
75 412 m 1xc0
 309 412 l 1xc0
 309 358 l 1
 216 324.43359375 l 5
 127 303 l 1
 65 309 l 1
 189 355.081054688 l 1
 273 372 l 1xa0
 243 364 l 1
 75 364 l 1
 75 412 l 1xc0
206 88 m 0
 187.103515625 4.6083984375 191.1640625 -90.5087890625 289 -97 c 0
 352.720703125 -101.227539062 384 -71.2119140625 407 -51 c 1
 428 -73 l 1
 413.114257812 -116.75 340.828125 -174.842773438 260 -173 c 0
 123.068359375 -169.87890625 89.22265625 -72.42578125 109 40 c 0
 128.04296875 148.252929688 227.811523438 232.37890625 279.163085938 262 c 1
 227.614257812 261.661132812 129.0546875 261.188476562 65 260.856445312 c 1
 65 309.116210938 l 1
 87.9091796875 309.107421875 285.431640625 308.998046875 319 309 c 1
 319 253 l 1
 273.961914062 225.39453125 221.813476562 157.787109375 206 88 c 0
EndSplineSet
Fore
SplineSet
35 411 m 1
 264 411 l 1
 265.224609375 393.333007812 262.82421875 375.666992188 259 358 c 1
 137 293 l 1
 75 299 l 1
 193.547851562 360 l 1
 35 360 l 1
 35 411 l 1
298.061523438 223 m 1
 236.450195312 185.236328125 195.077148438 119.6484375 195.077148438 31.9990234375 c 4
 195.077148438 -30.69140625 222.8359375 -87.40234375 300.913085938 -87.40234375 c 0
 356.71484375 -87.40234375 385.481445312 -59.91015625 407 -41 c 1
 419.862967807 -43.1188819378 427.329101562 -58.4560546875 428 -66 c 1
 413.345703125 -109.071289062 343.05859375 -163.04296875 263.7578125 -163.04296875 c 0
 177.856445312 -163.04296875 119.805664062 -103.293945312 119.805664062 -15.943359375 c 4
 119.805664062 95.43359375 184.862304688 179.909179688 259.163085938 236 c 1
 207.614257812 239.661132812 139.0546875 248.188476562 75 252.856445312 c 1
 75 299.116210938 l 1
 97.7060546875 299.107421875 265.24609375 282 302.061523438 279 c 1
 301.938476562 256.321289062 303.033203125 240.751953125 298.061523438 223 c 1
EndSplineSet
EndChar

StartChar: si_MatraIi
Encoding: 67 3539 65
GlifName: si_M_atraI_i
Width: 0
VWidth: -28
Flags: HMW
AnchorPoint: "si_MaI" 0 559 mark 0
LayerCount: 4
Back
SplineSet
-185 531 m 21
 -248 551 -291.833007812 588.24609375 -286 655 c 4
 -277 758 -139 802 2 800 c 4
 106 799 249.903320312 764.702148438 266 659 c 4
 275.955078125 593.627929688 231 543 196 529 c 13
 177 554 l 21
 200 574 214.749023438 594.73046875 205 635 c 4
 190.84375 693.477539062 68 701.96875 0 703 c 4
 -94.994140625 704.44140625 -214 706 -223 641 c 4
 -230.40625 587.510742188 -191 576 -168 566 c 13
 -185 531 l 21
EndSplineSet
Fore
SplineSet
-43.5585546846 703.431554736 m 0
 -133.453426685 703.431554736 -223.912920686 697.873775667 -223.912920686 628.405888564 c 0
 -223.912920686 585.590937463 -189.071374215 575.16146705 -168 566 c 13
 -185 531 l 21
 -244.231271263 549.803578179 -286.52014082 583.85160605 -286.52014082 643.334287269 c 0
 -286.52014082 755.583575965 -147.550292268 800.065084445 -7.16206684126 800.065084445 c 0
 101.215066413 800.065084445 249.471709864 767.536406964 266 659 c 4
 266.956722904 652.717482056 267.406296688 646.571140704 267.406296688 640.580400317 c 0
 267.406296688 584.235130642 227.636359733 541.654543893 196 529 c 13
 177 554 l 21
 195.073672268 569.716236755 208.052364494 585.883538142 208.052364494 611.628567418 c 0
 208.052364494 618.64587136 207.088125414 626.374743107 205 635 c 4
 190.84375 693.477539062 68 701.96875 0 703 c 4
 -14.1350478985 703.214480033 -28.8017437921 703.431554736 -43.5585546846 703.431554736 c 0
EndSplineSet
EndChar

StartChar: si_MatraU
Encoding: 68 3540 66
GlifName: si_M_atraU_
Width: 0
VWidth: 0
Flags: HMW
AnchorPoint: "si_MaU" 32 169.28 mark 0
LayerCount: 4
Back
SplineSet
-388 -115 m 17
 -361.227539062 -160 l 1
 -361.23046875 -152.99609375 -427.812711241 -191.887525396 -427.809570312 -226 c 0
 -427.80528394 -272.552734178 -403.698875123 -285.247071992 -352 -285.247070312 c 1
 -35 -287 l 9
 -35 169 l 25
 22 169 l 25
 28 -367 l 17
 28 -367 -247.995117188 -369.6796875 -424 -370.586914062 c 0
 -504 -371 -545.244140625 -321.6015625 -546 -271 c 0
 -547.62890625 -161.938476562 -388 -115 -388 -115 c 17
EndSplineSet
Fore
SplineSet
38 -367 m 17
 38 -367 -311.313850792 -370.589486823 -486.995171802 -370.589486823 c 0
 -566.830038229 -370.589486823 -608.012382154 -321.070771019 -608.012382154 -269.343924644 c 0
 -608.012382154 -161.463141736 -450 -115 -450 -115 c 1
 -423.227539062 -160 l 2
 -423.22777291 -159.440947505 -423.652198746 -159.174306687 -424.433095497 -159.174306687 c 0
 -433.435192937 -159.174306687 -489.809570409 -194.608848438 -489.809570409 -225.99774857 c 0
 -489.807571295 -272.55224766 -465.699244694 -285.247070312 -414 -285.247070312 c 2
 -18 -287 l 9
 -18 169 l 25
 32 169 l 25
 38 -367 l 17
EndSplineSet
EndChar

StartChar: si_MatraUu
Encoding: 69 3542 67
GlifName: si_M_atraU_u
Width: 0
VWidth: 0
Flags: HMW
AnchorPoint: "si_MaU" 22 169.28 mark 0
LayerCount: 4
Back
SplineSet
-448 -165 m 25
 -436 -251 l 25
 88 -247 l 25
 82 129 l 25
 -5 129 l 25
 -5 -167 l 25
 -448 -165 l 25
EndSplineSet
Fore
SplineSet
-200.450620247 -309.737940586 m 0
 -294.555154358 -309.737940586 -346.950620606 -380.587968423 -440.555322436 -380.587968423 c 0
 -510.278655613 -380.587968423 -546.015507134 -330.951773433 -546.015507134 -279.115612078 c 0
 -546.015507134 -187.058157614 -435 -125 -435 -125 c 1
 -401.972540152 -159.292062531 l 1
 -409.827868014 -159.292062531 -454.429327179 -200.762900111 -454.429327179 -239.894819329 c 0
 -454.429327179 -274.31235992 -430.945679331 -297.435711788 -395.599599962 -297.435711788 c 0
 -331.013708113 -297.435711788 -279.017840354 -235.845724575 -194.973727509 -235.845724575 c 0
 -117.583714754 -235.845724575 -65.2160437128 -270.188315595 -25 -297 c 1
 -25 169 l 25
 22 169 l 25
 28 -377 l 1
 -34 -376 l 1
 -86.3606063148 -340.617832929 -146.16490311 -309.737940586 -200.450620247 -309.737940586 c 0
EndSplineSet
EndChar

StartChar: si_MatraR
Encoding: 70 3544 68
GlifName: si_M_atraR_
Width: 397
VWidth: -11
Flags: HMW
LayerCount: 4
Back
SplineSet
17 449 m 1
 37 419 l 1
 54.2334365325 430.538461539 88.4282279166 450.171453115 135 444 c 0
 206.044410511 434.585557969 240.953858779 350.39868523 238 231 c 0
 235.673454122 126.415584854 209.685365321 33.540720618 145 21 c 0
 99.8863052159 13.532603167 60.0982142857 27.0795774275 34 43 c 1
 11 13 l 1
 26.5941190945 -5.285 71.3400420364 -35.6498516338 144 -33 c 0
 286.939560226 -27.7871064363 343.865398935 122.321918812 347 234 c 0
 351.326443431 378.272912215 294.556180949 498.894728402 145 499 c 0
 96.3287827409 499.034259345 44.4375244811 473.166666667 17 449 c 1
EndSplineSet
Fore
SplineSet
6.990234375 98.1953125 m 0
 6.990234375 7.0029296875 85.271484375 -20.00390625 155.526367188 -20.00390625 c 0
 324.754882812 -20.00390625 367.228515625 134.006835938 367.228515625 249.094726562 c 0
 367.228515625 386.616210938 289.287109375 508.94921875 144.903320312 509 c 0
 96.259765625 509 44.4189453125 483.150390625 17 459 c 1
 37 429 l 1
 51.978515625 439.029296875 79.771484375 455.172851562 117.368164062 455.172851562 c 0
 215.0234375 455.172851562 278.010742188 358.625 278.010742188 234.693359375 c 0
 278.010742188 126.1875 241.515625 32.78125 167.525390625 32.78125 c 0
 126.744140625 32.78125 80.9853515625 54.1279296875 80.9853515625 110.7890625 c 0
 80.9853515625 189.631835938 139.422851562 214.865234375 203.223632812 214.865234375 c 0
 241.614257812 214.865234375 277.491210938 203.213867188 308 180 c 1
 298 241 l 1
 274.94921875 251.056640625 239.374023438 255.764648438 206.254882812 255.764648438 c 0
 104.6171875 255.764648438 6.990234375 209.336914062 6.990234375 98.1953125 c 0
EndSplineSet
EndChar

StartChar: si_MatraE
Encoding: 71 3545 69
GlifName: si_M_atraE_
Width: 617
VWidth: -10
Flags: HMWO
LayerCount: 4
Back
SplineSet
313 157 m 4
 255.081054688 160.048828125 225 204 225 247 c 4
 225 321 295.996232903 364.285672889 366 365 c 0
 457.000756775 365.928582995 551.537146707 304.978720126 546 172 c 0
 541.655737705 72 461.286885246 -44 281 -44 c 0
 106.011363636 -44 5.04488585503 78.4458592855 20 244 c 0
 36.1881188119 424.993150685 166.769115485 546 347 546 c 0
 469.480446927 546 536 489 536 489 c 0
 497 427 l 1
 495 427 444.751953125 479.645507812 338 487 c 0
 209.078125 495.052734375 87.5294756928 413.662785823 78 284 c 0
 66.9070806138 133.064221695 179.333007812 55.640625 275 48 c 0
 379.729492188 39.6357421875 470.897630752 65.0259085152 487 174 c 0
 499.953781854 266.2671434 431.995346331 330.335991006 363 329 c 0
 306.949367089 328 281 297 281 263 c 0
 281 239 302.145114339 216.832389055 335 216 c 0
 371.235294118 215.2 391 236 391 256 c 0
 391 323.307692308 343.52173913 331 335 331 c 1
 362 337 394.527617292 334.682723095 396 333 c 0
 405 322.714285714 429 306.714285714 429 253 c 0
 429 208 389 153 313 157 c 4
EndSplineSet
Fore
SplineSet
357.758789062 156.793945312 m 4
 294.991210938 156.793945312 261 201.576171875 261 247 c 4
 261 321.55859375 326.813476562 365.010742188 398.047851562 365.010742188 c 4
 485.856445312 365.010742188 576.232421875 307.384765625 576.232421875 183.029296875 c 4
 576.232421875 74.0869140625 506.833007812 -44 323 -44 c 4
 169.43359375 -44 48.5419921875 67.982421875 48.5419921875 217.153320312 c 4
 48.5419921875 429.360351562 204.911132812 548 374 548 c 4
 496.48046875 548 543 511 543 511 c 5
 550.271897172 491.511131928 530.049804688 463.827148438 513 457 c 5
 513 457 460.483398438 500.520507812 354.4609375 500.520507812 c 4
 225.6875 500.520507812 116.239257812 402.588867188 116.239257812 259.588867188 c 4
 116.239257812 117.71484375 206.493164062 39.529296875 332.27734375 39.529296875 c 4
 435.598632812 39.529296875 517.598632812 86.931640625 518.598632812 196.499023438 c 4
 519.32068087 275.611939448 457.62109375 329.020507812 395.120117188 329.020507812 c 4
 337.983398438 329.020507812 311 297.3984375 311 263 c 4
 311 238.486328125 332.99609375 215.977539062 367.015625 215.977539062 c 4
 401.967773438 215.977539062 421 246.374023438 421 266 c 4
 421 333.307617188 383.521484375 331 375 331 c 5
 388.224609375 333.938476562 392.775390625 334.881835938 404.353515625 334.881835938 c 4
 416.4140625 334.881835938 425.249023438 333.858398438 426 333 c 4
 435 322.713867188 459 306.713867188 459 253 c 4
 459 209.556640625 428.719726562 156.793945312 357.758789062 156.793945312 c 4
EndSplineSet
EndChar

StartChar: si_MatraLs
Encoding: 77 3551 75
GlifName: si_M_atraL_s
Width: 580
VWidth: -11
Flags: HMW
LayerCount: 4
Back
Refer: 61 3535 N 1 0 0 1 77 0 2
Fore
SplineSet
34.9552106379 356.080449514 m 0
 34.9552106379 238.784320563 91.9873046875 163.451171875 216.879882812 163.451171875 c 0
 284.315429688 163.451171875 357.000976562 205.981445312 357.000976562 288.327148438 c 0
 357.000976562 338.720703125 317.490234375 380.057617188 250.767578125 380.057617188 c 0
 233.459960938 380.057617188 215 376 215 376 c 1
 215 350 l 1
 273.21484375 350 297.42578125 319.814453125 297.42578125 285.087890625 c 0
 297.42578125 254.151367188 279.666992188 208.6484375 215.500976562 208.6484375 c 4
 137.081054688 208.6484375 83.5947265625 259.80078125 83.5947265625 367.783203125 c 0
 83.5947265625 420.0078125 102.131835938 478.837890625 132 530 c 1
 121.954625077 536.818500654 102.33203125 543.327148438 84 534 c 1
 57.4111328125 492.323242188 34.9552106379 421.269103821 34.9552106379 356.080449514 c 0
565.012872122 257.288467395 m 0
 565.012872122 505.21642948 437.628831325 543.154998543 363.794764483 543.154998543 c 0
 255.623702414 543.154998543 190.000976562 463.424804688 190.000976562 371.598632812 c 0
 190.000976562 364.063476562 190.375 356.514648438 191.125976562 349 c 1
 231 349 l 1
 229.495117188 356.73828125 228.73828125 365.966796875 228.73828125 374.397460938 c 0
 228.73828125 426.40234375 278.536132812 486.1171875 338.143554688 486.1171875 c 0
 446.340820312 486.1171875 473.247070312 365.747070312 473.247070312 267.822265625 c 0
 473.247070312 142.2421875 447.16796875 -7.001953125 319.700195312 -7.001953125 c 0
 256.547851562 -7.001953125 196.395507812 7.193359375 175 60 c 1
 161.545898438 65.7119140625 136.135742188 62.533203125 132 51 c 1
 151.005859375 -22.8955078125 221.458007812 -63.0830078125 313.103515625 -63.0830078125 c 0
 497.829101562 -63.0830078125 565.012872122 82.484952332 565.012872122 257.288467395 c 0
EndSplineSet
EndChar

StartChar: si_VI
Encoding: 365 -1 78
GlifName: si_V_I_
Width: 780
VWidth: -14
Flags: HMW
LayerCount: 4
Back
SplineSet
376 274 m 1
 230 290 125 245 129 158 c 0
 131.939453125 94.0595703125 204.999023438 55.1953125 345 56 c 0
 519 57 618 173 618 326 c 0
 680 321 l 0
 680 107 571.001953125 -56.423828125 335 -58 c 0
 179 -59.0419921875 49.349609375 8.0439453125 46 137 c 0
 42 291 219 325 341 318 c 1
 351 378 304 428 212 428 c 1
 186 347 l 1
 135 340 100 369 109 415 c 0
 119 471 177 490 224 490 c 0
 300 490 380 453 384 349 c 0
 385.383789062 313.026367188 376 274 376 274 c 1
EndSplineSet
Refer: 560 -1 S 1 0 0 1 0 0 2
Fore
SplineSet
45.9471173255 141.548867888 m 0
 45.9471173255 288.309633633 212.710887114 332.828404851 327.508573973 332.828404851 c 0
 336.710496144 332.828404851 345.578522621 332.542360085 354 332 c 1
 354 402 304 438 212 438 c 1
 186 357 l 1
 180.88932074 356.298534219 175.946951567 355.957145919 171.19877215 355.957145919 c 0
 133.30306767 355.957145919 107.776860342 377.702894463 107.776860342 411.693183497 c 0
 107.776860342 477.803046315 175.069866687 500 224 500 c 0
 302.043059296 500 394.139273993 460.937271348 394.139273993 351.559540423 c 0
 394.139273993 317.850536642 386 284 386 284 c 1
 367.861034003 286.326527509 349.873647198 287.464888377 332.333209055 287.464888377 c 0
 221.124653591 287.464888377 127.882171403 241.705998254 127.882171403 162.881472501 c 0
 127.882171403 83.1849199728 219.807150758 39.9862021039 370.381676212 39.9862021039 c 0
 563.59897039 39.9862021039 671 164.721306141 671 336 c 1
 734 336 l 1
 734 108.229280506 597.173836085 -58.4924006492 359.680900975 -58.4924006492 c 0
 183.021379548 -58.4924006492 45.9471173255 14.1991613668 45.9471173255 141.548867888 c 0
EndSplineSet
Refer: 560 -1 N 1 0 0 1 52 0 2
Ligature2: "si_abvs_1 subtable" si_Va si_MatraI
LCarets2: 1 0
Ligature2: "'abvs' Above Base Substitutions in Sinhala lookup 0-1" si_Va si_MatraI
EndChar

StartChar: si_MatraU.alt
Encoding: 85 -1 81
GlifName: si_M_atraU_.alt
Width: 0
VWidth: 0
Flags: HMW
AnchorPoint: "si_MaU" 24 209.28 mark 0
LayerCount: 4
Back
SplineSet
-480.240234375 -218.512695312 m 4
 -480.240234375 -266.21875 -448.51953125 -295 -376.483398438 -295 c 4
 -375.005859375 -295 -373.51171875 -295.02734375 -372 -295 c 6
 -35 -295 l 13
 -43 209 l 29
 24 209 l 29
 28 -375 l 21
 -436 -375 l 6
 -436.361328125 -375.001953125 -436.72265625 -375.001953125 -437.08203125 -375.001953125 c 4
 -537.298828125 -375.001953125 -568.020507812 -317.9296875 -568.020507812 -265.305664062 c 4
 -568.020507812 -158.131835938 -472 -110 -472 -110 c 5
 -435.227539062 -135 l 5
 -457.485351562 -147.05078125 -480.240234375 -178.7890625 -480.240234375 -218.512695312 c 4
EndSplineSet
Fore
SplineSet
-446 -91 m 5
 -426.227539062 -119 l 5
 -443.819335938 -128.764648438 -477.809570312 -158.65625 -477.809570312 -197.99609375 c 4
 -477.80859375 -238.81640625 -446.703125 -255 -380 -255 c 6
 -28 -255 l 1
 -28 160 l 1
 20 160 l 1
 26 -326 l 1
 -412 -329.586914062 l 6
 -520.216796875 -329.254882812 -561.008789062 -288.486328125 -561.008789062 -237.360351562 c 4
 -561.008789062 -130.55078125 -446 -91 -446 -91 c 5
EndSplineSet
EndChar

StartChar: si_MatraUu.alt
Encoding: 86 -1 82
GlifName: si_M_atraU_u.alt
Width: 0
VWidth: 0
Flags: HMW
AnchorPoint: "si_MaU" 24 209.28 mark 0
LayerCount: 4
Fore
SplineSet
-441 -364 m 0
 -543.215534041 -364 -575.176314815 -307.267845158 -575.176314815 -251.10298387 c 0
 -575.176314815 -174.141428983 -509.23952756 -113.313135048 -451 -106 c 1
 -424.227539062 -151 l 1
 -470.474752224 -164.842782083 -489.817044141 -197.046406625 -489.817044141 -221.180848244 c 0
 -489.817044141 -261.083522722 -459.850479818 -279.051222598 -413.368947774 -279.051222598 c 0
 -329.763860961 -279.051222598 -265.299207874 -225.517458827 -181.484263253 -225.517458827 c 0
 -126.433925604 -225.517458827 -80.7949565834 -241.931489329 -41 -268 c 9
 -43 209 l 25
 24 209 l 25
 22 -369 l 17
 -46.4215557328 -338.091951717 -92.5199097255 -298.838025668 -191.813728751 -298.838025668 c 0
 -195.46913547 -298.838025668 -199.1966366 -298.891225478 -203 -299 c 0
 -267.509765625 -300.844726562 -346 -364 -441 -364 c 0
EndSplineSet
EndChar

StartChar: si_Rakar.alt
Encoding: 88 -1 84
GlifName: si_R_akar
Width: 776
VWidth: -24
Flags: HMW
LayerCount: 4
Back
SplineSet
710 217 m 13
 736 210 l 29
 736 210 737.791460669 163.739318268 733 103 c 4
 717.53805264 -88.9552825327 623.783678929 -308.121598998 361 -309 c 4
 140.07699775 -309.663443429 32.9088980374 -199.176818848 27 -179 c 13
 64 -158 l 29
 64 -158 152.41243175 -207.191959404 362 -203 c 4
 650.485866987 -194.912482782 700.90024363 43.6137537122 710 217 c 13
EndSplineSet
Fore
SplineSet
704 217 m 9
 736 210 l 17
 736 210 736.32792633 201.531996286 736.32792633 187.085048814 c 0
 736.32792633 167.765065463 735.741467409 137.752421647 733 103 c 0
 718.239261945 -102.397038676 660.325202974 -329.833064233 357.801358189 -329.833064233 c 0
 176.005167315 -329.833064233 61.8315924404 -216.684641739 37 -149 c 1
 44.374663882 -134.806825201 58.7369006229 -130.750005222 74 -128 c 1
 115.858841934 -169.165646095 199.9375 -236.391601562 342.065429688 -236.391601562 c 0
 634.956054688 -236.391601562 695.238154422 8.08666317514 704 217 c 9
EndSplineSet
EndChar

StartChar: si_KU
Encoding: 92 -1 88
GlifName: si_K_U_
Width: 1085
VWidth: -24
Flags: HMW
LayerCount: 4
Back
SplineSet
796 9 m 0xbe
 905.836914062 22.0703125 941.120117188 174.231445312 915 279 c 0
 885.174804688 398.631835938 760.228515625 466.868164062 625 462 c 0
 525.9140625 458.697265625 448.959960938 431.771484375 355 374 c 1
 338 362 349 367 335 355 c 1
 238 276 156 211 56 79 c 1
 56 79 21.126953125 98.5439453125 27 107 c 0
 127 251 217 322 315 413 c 1
 322 419 331 420 338 425 c 1
 435.860351562 505 556.172851562 555.573242188 672 561 c 0
 861.928710938 570.465820312 1001 450 1015 282 c 0
 1028.55566406 112.560546875 927.639648438 -33 775 -33 c 0
 796 9 l 0xbe
288 377 m 1
 300 400 304 421 303 439 c 0
 301 481 264.760742188 505.678710938 215 501 c 0
 180.934570312 497.796875 145 470 151 426 c 1
 191 371 l 1
 177 347 154.001953125 335.022460938 132 336 c 0
 87 338 67 369 67 415 c 0
 67 495 133.983398438 563.181640625 231 559 c 0
 313.926757812 555.42578125 363 480 336 416 c 0
 321 380 336 404 323 387 c 1
 288 377 l 1
107 165 m 1
 115 169 124 172 131 172 c 0
 179 173 188 72 271 72 c 0
 320 72 370 101 371 197 c 1
 406 197 l 0
 407 94 466.997070312 71.1669921875 527 72 c 0
 587.002929688 72.8330078125 638 118 638 194 c 0
 638 273 566 340 452 345 c 0
 390.059570312 347.716796875 314 329 281 311 c 1
 335 364 l 1
 348 368 381.99609375 390.330078125 459 391 c 0
 574 392 696 332 696 182 c 0
 696 48 620.995117188 -34.9423828125 516 -36 c 0
 430.693359375 -36.859375 397.721679688 8.326171875 379 49 c 1
 397 49 l 1
 379.737304688 7.81640625 336.954101562 -36 272 -36 c 0xde
 113.997070312 -36 160 169 95 130 c 0
 107 165 l 1
EndSplineSet
Refer: 575 -1 S 1 0 0 1 795 1 2
Fore
SplineSet
26.3335078618 104.843455669 m 0
 26.3335078618 105.619619237 26.5438631104 106.34325086 27 107 c 0
 127 251 216.771757017 322.255813626 315 413 c 0
 321.771757017 419.255813626 331.318255181 419.583764967 338 425 c 0
 436.178606743 504.583764967 556.172851562 555.573242188 672 561 c 0
 679.000180971 561.348880666 685.931275691 561.521258282 692.789568454 561.521258282 c 0
 880.432906895 561.521258282 1016.21729266 434.886161691 1016.21729266 251.683875962 c 0
 1016.21729266 95.561739781 918.450276035 -33 775 -33 c 1
 796 9 l 1
 882.984501944 19.350933771 923.210954807 116.935827076 923.210954807 209.131251835 c 0
 923.210954807 233.352668235 920.43449065 257.20209891 915 279 c 0
 886.172820874 394.628693382 768.483958377 462.243942407 638.537406247 462.243942407 c 0
 530.214074164 462.243942407 451.845388993 434.854960824 355 374 c 0
 337.385663093 362.931638423 349.259108476 366.689899742 335 355 c 0
 238.259108476 275.689899742 156 211 56 79 c 1
 56 79 26.3335078618 95.6260293241 26.3335078618 104.843455669 c 0
67 415 m 0
 67 492.659893112 130.122004356 559.182720185 222.564422044 559.182720185 c 0
 295.098757691 559.182720185 343.442474614 508.453627101 343.442474614 452.594013384 c 0
 343.442474614 440.35979067 341.053948377 427.979729485 336 416 c 0
 329.657903166 400.778967598 328.678765299 396.283853131 328.678765299 394.880761233 c 0
 328.678765299 392.965332614 330.503516077 396.812290255 323 387 c 1
 288 377 l 1
 298.833989511 397.765146564 303.147127427 416.900080228 303.147127427 433.668896433 c 0
 303.147127427 476.252082181 272.428790024 501.565481201 226.819163069 501.565481201 c 0
 187.753535816 501.565481201 146.227495934 475.264635413 146.227495934 432.56219309 c 1
 191 371 l 1
 177.528911607 347.906705613 155.726815213 335.944628885 134.497388019 335.944628885 c 0
 87.6475340335 335.944628885 67 368.90425106 67 415 c 0
95 130 m 1
 107 165 l 1
 115 169 124 172 131 172 c 0
 131.236453202 172.004926108 131.471960009 172.007377029 131.706533928 172.007377029 c 0
 179.090465675 172.007377029 188.408866995 72 271 72 c 0
 320 72 370 101 371 197 c 1
 406 197 l 1
 406.982755728 95.7761599807 464.945402412 71.9783082165 523.896187265 71.9783082165 c 0
 586.200672026 71.9783082165 638 116.718415806 638 194 c 0
 638 275.772692542 559.983416169 345.26420928 439.643840367 345.26420928 c 0
 380.265743801 345.26420928 311.835174829 327.819186271 281 311 c 1
 335 364 l 1
 347.452810551 367.831634016 385.179524427 391.012279158 461.823715208 391.012279158 c 0
 575.987953375 391.012279158 696 330.772878088 696 182 c 0
 696 47.2467431379 620.491372745 -36.0120708321 513.613196887 -36.0120708321 c 0
 430.076049697 -36.0120708321 397.546066129 8.70770151412 379 49 c 1
 397 49 l 1
 379.737304688 7.81640625 336.954101562 -36 272 -36 c 0
 127.721155519 -36 153.547543458 134.934171954 109.631651492 134.934171954 c 0
 105.454286159 134.934171954 100.645879733 133.38752784 95 130 c 1
EndSplineSet
Refer: 575 -1 N 1 0 0 1 795 1 2
LCarets2: 1 0
Ligature2: "si_blws_1 subtable" si_Ka si_MatraU
EndChar

StartChar: si_KhI
Encoding: 100 -1 96
GlifName: si_K_hI_
Width: 877
VWidth: -24
Flags: HMW
LayerCount: 4
Back
Refer: 28 3483 N 1 0 0 1 0 0 2
Fore
SplineSet
751.43359375 336.353515625 m 5
 813.630859375 332.138671875 l 1
 813.630859375 114.291992188 738.642578125 -54.8984375 572.459960938 -54.8984375 c 0
 502.900390625 -54.8984375 450.546875 -33.203125 447 28 c 1
 485.404296875 3.6044921875 l 1
 473.602539062 -18.2236328125 464.434570312 -34.0078125 430 -91.9130859375 c 1
 389.888671875 -71 l 1
 428.796875 -11.0185546875 486.889648438 86.4775390625 481.032226562 178.049804688 c 0
 474.748046875 276.287109375 382.245117188 329.544921875 307.25390625 329.544921875 c 0
 204.419921875 329.544921875 114.188476562 262.353515625 114.188476562 129.487304688 c 0
 114.188476562 46.1943359375 150.720703125 -8.2998046875 223.15625 -8.2998046875 c 0
 264.450195312 -8.2998046875 283.411132812 25.0712890625 283.411132812 52.2392578125 c 0
 283.411132812 85.287109375 263.328125 110.944335938 231.645507812 110.944335938 c 0
 206.208984375 110.944335938 182.908203125 91.3330078125 182.908203125 54.2900390625 c 0
 182.908203125 26.85546875 199.26953125 -6.75 241.888671875 -12.09375 c 1
 241.888671875 -23.3828125 l 1
 173.337890625 -21.287109375 140.354492188 15.962890625 140.354492188 56.8916015625 c 0
 140.354492188 114.103515625 180.590820312 169.70703125 246.03125 169.70703125 c 0
 302.182617188 169.70703125 345.776367188 127.157226562 345.776367188 61.1015625 c 0
 345.776367188 9.072265625 306.615234375 -58.7978515625 225.735351562 -58.7978515625 c 0
 106.1171875 -58.7978515625 61.5205078125 58.337890625 61.5205078125 151.438476562 c 0
 61.5205078125 326.481445312 178.671875 422.469726562 320.525390625 424.913085938 c 0
 404.267578125 426.35546875 542.91796875 370.383789062 542.91796875 194.314453125 c 0
 542.91796875 113.931640625 513.919921875 68.451171875 492.997070312 30 c 1
 502.197265625 102 l 1
 515.55078125 69.466796875 525.80078125 50.37890625 585.459960938 50.37890625 c 0
 686.295898438 50.37890625 751.43359375 174.697265625 751.43359375 336.353515625 c 5
EndSplineSet
Refer: 560 -1 N 1 0 0 1 133 0 2
LCarets2: 1 0
Ligature2: "si_abvs_1 subtable" si_Kha si_MatraI
EndChar

StartChar: si_GU
Encoding: 111 -1 107
GlifName: si_G_U_
Width: 959
VWidth: -24
Flags: HMW
LayerCount: 4
Back
SplineSet
665.759765625 8.6123046875 m 0xee
 798.73046875 0.5859375 856.623046875 108.114257812 856.623046875 229.600585938 c 0
 856.623046875 353.83984375 776.359375 445.533203125 636.9375 445.533203125 c 0
 556.0703125 445.533203125 445.365234375 397.33203125 438.877929688 254.823242188 c 1
 388.610351562 238.01171875 l 1
 384.657226562 437.1640625 515.451171875 542.603515625 655.6796875 542.603515625 c 0
 827.643554688 542.603515625 920.870117188 411.889648438 920.870117188 267.375 c 0
 920.870117188 101.1640625 847.109375 -54.5166015625 664.411132812 -45.814453125 c 4
 665.759765625 8.6123046875 l 0xee
111.974609375 245.841796875 m 0
 111.224609375 128.7109375 180.21484375 50.8837890625 308 47.5908203125 c 0
 414.426757812 44.8486328125 485.6328125 87.9111328125 488 160 c 0
 489.319335938 200.172851562 462.767578125 237 389 237 c 1
 440 291 l 1
 489 290 551.65234375 244.21484375 552 160 c 0
 552.451171875 47.953125 473.594726562 -55.0048828125 308.598632812 -55.0048828125 c 0
 140.69140625 -55.0048828125 53.9951171875 61.9140625 53.9951171875 221.564453125 c 0
 53.9951171875 428.865234375 210.2890625 536 337 538 c 0
 344.879882812 462.879882812 l 0xde
 249.916015625 462.879882812 113.059570312 415.424804688 111.974609375 245.841796875 c 0
EndSplineSet
Refer: 575 -1 N 1 0 0 1 665 1 2
Fore
SplineSet
53.9951171875 221.564453125 m 0
 53.9951171875 428.865234375 210.2890625 536 337 538 c 1
 337 462.879882812 l 1
 241.590554086 462.879882812 111.968558438 414.808979975 111.968558438 243.954944533 c 0
 111.968558438 124.760114358 184.292976321 47.4672417361 317.513504254 47.4672417361 c 0
 418.938043587 47.4672417361 488.04658674 90.3761309858 488.04658674 162.823479171 c 0
 488.04658674 201.881753743 461.035717971 237 389 237 c 1
 440 291 l 1
 489.300980971 289.993857531 552.001924841 243.820283358 552.001924841 159.044207233 c 0
 552.001924841 47.3683133416 473.125462188 -55.0048828125 308.598632812 -55.0048828125 c 0
 140.69140625 -55.0048828125 53.9951171875 61.9140625 53.9951171875 221.564453125 c 0
391.167684725 238.866995014 m 1
 391.167684725 432.347898396 517.522364898 542.603515625 655.6796875 542.603515625 c 0
 827.643554688 542.603515625 920.870117188 411.889648438 920.870117188 267.375 c 0
 920.870117188 105.619414168 851.010748998 -46.1628684214 678.86888751 -46.1628684214 c 0
 674.127459102 -46.1628684214 669.308433377 -46.0477177473 664.411132812 -45.814453125 c 5
 664.411132812 8.6123046875 l 1
 669.101913855 8.32916012884 675.047896537 8.18981791239 679.552569681 8.18981791239 c 0
 802.7429541 8.18981791239 856.623046875 112.399906843 856.623046875 229.600585938 c 0
 856.623046875 353.83984375 776.359375 445.533203125 636.9375 445.533203125 c 0
 556.0703125 445.533203125 445.365234375 397.33203125 438.877929688 254.823242188 c 1
 391.167684725 238.866995014 l 1
EndSplineSet
Refer: 575 -1 N 1 0 0 1 665 1 2
LCarets2: 1 0
Ligature2: "si_blws_1 subtable" si_Ga si_MatraU
EndChar

StartChar: si_C.halant
Encoding: 135 -1 132
GlifName: si_C_.halant
Width: 828
VWidth: -14
Flags: HMW
LayerCount: 4
Back
Refer: 5 3488 N 1 0 0 1 0 0 2
Fore
SplineSet
-514 757 m 1048
EndSplineSet
Refer: 5 3488 N 1 0 0 1 0 0 2
Refer: 576 -1 S 1 0 0 1 48 0 2
Ligature2: "si_halant_1 subtable" si_Ca si_Halant
EndChar

StartChar: si_CI
Encoding: 136 -1 133
GlifName: si_C_I_
Width: 831
VWidth: -14
Flags: HMW
LayerCount: 4
Back
Refer: 5 3488 N 1 0 0 1 0 0 2
Fore
SplineSet
22 333 m 1
 448 333 l 1
 443 283 l 1
 126 283 l 1
 26 273 l 1
 20.7978515625 284.331054688 11.576171875 308.646484375 22 333 c 1
-501 757 m 1048
280 503 m 0
 358.04296875 503 451.139648438 460.9375 451.139648438 351.559570312 c 0
 451.139648438 317.850585938 443 285 443 285 c 1
 424.860351562 287.326171875 406.873046875 288.46484375 389.33203125 288.46484375 c 0
 278.124023438 288.46484375 184.881835938 251.706054688 184.881835938 172.880859375 c 0
 184.881835938 96.2333984375 276.751953125 43.986328125 427.3828125 43.986328125 c 0
 620.553710938 43.986328125 732 171.591796875 732 340 c 1
 794 334 l 1
 794 105.610351562 657.713867188 -59.4921875 425.008789062 -59.4921875 c 0
 243.713867188 -59.4921875 107.947265625 22.1328125 107.947265625 149.548828125 c 0
 107.947265625 296.309570312 269.708984375 332.828125 384.506835938 332.828125 c 0
 393.709960938 332.828125 402.578125 332.541992188 411 332 c 1
 411 402 361 438 279 438 c 1
 233 357 l 1
 198.240234375 350.856445312 165.467773438 374.880859375 164.776367188 413.692382812 c 0
 163.776367188 469.802734375 221.069335938 503 280 503 c 0
EndSplineSet
Refer: 560 -1 S 1 0 0 1 113 0 2
Ligature2: "si_abvs_1 subtable" si_Ca si_MatraI
EndChar

StartChar: si_Tt.halant
Encoding: 197 -1 202
GlifName: si_T_t.halant
Width: 762
VWidth: -14
Flags: HMW
LayerCount: 4
Back
SplineSet
353.442382812 334 m 1xfa
 327.442382812 346 293.442382812 352 260.442382812 350 c 0
 190.369140625 345.8515625 117.5546875 302.787109375 116.442382812 218 c 0
 115.442382812 140.005859375 171.440018336 54.38494186 334.442382812 55 c 0
 547.44140625 55.8037109375 618.874023438 215.23046875 627.442382812 340 c 0
 690.442382812 332 l 0
 691.631835938 137.185546875 601.442382812 -57 341.442382812 -59 c 0
 148.44763624 -60.4845749736 38.5732421875 38.0029296875 35.4423828125 176 c 0
 32.1533203125 320.966796875 154.427734375 394.418945312 265.442382812 398 c 0
 327.442382812 400 367.442382812 379 367.442382812 379 c 1
 353.442382812 334 l 1xfa
EndSplineSet
Refer: 576 -1 N 1 0 0 1 -20 0 2
Fore
Refer: 0 3495 N 1 0 0 1 0 0 2
Refer: 576 -1 N 1 0 0 1 -3 0 2
LCarets2: 1 0
Ligature2: "si_halant_1 subtable" si_Tta si_Halant
EndChar

StartChar: si_TtI
Encoding: 198 -1 203
GlifName: si_T_tI_
Width: 771
VWidth: -14
Flags: HMW
LayerCount: 4
Back
SplineSet
366 329 m 1xfc
 343 338 300 345 273 343 c 0
 202 338 115.5149564 300.478264259 117 198 c 0
 118.4140625 100.419921875 217 45 350 44 c 4
 544.997070312 42.5341796875 612.875976562 198.346679688 616 323 c 0
 682 322 l 0
 680.189453125 113.185546875 570 -59 330 -59 c 4
 147 -59 40.7906648242 50.1077332517 46 176 c 0
 52 321 165 394 276 398 c 0
 338 400 378 379 378 379 c 1
 366 329 l 1xfc
EndSplineSet
Refer: 560 -1 N 1 0 0 1 0 0 2
Fore
SplineSet
35.3774587946 181.69974939 m 0
 35.3774587946 324.826062289 158.736177519 398.134297521 273.758874172 398.134297521 c 0
 330.99610182 398.134297521 367.442382812 379 367.442382812 379 c 1
 353.442382812 334 l 1
 330.744815811 344.475800154 301.950449427 350.379000772 273.046988528 350.379000772 c 0
 194.004599422 350.379000772 116.432046656 296.252203686 116.432046656 206.116663248 c 0
 116.432046656 108.481461729 200.114923593 42.9944465122 364.80978819 42.9944465122 c 0
 556.381755959 42.9944465122 650.679874155 184.664658968 656.442382812 327 c 1
 718.442382812 327 l 1
 717.991854365 98.9509594463 583.911536922 -59.0210713393 356.292046557 -59.0210713393 c 0
 152.527091621 -59.0210713393 35.3774587946 40.0140048816 35.3774587946 181.69974939 c 0
EndSplineSet
Refer: 560 -1 S 1 0 0 1 38 0 2
LCarets2: 1 0
Ligature2: "si_abvs_1 subtable" si_Tta si_MatraI
Ligature2: "'abvs' Above Base Substitutions in Sinhala lookup 0-1" si_Tta si_MatraI
EndChar

StartChar: si_TtIi
Encoding: 199 -1 204
GlifName: si_T_tI_i
Width: 745
VWidth: -14
Flags: HMW
LayerCount: 4
Back
SplineSet
366 329 m 1xfd
 343 338 300 345 273 343 c 0
 202 338 115.5149564 300.478264259 117 198 c 0
 118.4140625 100.419921875 207 45 340 44 c 0
 534.997070312 42.5341796875 603.875976562 198.346679688 607 323 c 0
 682 322 l 0
 680.189453125 113.185546875 560 -59 320 -59 c 0
 137 -59 40.7906648242 50.1077332517 46 176 c 0
 52 321 165 394 276 398 c 0
 338 400 378 379 378 379 c 1
 366 329 l 1xfd
EndSplineSet
Refer: 561 -1 S 1 0 0 1 0 0 2
Fore
SplineSet
35.3774587946 181.69974939 m 0
 35.3774587946 324.826062289 158.736177519 398.134297521 273.758874172 398.134297521 c 0
 330.99610182 398.134297521 367.442382812 379 367.442382812 379 c 1
 353.442382812 334 l 1
 330.744815811 344.475800154 301.950449427 350.379000772 273.046988528 350.379000772 c 0
 194.004599422 350.379000772 116.432046656 296.252203686 116.432046656 206.116663248 c 0
 116.432046656 108.481461729 200.114923593 42.9944465122 364.80978819 42.9944465122 c 0
 556.381755959 42.9944465122 650.679874155 184.664658968 656.442382812 327 c 1
 718.442382812 327 l 1
 717.991854365 98.9509594463 583.911536922 -59.0210713393 356.292046557 -59.0210713393 c 0
 152.527091621 -59.0210713393 35.3774587946 40.0140048816 35.3774587946 181.69974939 c 0
EndSplineSet
Refer: 561 -1 S 1 0 0 1 50 0 2
LCarets2: 1 0
Ligature2: "si_abvs_2 subtable" si_Tta si_MatraIi
EndChar

StartChar: si_TtU
Encoding: 200 -1 205
GlifName: si_T_tU_
Width: 781
VWidth: -14
Flags: HMW
LayerCount: 4
Back
SplineSet
212 -117 m 1
 228.772460938 -152 l 1
 228.76953125 -143.934570312 162.1875 -188.71875 162.190429688 -228 c 0
 162.1953125 -274.552734375 189.481445312 -288 248 -288 c 1
 615 -288 l 1
 615 167 l 5
 662 167 l 5
 668 -369 l 1
 668 -369 387.048828125 -371.4765625 176 -372.586914062 c 0
 96 -373 54.755859375 -323.6015625 54 -273 c 0
 52.37109375 -163.938476562 212 -117 212 -117 c 1
EndSplineSet
Refer: 0 3495 N 1 0 0 1 0 0 2
Fore
Refer: 81 -1 S 1 0 0 1 670 0 2
Refer: 0 3495 N 1 0 0 1 0 0 2
LCarets2: 1 0
Ligature2: "si_blws_1 subtable" si_Tta si_MatraU
EndChar

StartChar: si_DdI
Encoding: 213 -1 218
GlifName: si_D_dI_
Width: 880
VWidth: -14
Flags: HMW
LayerCount: 4
Back
Refer: 40 3497 N 1 0 0 1 0 0 2
Fore
SplineSet
818.450195312 321.625 m 5
 818.450195312 155.35546875 769.649213195 -42 601.009765625 -42 c 0
 525.294079316 -42 465.104327053 -11.0987465788 443.442382812 51 c 1
 420.08559888 -16.6407284114 350.243275455 -42 290.967773438 -42 c 0
 192.490000084 -42 101.413085938 10.6818988978 101.413085938 131.486328125 c 0
 101.413085938 271.767770741 215.656035683 351.260405393 313.442382812 352 c 1
 304.166992188 320.391601562 l 1
 228.461176063 320.391601562 172.439453125 251.797517427 172.439453125 176.115234375 c 0
 172.439453125 110.336027146 215.283658113 61 293.64453125 61 c 0
 365.165152991 61 427.442382812 101.407262976 427.442382812 195 c 1
 434.446289399 199.26831435 459.297851562 203.076171875 466 197.6796875 c 1
 466 102.482421875 532.490043127 61 611.086914062 61 c 0
 695.497523747 61 754.629882812 157.26038484 754.629882812 329.989257812 c 1
 818.450195312 321.625 l 5
29 365 m 1
 443 362 l 1
 438 320 l 1
 135 320 l 1
 31 303 l 1
 20.3193359375 317.057617188 13.3515625 346.249023438 29 365 c 1
405 342 m 1
 407.172074024 352.696651211 408.227539062 362.934051568 408.227539062 372.647460938 c 0
 408.227539062 436.636701423 362.421707046 477.885742188 288.291015625 477.885742188 c 0
 282.057494985 477.885742188 275.623691791 477.594162055 269 477 c 1
 219 395 l 1
 189 398 165 415 165 452 c 0
 165 519 237 544 290 544 c 0
 380.079106345 544 450.567382812 488.989632509 450.567382812 389.237304688 c 0
 450.567382812 355.048002208 443.940220452 338.739311954 438 320 c 1
 405 342 l 1
EndSplineSet
Refer: 560 -1 N 1 0 0 1 137 -2 2
LCarets2: 1 0
Ligature2: "si_abvs_1 subtable" si_Dda si_MatraI
EndChar

StartChar: si_DdIi
Encoding: 214 -1 219
GlifName: si_D_dI_i
Width: 880
VWidth: -14
Flags: HMW
LayerCount: 4
Back
Refer: 40 3497 N 1 0 0 1 0 0 2
Fore
SplineSet
822.450195312 321.625 m 5
 822.450195312 159.064453125 788.649414062 -42.0517578125 601.009765625 -42.0517578125 c 4
 532.021484375 -42.0517578125 477.1796875 -11.0986328125 457.442382812 51 c 1
 433.47265625 -16.640625 361.798828125 -41.001953125 300.967773438 -41.001953125 c 0
 202.490234375 -41.001953125 111.413085938 10.681640625 111.413085938 131.486328125 c 0
 111.413085938 265.40625 235.354492188 341.293945312 341.442382812 342 c 1
 332.166992188 310.391601562 l 1
 246.116210938 310.391601562 182.439453125 241.797851562 182.439453125 166.115234375 c 0
 182.439453125 106.049804688 225.283203125 60.9990234375 303.64453125 60.9990234375 c 0
 374.630859375 60.9990234375 436.442382812 101.407226562 436.442382812 195 c 1
 443.446289062 195.030273438 468.297851562 195.259765625 475 195.6796875 c 1
 475 100.482421875 537.365234375 60.9423828125 611.086914062 60.9423828125 c 0
 698.4375 60.9423828125 758.629882812 154.397460938 758.629882812 321.989257812 c 5
 822.450195312 321.625 l 5
31 348 m 1
 443 345 l 1
 438 303 l 1
 135 303 l 1
 31 285 l 1
 31 348 l 1
405 325 m 1
 407.171875 335.696289062 408.227539062 345.934570312 408.227539062 355.647460938 c 0
 408.227539062 419.63671875 362.421875 460.885742188 288.291015625 460.885742188 c 0
 282.057617188 460.885742188 275.624023438 460.594726562 269 460 c 1
 219 378 l 1
 189 381 165 398 165 435 c 0
 165 502 237 527 290 527 c 0
 380.079101562 527 450.567382812 471.989257812 450.567382812 372.237304688 c 0
 450.567382812 338.047851562 443.940429688 321.739257812 438 303 c 1
 405 325 l 1
EndSplineSet
Refer: 561 -1 N 1 0 0 1 141 0 2
LCarets2: 1 0
Ligature2: "si_abvs_2 subtable" si_Dda si_MatraIi
EndChar

StartChar: si_DdU
Encoding: 215 -1 220
GlifName: si_D_dU_
Width: 824
VWidth: -14
Flags: HMW
LayerCount: 4
Back
SplineSet
257 -115 m 17xf7
 283.772460938 -160 l 1
 283.76953125 -152.99609375 217.1875 -191.887695312 217.190429688 -226 c 0
 217.194335938 -272.552734375 241.30078125 -285.247070312 293 -285.247070312 c 1
 680 -287 l 9
 680 89 l 25
 737 149 l 25
 743 -367 l 17
 743 -367 397.004882812 -369.6796875 221 -370.586914062 c 0
 141 -371 99.755859375 -321.6015625 99 -271 c 0
 97.37109375 -161.938476562 257 -115 257 -115 c 17xf7
EndSplineSet
Refer: 40 3497 N 1 0 0 1 -40 0 2
Fore
SplineSet
98.9876178458 -269.343924644 m 0
 98.9876178458 -161.463141736 257 -115 257 -115 c 1
 283.094480378 -158.860428809 l 1
 274.092382939 -158.860428809 217.190429591 -194.608848438 217.190429591 -225.99774857 c 0
 217.192428705 -272.55224766 241.300755306 -285.247070312 293 -285.247070312 c 2
 680 -285.247070312 l 9
 680 89 l 25
 737 149 l 25
 737 -367 l 17
 737 -367 395.685579733 -370.589486823 220.004828198 -370.589486823 c 0
 140.169961771 -370.589486823 98.9876178458 -321.070771019 98.9876178458 -269.343924644 c 0
EndSplineSet
Refer: 40 3497 N 1 0 0 1 -40 0 2
LCarets2: 1 0
Ligature2: "si_blws_1 subtable" si_Dda si_MatraU
EndChar

StartChar: si_NnI
Encoding: 228 -1 233
GlifName: si_N_nI_
Width: 1391
VWidth: 0
Flags: HMW
LayerCount: 4
Back
Refer: 42 3499 N 1 0 0 1 0 0 2
Fore
SplineSet
367.731445312 667.237304688 m 4
 367.731445312 825.642578125 533.770507812 891.36328125 652.110351562 891.36328125 c 4
 741.953125 891.36328125 835 854.552734375 835 778 c 4
 835 733.673828125 811.552734375 691.703125 811.552734375 691.703125 c 13
 777.552734375 691.703125 l 21
 788.178710938 768.157226562 728.55078125 806.69140625 639.0625 806.69140625 c 4
 551.890625 806.69140625 416.20703125 777.232421875 416.20703125 658.5625 c 4
 416.20703125 612.159179688 449.637695312 589.240234375 493.37109375 589.240234375 c 4
 495.727539062 589.240234375 498.123046875 589.392578125 500.552734375 589.703125 c 13
 500.552734375 560.703125 l 21
 487.188476562 555.224609375 478.624023438 552.6796875 467.049804688 552.6796875 c 4
 406.6015625 552.6796875 367.731445312 601.189453125 367.731445312 667.237304688 c 4
EndSplineSet
Refer: 42 3499 S 1 0 0 1 0 0 2
LCarets2: 1 0
Ligature2: "si_abvs_1 subtable" si_Nna si_MatraI
EndChar

StartChar: si_TIi
Encoding: 240 -1 245
GlifName: si_T_I_i
Width: 1073
VWidth: -24
Flags: HMW
AnchorPoint: "si_MaI" 622 489 mark 0
LayerCount: 4
Back
SplineSet
317 427 m 1x2d80
 319.586914062 689.754882812 480.518547864 816.205147793 652 833 c 0
 786.000976562 846.124023438 920.791692129 777.673684576 916 642 c 0
 913.940185547 583.67767693 881.333333333 492 786 492 c 1
 676.076686501 492.000002228 633.558376437 552.792051998 636 619 c 0
 637.942019745 679.022037163 687.117908899 724.326048316 740 743 c 1
 760.968082501 734.068306627 781.218291421 724.317699544 800 714 c 1
 754 714 716.37918509 680.631318228 712 629 c 0
 710.627174559 594.718865376 732.490804277 555 775 555 c 0
 806.914762406 555 825.445623509 579.684590917 825 608 c 0
 823.291521193 716.558627094 717.885723905 746.201365225 610 736 c 0
 485.984375 724.2734375 365.77734375 641.188476562 364 427 c 1
 317 427 l 1x2d80
EndSplineSet
Refer: 8 3501 N 1 0 0 1 0 0 2
Fore
Refer: 574 -1 S 1 0 0 1 349 6 2
Refer: 8 3501 N 1 0 0 1 0 0 2
LCarets2: 1 0
Ligature2: "si_abvs_2 subtable" si_Ta si_MatraIi
EndChar

